<svg width="24" height="24" viewBox="0 0 24 24" fill="none" xmlns="http://www.w3.org/2000/svg">
<path fill-rule="evenodd" clip-rule="evenodd" d="M20.9951 7.80036C20.8911 5.68397 19.1422 4 17 4H7L6.80036 4.0049C4.68397 4.10892 3 5.8578 3 8L3.00173 21.059L3.00673 21.1166L3.0156 21.1764L3.02641 21.2293L3.0583 21.3373L3.08492 21.4039L3.10164 21.4398L3.15569 21.5361L3.2097 21.6129L3.29289 21.7071L3.37455 21.7803L3.46391 21.8443L3.59606 21.9151L3.66274 21.9417L3.77071 21.9736L3.82357 21.9844L3.88338 21.9933L3.94097 21.9983L4 22L4.05903 21.9983L4.11662 21.9933L4.17643 21.9844L4.22929 21.9736L4.33726 21.9417L4.40394 21.9151L4.43977 21.8984L4.53609 21.8443L4.6129 21.7903L4.70711 21.7071L8.414 18H17L17.1996 17.9951C19.316 17.8911 21 16.1422 21 14V8L20.9951 7.80036ZM7 6H17L17.1493 6.00549C18.1841 6.08183 19 6.94564 19 8V14L18.9945 14.1493C18.9182 15.1841 18.0544 16 17 16H8L7.86856 16.0087C7.65185 16.0374 7.44917 16.1366 7.29289 16.2929L5 18.584V8L5.00549 7.85074C5.08183 6.81588 5.94564 6 7 6ZM16 8C16.5523 8 17 8.44772 17 9C17 9.51284 16.614 9.93551 16.1166 9.99327L16 10H8C7.44772 10 7 9.55228 7 9C7 8.48716 7.38604 8.06449 7.88338 8.00673L8 8H16ZM15 13C15 12.4477 14.5523 12 14 12H8L7.88338 12.0067C7.38604 12.0645 7 12.4872 7 13C7 13.5523 7.44772 14 8 14H14L14.1166 13.9933C14.614 13.9355 15 13.5128 15 13Z" fill="white"/>
</svg>
