<svg width="24" height="25" viewBox="0 0 24 25" fill="none" xmlns="http://www.w3.org/2000/svg">
<path d="M12 0.0683594C5.4 0.0683594 0 5.46836 0 12.0684C0 18.6684 5.4 24.0684 12 24.0684C18.6 24.0684 24 18.6684 24 12.0684C24 5.46836 18.6 0.0683594 12 0.0683594ZM19.125 19.1934C18.225 20.0934 17.1 20.8434 15.9 21.3684C15.6 21.5184 15.3 21.5934 15 21.7434V19.9434C15 18.9684 14.7 18.2934 14.025 17.8434C14.4 17.7684 14.775 17.7684 15.15 17.6934C15.525 17.6184 15.825 17.5434 16.2 17.3934C16.575 17.2434 16.95 17.0934 17.25 16.9434C17.55 16.7934 17.85 16.4934 18.15 16.1934C18.45 15.8934 18.675 15.5934 18.825 15.2184C18.975 14.8434 19.125 14.3934 19.275 13.8684C19.35 13.3434 19.425 12.7434 19.425 12.1434C19.425 10.9434 19.05 9.89336 18.225 9.06836C18.6 8.16836 18.525 7.11836 18.075 5.99336H17.775C17.55 5.99336 17.175 6.06836 16.65 6.21836C16.125 6.44336 15.525 6.74336 14.85 7.19336C13.95 6.96836 12.975 6.81836 11.925 6.81836C10.95 6.81836 9.975 6.96836 9.075 7.19336C8.625 6.89336 8.25 6.66836 7.875 6.51836C7.65 6.21836 7.35 6.14336 7.125 6.06836C6.9 5.99336 6.675 5.91836 6.45 5.91836C6.225 5.91836 6.15 5.91836 6.075 5.91836C6 5.91836 6 5.91836 5.925 5.91836C5.475 7.04336 5.475 8.01836 5.775 8.99336C4.95 9.81836 4.575 10.8684 4.575 12.0684C4.575 12.6684 4.65 13.2684 4.725 13.7934C4.8 14.3184 4.95 14.7684 5.175 15.1434C5.325 15.5184 5.625 15.8184 5.85 16.1184C6.15 16.4184 6.45 16.6434 6.75 16.8684C7.05 17.0184 7.425 17.2434 7.8 17.3184C8.175 17.4684 8.55 17.5434 8.85 17.6184C9.225 17.6934 9.6 17.7684 9.975 17.7684C9.3 18.2184 9 18.8934 9 19.8684V21.6684C8.625 21.5934 8.325 21.4434 7.95 21.2934C6.75 20.7684 5.7 20.0934 4.725 19.1184C3.825 18.2184 3.075 17.0934 2.55 15.8934C2.025 14.6184 1.725 13.3434 1.725 11.9934C1.725 10.6434 2.025 9.29336 2.55 8.09336C3.075 6.89336 3.75 5.84336 4.725 4.86836C5.625 3.96836 6.75 3.21836 7.95 2.69336C9.225 2.16836 10.5 1.86836 11.85 1.86836C13.2 1.86836 14.55 2.16836 15.75 2.69336C16.95 3.21836 18 3.89336 18.975 4.86836C19.875 5.76836 20.625 6.89336 21.15 8.09336C21.675 9.36836 21.975 10.6434 21.975 11.9934C21.975 13.3434 21.675 14.6934 21.15 15.8934C20.775 17.1684 20.025 18.2934 19.125 19.1934Z" fill="#FAFD5D"/>
</svg>
