<svg width="25" height="25" viewBox="0 0 25 25" fill="none" xmlns="http://www.w3.org/2000/svg">
<path d="M6.52994 4.15289C6.52994 5.34288 5.65311 6.28235 4.21259 6.28235C2.89734 6.28235 2.02051 5.34288 2.02051 4.15289C2.02051 2.9629 2.89734 2.02344 4.27522 2.02344C5.71574 2.02344 6.52994 2.9629 6.52994 4.15289ZM2.14577 21.8148V8.03602H6.40468V21.8148H2.14577ZM8.97255 12.4202C8.97255 10.7292 8.90992 9.28864 8.84729 8.03602H12.5425L12.7304 9.97758H12.793C13.3567 9.10074 14.7346 7.72286 17.052 7.72286C19.8704 7.72286 21.9998 9.60179 21.9998 13.6728V21.8148H17.7409V14.1739C17.7409 12.4202 17.1146 11.1676 15.5488 11.1676C14.3588 11.1676 13.6699 11.9818 13.3567 12.796C13.2941 13.0465 13.2941 13.4223 13.2941 13.8607V21.8148H9.03518V12.4202H8.97255Z" fill="#FAFD5D"/>
</svg>
