<svg width="24" height="24" viewBox="0 0 24 24" fill="none" xmlns="http://www.w3.org/2000/svg">
<path fill-rule="evenodd" clip-rule="evenodd" d="M5.99327 5.88338C5.93551 5.38604 5.51284 5 5 5C4.44772 5 4 5.44772 4 6L4.00673 6.12662C4.06449 6.62396 4.48716 7.01 5 7.01C5.55228 7.01 6 6.56228 6 6.01L5.99327 5.88338ZM21 6C21 5.44772 20.5523 5 20 5H9L8.88338 5.00673C8.38604 5.06449 8 5.48716 8 6C8 6.55228 8.44772 7 9 7H20L20.1166 6.99327C20.614 6.93551 21 6.51284 21 6ZM21 12C21 11.4477 20.5523 11 20 11H9L8.88338 11.0067C8.38604 11.0645 8 11.4872 8 12C8 12.5523 8.44772 13 9 13H20L20.1166 12.9933C20.614 12.9355 21 12.5128 21 12ZM20 17C20.5523 17 21 17.4477 21 18C21 18.5128 20.614 18.9355 20.1166 18.9933L20 19H9C8.44772 19 8 18.5523 8 18C8 17.4872 8.38604 17.0645 8.88338 17.0067L9 17H20ZM5 11C5.51284 11 5.93551 11.386 5.99327 11.8834L6 12.01C6 12.5623 5.55228 13.01 5 13.01C4.48716 13.01 4.06449 12.624 4.00673 12.1266L4 12C4 11.4477 4.44772 11 5 11ZM5.99327 17.8834C5.93551 17.386 5.51284 17 5 17C4.44772 17 4 17.4477 4 18L4.00673 18.1266C4.06449 18.624 4.48716 19.01 5 19.01C5.55228 19.01 6 18.5623 6 18.01L5.99327 17.8834Z" fill="white"/>
</svg>
