<svg width="24" height="24" viewBox="0 0 24 24" fill="none" xmlns="http://www.w3.org/2000/svg">
<path d="M17.5644 5.13333C16.8049 4.26625 16.3863 3.1527 16.3866 2H12.9533V15.7778C12.9268 16.5234 12.612 17.2296 12.0753 17.7477C11.5385 18.2658 10.8216 18.5555 10.0755 18.5556C8.49774 18.5556 7.18663 17.2667 7.18663 15.6667C7.18663 13.7556 9.03108 12.3222 10.9311 12.9111V9.4C7.09774 8.88889 3.74219 11.8667 3.74219 15.6667C3.74219 19.3667 6.80885 22 10.0644 22C13.5533 22 16.3866 19.1667 16.3866 15.6667V8.67778C17.7789 9.67761 19.4504 10.2141 21.1644 10.2111V6.77778C21.1644 6.77778 19.0755 6.87778 17.5644 5.13333Z" fill="#FAFD5D"/>
</svg>
