<svg width="25" height="25" viewBox="0 0 25 25" fill="none" xmlns="http://www.w3.org/2000/svg">
<g clip-path="url(#clip0_168_350)">
<path fill-rule="evenodd" clip-rule="evenodd" d="M22.9822 5.46836C22.3072 4.26836 21.6322 4.04336 20.2072 3.96836C18.7822 3.89336 15.1822 3.81836 12.0322 3.81836C8.88223 3.81836 5.28223 3.89336 3.85723 3.96836C2.43223 4.04336 1.68223 4.26836 1.08223 5.46836C0.407227 6.59336 0.0322266 8.61836 0.0322266 12.2184C0.0322266 15.7434 0.407227 17.7684 1.08223 18.9684C1.75723 20.1684 2.43223 20.3934 3.85723 20.4684C5.28223 20.5434 8.88223 20.6184 12.0322 20.6184C15.1822 20.6184 18.7822 20.5434 20.2072 20.4684C21.6322 20.3934 22.3822 20.1684 22.9822 18.9684C23.6572 17.7684 24.0322 15.7434 24.0322 12.2184C24.0322 8.61836 23.6572 6.59336 22.9822 5.46836ZM9.63223 16.5684V7.79336L16.4572 12.2184L9.63223 16.5684Z" fill="#FAFD5D"/>
</g>
<defs>
<clipPath id="clip0_168_350">
<rect width="24" height="24" fill="white" transform="translate(0.0322266 0.0683594)"/>
</clipPath>
</defs>
</svg>
