<svg width="480" height="385" viewBox="0 0 480 385" fill="none" xmlns="http://www.w3.org/2000/svg">
<path d="M181.341 376.453C188.494 375.806 198.095 374.734 204.893 372.949M204.893 372.949C205.676 372.743 202.14 367.763 201.957 367.546C197.954 362.776 193.443 358.626 188.754 354.486M204.893 372.949C165.777 368.19 136.732 341.146 135.171 314.428C135.016 311.78 134.851 308.898 134.955 306.025M134.955 306.025C135.119 301.451 135.966 296.903 138.625 293.365C141.079 290.1 145.764 286.898 150.245 287.49C158.616 288.597 161.378 299.022 155.908 304.49C151.101 309.294 140.691 310.173 134.955 306.025ZM134.955 306.025C134.834 305.938 134.715 305.848 134.598 305.756C106.417 283.558 120.895 246.54 146.171 233.579" stroke="black" stroke-width="5.58817" stroke-miterlimit="1.5" stroke-linecap="round" stroke-linejoin="round"/>
<path d="M351.498 42.9722C273.846 11.2078 136.832 37.6799 71.1379 84.2542C41.2189 105.466 -11.4817 162.15 31.1298 202.689C38.6454 209.839 47.3251 215.286 56.1498 219.815C153.269 269.654 275.633 245.995 365.241 195.417C378.605 187.874 391.597 179.323 403.143 168.559C411.778 160.509 419.87 150.899 425.966 140.153C443.809 108.697 434.092 80.9289 407.22 60.1621C376.064 36.0846 337.605 32.6704 301.799 32.8724C270.488 33.0492 239.685 36.5665 209.049 42.5948C151.592 53.9001 85.5717 68.3191 42.3693 113.293C23.4997 132.937 5.71454 171.747 27.9457 198.011C52.0359 226.471 99.9123 230.055 132.085 232.254C218.876 238.188 351.012 210.632 421.237 153.191C428.81 146.997 436.539 141.13 443.016 133.473C448.134 127.424 452.9 120.676 456.855 113.542C484.88 62.9868 403.971 45.0448 376.167 43.918C288.701 40.3732 159.327 35.7006 86.5888 88.0453" stroke="black" stroke-width="4.25826" stroke-miterlimit="1.5" stroke-linecap="round" stroke-linejoin="round"/>
</svg>
