<svg width="108" height="108" viewBox="0 0 108 108" fill="none" xmlns="http://www.w3.org/2000/svg">
<path fill-rule="evenodd" clip-rule="evenodd" d="M0 0H108V108L62.8498 62.8498L66.8438 58.8557C68.6543 57.0452 69.4772 54.9056 68.9834 52.1077C73.0981 55.564 76.7189 57.539 80.1752 57.7036C83.6315 57.8682 87.0878 56.3869 90.7087 52.766C93.342 50.1327 94.8233 47.0055 94.9879 43.5492C96.14 43.0555 97.2921 42.2326 98.2796 41.2451C99.5963 39.9284 100.584 38.2825 101.078 36.4721C99.7609 35.1554 98.4442 34.1679 96.9629 33.6741C95.6462 33.0158 93.8358 32.522 91.5316 32.1929C90.2149 30.2178 88.7337 28.4074 86.9232 26.597C84.7836 24.4574 82.644 22.9761 80.5044 21.4948C80.1752 19.1906 79.6815 17.3802 79.1877 15.8989C78.694 14.4177 77.7065 13.101 76.3898 11.7843C74.5793 12.2781 72.9335 13.2656 71.6168 14.5823C70.8354 15.3637 70.2601 16.1451 69.5647 17.0896C69.3813 17.3387 69.1895 17.5992 68.9834 17.874C65.5272 18.0385 62.4 19.5198 59.7667 22.1532C56.1458 25.774 54.4999 29.3949 54.8291 32.6866C55.1583 35.9783 56.9687 39.7638 60.425 43.8784C58.7792 43.5492 56.9687 43.7138 55.4875 44.8659C54.1708 44.2076 53.1833 43.5492 52.1957 42.5617C51.3728 41.7388 50.8791 40.9159 50.7145 40.093C50.5499 39.27 50.3853 38.4471 50.5499 37.6242C50.5499 36.6367 50.7145 35.8137 50.8791 34.9908C51.0437 34.1679 50.8791 33.345 50.7145 32.522C50.5499 31.6991 50.0561 30.8762 49.3978 30.2178C48.7395 29.5595 48.4103 29.2303 48.0811 29.5595C47.9165 29.7241 47.9165 30.0533 48.0811 30.547C48.0811 30.8762 48.1223 31.1642 48.1634 31.4522C48.2046 31.7403 48.2457 32.0283 48.2457 32.3575V33.6741C48.2457 34.6616 47.9165 35.9783 47.4228 37.1304C46.1061 40.4221 46.7644 43.3847 49.2332 45.8534C49.5624 46.1826 50.2207 46.841 51.702 47.993L49.8475 49.8475L0 0Z" fill="black"/>
</svg>
