<svg width="127" height="141" viewBox="0 0 127 141" fill="none" xmlns="http://www.w3.org/2000/svg">
<g clip-path="url(#clip0_168_345)">
<path d="M118.6 69.4382C118.6 66.004 117.236 62.7105 114.808 60.2822C112.379 57.8538 109.086 56.4896 105.652 56.4896C105.197 56.4891 104.743 56.5124 104.29 56.5592L122.078 4.09912H46.4889L64.2521 56.5145C63.9938 56.5145 63.7304 56.4896 63.4671 56.4896C60.375 56.4861 57.3836 57.5892 55.0341 59.5994C52.6846 61.6097 51.1321 64.3944 50.6573 67.4498C50.1824 70.5053 50.8167 73.6297 52.4453 76.2582C54.074 78.8867 56.5894 80.8455 59.5368 81.7806C56.7824 86.523 53.3528 90.8397 49.3558 94.595C44.1529 99.5688 37.9715 103.405 31.205 105.859C27.4139 104.062 24.4488 100.89 22.9123 96.9862C21.3757 93.0824 21.3827 88.7401 22.932 84.8413C23.3146 83.9469 23.7022 83.0426 24.0699 82.1383C26.957 81.4584 29.5233 79.8082 31.34 77.4636C33.1566 75.119 34.1137 72.2219 34.0511 69.2565C33.9885 66.2911 32.9102 63.4369 30.9962 61.171C29.0822 58.9051 26.4486 57.3647 23.5354 56.8071C20.6222 56.2495 17.6059 56.7087 14.9905 58.1077C12.3751 59.5068 10.319 61.761 9.16591 64.4938C8.01278 67.2265 7.83243 70.2722 8.65498 73.122C9.47753 75.9717 11.2532 78.4529 13.6852 80.1508C9.55196 87.6451 6.39755 95.6389 4.2992 103.936C2.54026 114.544 4.29919 125.799 13.4665 132.164C34.8322 146.976 58.0313 122.981 82.4874 116.954C91.3517 114.768 101.081 115.121 108.886 110.599C111.707 108.993 114.139 106.786 116.01 104.134C117.881 101.482 119.145 98.4512 119.713 95.2558C120.233 92.211 120.135 89.0929 119.426 86.0866C118.716 83.0804 117.41 80.2474 115.584 77.7559C117.532 75.428 118.598 72.4885 118.595 69.4531L118.6 69.4382ZM76.4206 69.5077V69.463C76.4243 67.2347 75.8516 65.0433 74.758 63.1018C73.6645 61.1603 72.0874 59.5346 70.1799 58.3827L84.311 29.7577L98.4719 58.6461C96.6954 59.8266 95.2388 61.4286 94.2322 63.3092C93.2256 65.1897 92.7003 67.2903 92.7032 69.4233V69.7065L76.4206 69.5077Z" fill="#C63D14"/>
<path d="M121.761 69.4367C121.756 65.6822 120.442 62.047 118.045 59.1574C115.648 56.2678 112.318 54.3047 108.629 53.6063L126.486 0.9375H42.0773L59.9648 53.7106C56.842 54.4086 53.998 56.0211 51.7955 58.3423C49.5931 60.6636 48.1321 63.5883 47.599 66.7434C47.0658 69.8985 47.4847 73.1409 48.8022 76.0569C50.1196 78.9729 52.276 81.4304 54.996 83.1157C52.749 86.4539 50.1357 89.5305 47.205 92.288C42.6684 96.6284 37.3373 100.053 31.5038 102.375C28.7661 100.785 26.6909 98.2651 25.6565 95.2733C24.6222 92.2816 24.6977 89.0178 25.8692 86.077L26.068 85.6149L26.4356 84.7454C29.7472 83.5973 32.5945 81.4013 34.5463 78.4901C36.4981 75.5788 37.4481 72.1108 37.2525 68.6113C37.0568 65.1118 35.7261 61.7714 33.462 59.0958C31.1978 56.4203 28.1235 54.5554 24.7045 53.7836C21.2856 53.0118 17.7083 53.3751 14.5143 54.8184C11.3203 56.2618 8.68359 58.7066 7.0035 61.7827C5.32341 64.8587 4.69142 68.3985 5.20325 71.8659C5.71507 75.3333 7.34283 78.5395 9.84002 80.999C9.30339 82.1468 8.73696 83.3094 8.15561 84.5069C4.93403 90.4303 2.59077 96.7905 1.19936 103.388C-1.11111 117.301 2.61546 128.446 11.6884 134.731C16.559 138.214 22.4006 140.079 28.3884 140.062C38.9817 140.062 49.6993 134.741 60.1884 129.534C67.517 125.548 75.2488 122.353 83.2533 120.004C86.1203 119.298 89.0717 118.871 92.197 118.419C98.5642 117.91 104.773 116.175 110.482 113.311C113.702 111.472 116.477 108.947 118.613 105.916C120.748 102.885 122.191 99.4217 122.839 95.7711C123.895 89.5688 122.676 83.1939 119.406 77.819C120.953 75.2951 121.77 72.3919 121.766 69.4317L121.761 69.4367ZM115.436 69.4367C115.436 71.3727 114.862 73.2652 113.786 74.8749C112.711 76.4846 111.182 77.7392 109.393 78.48C107.605 79.2209 105.637 79.4147 103.738 79.037C101.839 78.6594 100.095 77.7271 98.726 76.3582C97.357 74.9892 96.4248 73.2451 96.0471 71.3463C95.6694 69.4475 95.8633 67.4794 96.6041 65.6908C97.345 63.9022 98.5996 62.3735 100.209 61.2979C101.819 60.2223 103.711 59.6482 105.647 59.6482C108.243 59.6509 110.731 60.683 112.566 62.5181C114.401 64.3532 115.433 66.8414 115.436 69.4367ZM117.657 7.26272L101.886 53.7702C101.211 53.9336 100.547 54.1411 99.8986 54.3913L84.3216 22.5913L68.6949 54.2025C68.0145 53.9668 67.319 53.7775 66.613 53.6361L50.8968 7.26272H117.657ZM63.4628 59.6482C65.3987 59.6482 67.2912 60.2223 68.9009 61.2979C70.5106 62.3735 71.7652 63.9022 72.5061 65.6908C73.247 67.4794 73.4408 69.4475 73.0631 71.3463C72.6854 73.2451 71.7532 74.9892 70.3842 76.3582C69.0153 77.7271 67.2712 78.6594 65.3724 79.037C63.4736 79.4147 61.5055 79.2209 59.7169 78.48C57.9283 77.7392 56.3995 76.4846 55.324 74.8749C54.2484 73.2652 53.6743 71.3727 53.6743 69.4367C53.677 66.8414 54.7091 64.3532 56.5442 62.5181C58.3793 60.683 60.8675 59.6509 63.4628 59.6482ZM21.1191 59.7427C23.0559 59.7436 24.9489 60.3192 26.5585 61.3965C28.168 62.4737 29.4219 64.0043 30.1612 65.7944C30.9006 67.5846 31.0923 69.5538 30.712 71.4529C30.3317 73.352 29.3966 75.0957 28.025 76.4631C26.6534 77.8306 24.9069 78.7604 23.0066 79.1348C21.1064 79.5093 19.1377 79.3116 17.3498 78.5668C15.562 77.822 14.0352 76.5635 12.9629 74.9507C11.8905 73.3378 11.3208 71.4431 11.3257 69.5063C11.3283 66.911 12.3604 64.4228 14.1955 62.5877C16.0307 60.7526 18.5189 59.7204 21.1141 59.7178L21.1191 59.7427ZM116.604 94.6928C116.112 97.4318 115.025 100.029 113.419 102.301C111.812 104.573 109.726 106.464 107.307 107.84C102.289 110.277 96.8554 111.742 91.2927 112.158C88.1525 112.61 84.9079 113.077 81.7329 113.862C73.2807 116.31 65.1177 119.663 57.386 123.864C41.6649 131.67 28.0704 138.413 15.2907 129.544C5.9147 123.045 6.34699 111.02 7.44011 104.432C8.72651 98.4358 10.872 92.6571 13.81 87.2745L15.1516 84.497C16.4863 85.0305 17.8869 85.3815 19.3154 85.5404C18.0508 90.0072 18.4042 94.777 20.3132 99.0087C22.2222 103.24 25.5642 106.662 29.7498 108.67L30.9671 109.296L32.254 108.839C39.4324 106.248 45.9903 102.186 51.508 96.9139C55.1526 93.4854 58.3541 89.6145 61.038 85.3913C64.472 85.9137 67.9829 85.3117 71.0467 83.6751C74.1106 82.0386 76.5631 79.4553 78.0385 76.3107C79.5139 73.1661 79.9329 69.6287 79.2331 66.2264C78.5333 62.8241 76.7522 59.7393 74.1555 57.4322L84.2818 36.956L94.5125 57.8247C91.6016 60.63 89.8527 64.4278 89.6134 68.4633C89.374 72.4989 90.6617 76.4768 93.2206 79.6065C95.7795 82.7362 99.4222 84.7886 103.425 85.3559C107.427 85.9232 111.497 84.9639 114.825 82.6685C116.67 86.3926 117.287 90.6057 116.589 94.7028L116.604 94.6928Z" fill="white"/>
</g>
<defs>
<clipPath id="clip0_168_345">
<rect width="127" height="141" fill="white"/>
</clipPath>
</defs>
</svg>
