<svg width="30" height="38" viewBox="0 0 30 38" fill="none" xmlns="http://www.w3.org/2000/svg">
<path d="M1.29151 34.8348L0.139012 4.12469C0.120713 3.63705 0.293715 3.16156 0.621103 2.79969C0.94849 2.43782 1.40434 2.21822 1.89137 2.18776L28.0126 0.554932C28.2676 0.53895 28.5232 0.575388 28.7636 0.661997C29.0039 0.748607 29.224 0.883552 29.4103 1.05851C29.5965 1.23346 29.7449 1.44472 29.8463 1.67925C29.9478 1.91377 30.0001 2.16659 30 2.42211V35.8863C30 36.139 29.9488 36.3891 29.8495 36.6215C29.7501 36.8539 29.6047 37.0638 29.422 37.2384C29.2394 37.413 29.0232 37.5489 28.7865 37.6376C28.5499 37.7264 28.2977 37.7663 28.0453 37.7549L3.07693 36.6333C2.60793 36.6123 2.16397 36.4157 1.83322 36.0825C1.50246 35.7493 1.30909 35.3039 1.29151 34.8348Z" fill="#FF4785"/>
<mask id="mask0_168_332" style="mask-type:luminance" maskUnits="userSpaceOnUse" x="0" y="0" width="30" height="38">
<path d="M1.29151 34.8348L0.139012 4.12469C0.120713 3.63705 0.293715 3.16156 0.621103 2.79969C0.94849 2.43782 1.40434 2.21822 1.89137 2.18776L28.0126 0.554932C28.2676 0.53895 28.5232 0.575388 28.7636 0.661997C29.0039 0.748607 29.224 0.883552 29.4103 1.05851C29.5965 1.23346 29.7449 1.44472 29.8463 1.67925C29.9478 1.91377 30.0001 2.16659 30 2.42211V35.8863C30 36.139 29.9488 36.3891 29.8495 36.6215C29.7501 36.8539 29.6047 37.0638 29.422 37.2384C29.2394 37.413 29.0232 37.5489 28.7865 37.6376C28.5499 37.7264 28.2977 37.7663 28.0453 37.7549L3.07693 36.6333C2.60793 36.6123 2.16397 36.4157 1.83322 36.0825C1.50246 35.7493 1.30909 35.3039 1.29151 34.8348Z" fill="white"/>
</mask>
<g mask="url(#mask0_168_332)">
<path d="M22.1897 5.12456L22.3681 0.833217L25.9553 0.55127L26.1097 4.97668C26.1115 5.02981 26.0981 5.08234 26.0711 5.12811C26.044 5.17387 26.0045 5.21096 25.9571 5.23501C25.9097 5.25906 25.8564 5.26906 25.8035 5.26385C25.7506 5.25864 25.7002 5.23842 25.6584 5.20558L24.2749 4.11558L22.637 5.35818C22.5948 5.3901 22.5444 5.40939 22.4918 5.41379C22.4391 5.41819 22.3862 5.40753 22.3393 5.38305C22.2925 5.35857 22.2535 5.32127 22.227 5.27551C22.2005 5.22974 22.1876 5.17739 22.1897 5.12456ZM17.6019 14.5745C17.6019 15.3023 22.504 14.9535 23.1623 14.4423C23.1623 9.48638 20.5027 6.882 15.6333 6.882C10.7639 6.882 8.03565 9.52708 8.03565 13.494C8.03565 20.4035 17.3603 20.5357 17.3603 24.3046C17.3603 25.3626 16.8421 25.9905 15.7024 25.9905C14.2174 25.9905 13.6303 25.2322 13.6993 22.6536C13.6993 22.0941 8.03565 21.9197 7.86307 22.6536C7.42343 28.9026 11.3166 30.7051 15.7718 30.7051C20.0885 30.7051 23.473 28.4041 23.473 24.2385C23.473 16.833 14.0103 17.0314 14.0103 13.3617C14.0103 11.8742 15.1156 11.6758 15.7718 11.6758C16.4621 11.6758 17.7054 11.7976 17.6019 14.5745Z" fill="white"/>
</g>
</svg>
