<svg width="42" height="42" viewBox="0 0 42 42" fill="none" xmlns="http://www.w3.org/2000/svg">
<path d="M37.653 2.625H4.347C3.39597 2.625 2.625 3.39597 2.625 4.347V37.653C2.625 38.604 3.39597 39.375 4.347 39.375H37.653C38.604 39.375 39.375 38.604 39.375 37.653V4.347C39.375 3.39597 38.604 2.625 37.653 2.625Z" fill="#3178C6"/>
<path fill-rule="evenodd" clip-rule="evenodd" d="M23.9469 31.1837V35.2104C24.6785 35.5716 25.4582 35.8257 26.2621 35.9651C27.1911 36.1366 28.1341 36.221 29.0788 36.2171C29.9995 36.2215 30.918 36.1287 31.8193 35.9402C32.6284 35.7767 33.4004 35.4652 34.0964 35.0214C34.7426 34.6043 35.2752 34.0334 35.6465 33.3598C36.3114 31.9651 36.3992 30.3643 35.8906 28.9052C35.676 28.3596 35.3563 27.8614 34.9496 27.4391C34.513 26.9901 34.0171 26.6028 33.4756 26.2881C32.8523 25.923 32.2045 25.6011 31.5371 25.3247C31.0121 25.1068 30.5396 24.8951 30.1196 24.6894C29.7465 24.5108 29.3895 24.3005 29.0525 24.0608C28.7885 23.8757 28.5593 23.6456 28.3753 23.3809C28.2163 23.1406 28.1335 22.8579 28.1377 22.5698C28.1342 22.3046 28.2081 22.0441 28.3503 21.8203C28.5048 21.5861 28.7109 21.3903 28.9528 21.2481C29.2484 21.074 29.5702 20.9486 29.9056 20.8766C30.3175 20.7851 30.7385 20.7411 31.1604 20.7454C31.5152 20.7466 31.8695 20.772 32.2209 20.8215C32.6003 20.8728 32.9757 20.9504 33.3444 21.0538C33.7194 21.1578 34.0861 21.2894 34.4416 21.4476C34.7866 21.6013 35.1166 21.7868 35.4273 22.0014V18.2438C34.7804 17.999 34.1095 17.823 33.4258 17.7188C32.6001 17.5986 31.7664 17.542 30.932 17.5494C30.02 17.5445 29.1106 17.6481 28.223 17.8579C27.4207 18.0412 26.6579 18.3671 25.9708 18.8199C25.3325 19.2452 24.8054 19.8172 24.4338 20.4881C24.04 21.2332 23.8452 22.0673 23.8681 22.9097C23.8391 24.0237 24.206 25.112 24.9037 25.9809C25.7597 26.9444 26.8391 27.6831 28.0471 28.1321C28.5984 28.3596 29.1124 28.5823 29.5893 28.8002C30.0196 28.9916 30.4331 29.2186 30.8257 29.4788C31.1423 29.6847 31.4204 29.9446 31.6473 30.2466C31.8468 30.5205 31.9527 30.8514 31.9492 31.1903C31.951 31.4442 31.8858 31.6941 31.7602 31.9148C31.6206 32.1519 31.4245 32.3508 31.1893 32.4936C30.8949 32.673 30.573 32.8025 30.2364 32.8768C29.7979 32.9748 29.3495 33.0211 28.9003 33.0146C28.0187 33.013 27.1441 32.8576 26.3159 32.5553C25.4508 32.2431 24.6484 31.7785 23.9469 31.1837ZM17.1823 21.1588H22.4323V17.8421H7.79395V21.1588H13.0203V35.9297H17.1823V21.1588Z" fill="white"/>
</svg>
