<svg width="220" height="56" viewBox="0 0 220 56" fill="none" xmlns="http://www.w3.org/2000/svg">
<g clip-path="url(#clip0_20_1321)">
<path fill-rule="evenodd" clip-rule="evenodd" d="M44.5833 41.7174C45.0651 47.9059 45.0651 50.8071 45.0651 53.9734H30.7454C30.7454 53.2838 30.7578 52.6529 30.7701 52.0129C30.8089 50.024 30.8495 47.95 30.5273 43.7616C30.1014 37.6295 27.4604 36.2669 22.6046 36.2669H18.3027H0.0830078V25.11H23.2861C29.4197 25.11 32.4866 23.2442 32.4866 18.3047C32.4866 13.9611 29.4197 11.3289 23.2861 11.3289H0.0830078V0.411591H25.8418C39.7276 0.411591 46.6279 6.96939 46.6279 17.4449C46.6279 25.2802 41.7721 30.3903 35.2126 31.2419C40.7497 32.3493 43.9869 35.5003 44.5833 41.7174Z" fill="url(#paint0_linear_20_1321)"/>
<path fill-rule="evenodd" clip-rule="evenodd" d="M44.5833 41.7174C45.0651 47.9059 45.0651 50.8071 45.0651 53.9734H30.7454C30.7454 53.2838 30.7578 52.6529 30.7701 52.0129C30.8089 50.024 30.8495 47.95 30.5273 43.7616C30.1014 37.6295 27.4604 36.2669 22.6046 36.2669H18.3027H0.0830078V25.11H23.2861C29.4197 25.11 32.4866 23.2442 32.4866 18.3047C32.4866 13.9611 29.4197 11.3289 23.2861 11.3289H0.0830078V0.411591H25.8418C39.7276 0.411591 46.6279 6.96939 46.6279 17.4449C46.6279 25.2802 41.7721 30.3903 35.2126 31.2419C40.7497 32.3493 43.9869 35.5003 44.5833 41.7174Z" fill="black"/>
<path d="M0.0830078 53.9734V45.6565H15.224C17.753 45.6565 18.3021 47.532 18.3021 48.6505V53.9734H0.0830078Z" fill="url(#paint1_linear_20_1321)"/>
<path d="M0.0830078 53.9734V45.6565H15.224C17.753 45.6565 18.3021 47.532 18.3021 48.6505V53.9734H0.0830078Z" fill="black"/>
<path d="M0.0830078 53.9743V45.6571H15.224C17.753 45.6571 18.3021 47.5326 18.3021 48.6511V53.9743H0.0830078Z" fill="black"/>
<path d="M217.895 16.0824H203.668L197.194 25.1101L190.89 16.0824H175.641L189.356 34.7342L174.448 54.0672H188.675L196.257 43.7619L203.839 54.0672H219.088L204.094 34.1378L217.895 16.0824Z" fill="black"/>
<path d="M76.4297 40.5256C75.1519 43.5064 72.7666 44.784 69.0183 44.784C64.8439 44.784 61.4366 42.5695 61.0956 37.8855H87.7601V34.0528C87.7601 23.7475 81.03 15.0605 68.3368 15.0605C56.4956 15.0605 47.6357 23.6622 47.6357 35.671C47.6357 47.7648 56.3251 55.0893 68.5071 55.0893C78.5595 55.0893 85.545 50.2347 87.5043 41.5474L76.4297 40.5256ZM61.2661 31.2421C61.7773 27.6652 63.7366 24.9398 68.1663 24.9398C72.2554 24.9398 74.4705 27.8357 74.641 31.2421H61.2661Z" fill="black"/>
<path d="M128.284 22.5552C126.665 18.1263 123.173 15.0605 116.443 15.0605C110.735 15.0605 106.646 17.6153 104.601 21.7885V16.0823H90.8008V54.0672H104.601V35.4156C104.601 29.7091 106.22 25.9619 110.735 25.9619C114.909 25.9619 115.932 28.6873 115.932 33.8825V54.0672H129.732V35.4156C129.732 29.7091 131.266 25.9619 135.866 25.9619C140.04 25.9619 140.977 28.6873 140.977 33.8825V54.0672H154.778V30.2203C154.778 22.2997 151.711 15.0605 141.233 15.0605C134.844 15.0605 130.329 18.2968 128.284 22.5552Z" fill="black"/>
<path d="M159.292 16.0823V54.0675H173.093V16.0823H159.292ZM159.207 12.5054H173.178V0.411591H159.207V12.5054Z" fill="black"/>
</g>
<defs>
<linearGradient id="paint0_linear_20_1321" x1="23.3554" y1="0.411591" x2="23.3554" y2="53.9734" gradientUnits="userSpaceOnUse">
<stop/>
<stop offset="1" stop-color="white" stop-opacity="0"/>
</linearGradient>
<linearGradient id="paint1_linear_20_1321" x1="9.19243" y1="45.6565" x2="9.19243" y2="53.9734" gradientUnits="userSpaceOnUse">
<stop/>
<stop offset="1" stop-color="white" stop-opacity="0"/>
</linearGradient>
<clipPath id="clip0_20_1321">
<rect width="219.005" height="54.6777" fill="white" transform="translate(0.0830078 0.411621)"/>
</clipPath>
</defs>
</svg>
