<svg width="287" height="59" viewBox="0 0 287 59" fill="none" xmlns="http://www.w3.org/2000/svg">
<path d="M74.9033 34.3814C75.1993 37.1506 77.7195 41.8995 85.029 41.8995C91.4013 41.8995 94.4642 37.8434 94.4642 33.8882C94.4642 30.3253 92.0426 27.4082 87.2533 26.4194L83.7936 25.6773C82.4617 25.4306 81.5738 24.6885 81.5738 23.5024C81.5738 22.1167 82.955 21.0786 84.6837 21.0786C87.4506 21.0786 88.4887 22.9082 88.6861 24.3409L94.1682 23.1055C93.8722 20.4821 91.5493 16.083 84.6344 16.083C79.3989 16.083 75.5446 19.6929 75.5446 24.0427C75.5446 27.4576 77.6702 30.276 82.3608 31.3141L85.5739 32.0563C87.4506 32.4532 88.1905 33.3433 88.1905 34.4308C88.1905 35.7178 87.1546 36.8523 84.9797 36.8523C82.1164 36.8523 80.6837 35.0743 80.5357 33.1438L74.9033 34.3814ZM115.462 41.1573H121.736C121.574 39.6958 121.491 38.2265 121.489 36.7559V16.8229H114.92V30.9711C114.92 33.7873 113.238 35.7671 110.323 35.7671C107.263 35.7671 105.879 33.5922 105.879 30.8702V16.8251H99.3095V32.2065C99.3095 37.4981 102.668 41.8008 108.547 41.8008C111.115 41.8008 113.931 40.812 115.265 38.5362C115.265 39.525 115.364 40.6596 115.462 41.1573ZM135.07 50.5543V38.7829C136.256 40.4152 138.725 41.7515 142.086 41.7515C148.952 41.7515 153.544 36.3097 153.544 28.9419C153.544 21.7221 149.445 16.2803 142.333 16.2803C138.678 16.2803 135.96 17.9126 134.873 19.7915V16.8251H128.501V50.5543H135.07ZM147.075 28.9912C147.075 33.3433 144.407 35.8658 141.048 35.8658C137.689 35.8658 134.972 33.294 134.972 28.9912C134.972 24.6862 137.689 22.166 141.048 22.166C144.407 22.166 147.075 24.6885 147.075 28.9912ZM157.266 34.5294C157.266 38.3367 160.427 41.8502 165.613 41.8502C169.219 41.8502 171.542 40.1685 172.775 38.2403C172.775 39.1797 172.876 40.5138 173.021 41.1551H179.051C178.86 39.8783 178.761 38.5895 178.755 37.2985V25.3297C178.755 20.435 175.889 16.083 168.183 16.083C161.663 16.083 158.154 20.2871 157.759 24.0943L163.589 25.3297C163.786 23.2041 165.367 21.3745 168.23 21.3745C170.999 21.3745 172.333 22.8095 172.333 24.5382C172.333 25.3791 171.887 26.0719 170.503 26.2692L164.528 27.1594C160.476 27.7535 157.266 30.1774 157.266 34.5294ZM166.997 36.951C164.873 36.951 163.835 35.5676 163.835 34.1326C163.835 32.2536 165.169 31.3141 166.849 31.0675L172.331 30.2267V31.3141C172.331 35.6191 169.764 36.9532 166.994 36.9532L166.997 36.951ZM191.748 41.1573V38.1909C193.031 40.2672 195.6 41.7515 198.959 41.7515C205.876 41.7515 210.421 36.2604 210.421 28.8926C210.421 21.6727 206.32 16.1794 199.208 16.1794C195.6 16.1794 192.934 17.7646 191.847 19.4956V5.34961H185.376V41.1573H191.748ZM203.849 28.9419C203.849 33.3926 201.181 35.8658 197.825 35.8658C194.515 35.8658 191.748 33.3433 191.748 28.9419C191.748 24.4889 194.515 22.0674 197.825 22.0674C201.183 22.0674 203.849 24.4889 203.849 28.9419ZM214.141 34.5294C214.141 38.3367 217.302 41.8502 222.489 41.8502C226.094 41.8502 228.417 40.1685 229.652 38.2403C229.652 39.1797 229.751 40.5138 229.899 41.1551H235.926C235.735 39.8783 235.636 38.5895 235.63 37.2985V25.3297C235.63 20.435 232.765 16.083 225.058 16.083C218.538 16.083 215.029 20.2871 214.634 24.0943L220.464 25.3297C220.661 23.2041 222.242 21.3745 225.105 21.3745C227.874 21.3745 229.208 22.8095 229.208 24.5382C229.208 25.3791 228.762 26.0719 227.379 26.2692L221.403 27.1594C217.352 27.7535 214.141 30.1774 214.141 34.5294ZM223.872 36.951C221.749 36.951 220.711 35.5676 220.711 34.1326C220.711 32.2536 222.045 31.3141 223.724 31.0675L229.206 30.2267V31.3141C229.206 35.6191 226.639 36.951 223.872 36.951ZM240.184 34.3814C240.48 37.1506 243 41.8995 250.31 41.8995C256.682 41.8995 259.745 37.8434 259.745 33.8882C259.745 30.3253 257.323 27.4082 252.534 26.4194L249.074 25.6773C247.742 25.4306 246.854 24.6885 246.854 23.5024C246.854 22.1167 248.236 21.0786 249.964 21.0786C252.731 21.0786 253.769 22.9082 253.967 24.3409L259.449 23.1055C259.153 20.4821 256.832 16.083 249.915 16.083C244.68 16.083 240.827 19.6929 240.827 24.0427C240.827 27.4576 242.949 30.276 247.644 31.3141L250.854 32.0563C252.731 32.4532 253.473 33.3433 253.473 34.4308C253.473 35.7178 252.435 36.8523 250.26 36.8523C247.395 36.8523 245.964 35.0743 245.816 33.1438L240.184 34.3814ZM269.714 26.2199C269.862 23.9934 271.738 21.4216 275.149 21.4216C278.902 21.4216 280.485 23.7983 280.581 26.2199H269.714ZM281.225 32.5496C280.433 34.7245 278.754 36.2604 275.691 36.2604C272.431 36.2604 269.714 33.9353 269.566 30.7222H286.954C286.954 30.6213 287.052 29.6325 287.052 28.693C287.052 20.879 282.557 16.0807 275.05 16.0807C268.826 16.0807 263.095 21.1256 263.095 28.8903C263.095 37.1012 268.971 41.8973 275.642 41.8973C281.62 41.8973 285.472 38.386 286.707 34.1841L281.225 32.5496Z" fill="#1F1F1F"/>
<path d="M31.5454 55.9032C30.1328 57.6835 27.2628 56.7081 27.2315 54.4345L26.7314 21.1807H49.0928C53.1422 21.1807 55.4001 25.8579 52.8821 29.0283L31.5454 55.9032Z" fill="url(#paint0_linear_370_368)"/>
<path d="M31.5454 55.9032C30.1328 57.6835 27.2628 56.7081 27.2315 54.4345L26.7314 21.1807H49.0928C53.1422 21.1807 55.4001 25.8579 52.8821 29.0283L31.5454 55.9032Z" fill="url(#paint1_linear_370_368)" fill-opacity="0.2"/>
<path d="M22.4527 2.39498C23.8653 0.614686 26.7353 1.59004 26.7667 3.86361L26.9865 37.1175H4.90539C0.855999 37.1175 -1.40188 32.4403 1.11609 29.2698L22.4527 2.39498Z" fill="#3ECF8E"/>
<defs>
<linearGradient id="paint0_linear_370_368" x1="26.7334" y1="28.5539" x2="46.6057" y2="36.8882" gradientUnits="userSpaceOnUse">
<stop stop-color="#249361"/>
<stop offset="1" stop-color="#3ECF8E"/>
</linearGradient>
<linearGradient id="paint1_linear_370_368" x1="17.923" y1="16.4908" x2="26.9856" y2="33.5515" gradientUnits="userSpaceOnUse">
<stop/>
<stop offset="1" stop-opacity="0"/>
</linearGradient>
</defs>
</svg>
