<svg width="321" height="36" viewBox="0 0 321 36" fill="none" xmlns="http://www.w3.org/2000/svg">
<path d="M72.8273 9.09131H76.9851V16.3476H84.6386V9.09131H88.7964V28H84.6386V19.8433H76.9851V28H72.8273V9.09131ZM91.9005 18.5192C91.9534 17.6364 92.1741 16.9037 92.5626 16.3211C92.951 15.7385 93.4453 15.2706 94.0456 14.9175C94.6459 14.5644 95.3168 14.3172 96.0583 14.176C96.8174 14.0171 97.5766 13.9377 98.3358 13.9377C99.0243 13.9377 99.7217 13.9906 100.428 14.0966C101.134 14.1848 101.779 14.3702 102.361 14.6527C102.944 14.9352 103.42 15.3324 103.791 15.8444C104.162 16.3388 104.347 17.0008 104.347 17.8306V24.9545C104.347 25.5724 104.383 26.1639 104.453 26.7288C104.524 27.2938 104.648 27.7175 104.824 28H101.011C100.94 27.7881 100.878 27.5763 100.825 27.3644C100.79 27.1349 100.763 26.9054 100.746 26.6759C100.145 27.2938 99.4392 27.7263 98.6271 27.9735C97.815 28.2207 96.9852 28.3443 96.1377 28.3443C95.4845 28.3443 94.8754 28.2648 94.3104 28.1059C93.7454 27.947 93.2511 27.6999 92.8274 27.3644C92.4037 27.029 92.0682 26.6052 91.821 26.0932C91.5915 25.5812 91.4768 24.9721 91.4768 24.2659C91.4768 23.4891 91.6092 22.8535 91.874 22.3592C92.1565 21.8472 92.5096 21.4411 92.9333 21.141C93.3747 20.8408 93.869 20.6201 94.4163 20.4789C94.9813 20.32 95.5463 20.1964 96.1112 20.1081C96.6762 20.0199 97.2323 19.9492 97.7797 19.8963C98.327 19.8433 98.8125 19.7639 99.2362 19.6579C99.6599 19.552 99.9954 19.4019 100.243 19.2077C100.49 18.9959 100.604 18.6957 100.587 18.3073C100.587 17.9012 100.516 17.5834 100.375 17.3539C100.251 17.1068 100.075 16.9214 99.8453 16.7978C99.6334 16.6566 99.3774 16.5683 99.0773 16.533C98.7948 16.48 98.4859 16.4535 98.1504 16.4535C97.4089 16.4535 96.8263 16.6124 96.4026 16.9302C95.9788 17.248 95.7317 17.7777 95.661 18.5192H91.9005ZM100.587 21.2999C100.428 21.4411 100.225 21.5559 99.9777 21.6441C99.7482 21.7148 99.4922 21.7766 99.2097 21.8295C98.9449 21.8825 98.6624 21.9266 98.3623 21.9619C98.0621 21.9972 97.762 22.0414 97.4619 22.0943C97.1794 22.1473 96.8969 22.2179 96.6144 22.3062C96.3496 22.3945 96.1112 22.5181 95.8994 22.677C95.7052 22.8182 95.5463 23.0036 95.4227 23.2331C95.2991 23.4626 95.2373 23.7539 95.2373 24.107C95.2373 24.4425 95.2991 24.725 95.4227 24.9545C95.5463 25.184 95.714 25.3694 95.9259 25.5106C96.1377 25.6342 96.3849 25.7225 96.6674 25.7754C96.9499 25.8284 97.2412 25.8549 97.5413 25.8549C98.2828 25.8549 98.8566 25.7313 99.2627 25.4841C99.6688 25.237 99.9689 24.9457 100.163 24.6102C100.357 24.2571 100.472 23.904 100.507 23.5509C100.56 23.1978 100.587 22.9153 100.587 22.7034V21.2999ZM116.588 19.1283C116.341 17.557 115.414 16.7713 113.808 16.7713C113.207 16.7713 112.704 16.9126 112.298 17.195C111.892 17.4599 111.556 17.813 111.292 18.2543C111.044 18.6781 110.868 19.1548 110.762 19.6844C110.656 20.1964 110.603 20.7084 110.603 21.2204C110.603 21.7148 110.656 22.2179 110.762 22.7299C110.868 23.2419 111.036 23.7098 111.265 24.1335C111.512 24.5396 111.839 24.875 112.245 25.1399C112.651 25.4047 113.145 25.5371 113.728 25.5371C114.628 25.5371 115.317 25.2899 115.794 24.7956C116.288 24.2836 116.597 23.6039 116.721 22.7564H120.349C120.102 24.5749 119.395 25.9608 118.23 26.9142C117.065 27.8676 115.573 28.3443 113.755 28.3443C112.731 28.3443 111.786 28.1766 110.921 27.8411C110.073 27.488 109.35 27.0025 108.749 26.3846C108.149 25.7666 107.681 25.0339 107.346 24.1865C107.01 23.3214 106.843 22.3768 106.843 21.3528C106.843 20.2935 106.993 19.3137 107.293 18.4132C107.611 17.4952 108.07 16.7095 108.67 16.0563C109.27 15.3854 110.003 14.8646 110.868 14.4938C111.733 14.123 112.722 13.9377 113.834 13.9377C114.646 13.9377 115.423 14.0436 116.164 14.2554C116.924 14.4673 117.595 14.7939 118.177 15.2353C118.777 15.659 119.263 16.1975 119.634 16.8508C120.004 17.4863 120.216 18.2455 120.269 19.1283H116.588ZM122.817 9.09131H126.578V19.2342L131.318 14.3084H135.768L130.603 19.3401L136.35 28H131.795L128.035 21.8825L126.578 23.2861V28H122.817V9.09131ZM146.896 19.6844C146.72 18.731 146.402 18.0072 145.943 17.5128C145.501 17.0185 144.822 16.7713 143.904 16.7713C143.303 16.7713 142.8 16.8772 142.394 17.0891C142.006 17.2833 141.688 17.5305 141.441 17.8306C141.211 18.1308 141.043 18.4486 140.937 18.784C140.849 19.1194 140.796 19.4196 140.779 19.6844H146.896ZM140.779 22.0679C140.832 23.2861 141.14 24.1688 141.705 24.7161C142.27 25.2634 143.083 25.5371 144.142 25.5371C144.901 25.5371 145.554 25.3517 146.102 24.981C146.649 24.5926 146.984 24.1865 147.108 23.7628H150.418C149.889 25.4047 149.076 26.5788 147.982 27.285C146.887 27.9912 145.563 28.3443 144.009 28.3443C142.932 28.3443 141.961 28.1766 141.096 27.8411C140.231 27.488 139.499 26.9937 138.898 26.3581C138.298 25.7225 137.83 24.9633 137.495 24.0806C137.177 23.1978 137.018 22.2268 137.018 21.1674C137.018 20.1434 137.186 19.1901 137.521 18.3073C137.857 17.4246 138.333 16.6654 138.951 16.0298C139.569 15.3766 140.302 14.8646 141.149 14.4938C142.014 14.123 142.968 13.9377 144.009 13.9377C145.175 13.9377 146.19 14.1672 147.055 14.6262C147.92 15.0676 148.626 15.6679 149.174 16.427C149.739 17.1862 150.145 18.0513 150.392 19.0223C150.639 19.9934 150.727 21.0086 150.657 22.0679H140.779ZM152.887 14.3084H156.462V16.8508H156.515C156.692 16.427 156.93 16.0386 157.23 15.6855C157.53 15.3148 157.875 15.0058 158.263 14.7586C158.651 14.4938 159.066 14.2908 159.508 14.1495C159.949 14.0083 160.408 13.9377 160.885 13.9377C161.132 13.9377 161.406 13.9818 161.706 14.0701V17.5658C161.529 17.5305 161.317 17.504 161.07 17.4863C160.823 17.451 160.585 17.4334 160.355 17.4334C159.667 17.4334 159.084 17.5481 158.607 17.7777C158.131 18.0072 157.742 18.325 157.442 18.731C157.16 19.1194 156.956 19.5785 156.833 20.1081C156.709 20.6378 156.648 21.2116 156.648 21.8295V28H152.887V14.3084ZM170.948 9.09131H175.079L182.971 21.7766H183.024V9.09131H186.917V28H182.759L174.894 15.3412H174.841V28H170.948V9.09131ZM199.396 19.6844C199.22 18.731 198.902 18.0072 198.443 17.5128C198.001 17.0185 197.322 16.7713 196.404 16.7713C195.803 16.7713 195.3 16.8772 194.894 17.0891C194.506 17.2833 194.188 17.5305 193.941 17.8306C193.711 18.1308 193.543 18.4486 193.437 18.784C193.349 19.1194 193.296 19.4196 193.279 19.6844H199.396ZM193.279 22.0679C193.332 23.2861 193.64 24.1688 194.205 24.7161C194.77 25.2634 195.583 25.5371 196.642 25.5371C197.401 25.5371 198.054 25.3517 198.602 24.981C199.149 24.5926 199.484 24.1865 199.608 23.7628H202.918C202.389 25.4047 201.576 26.5788 200.482 27.285C199.387 27.9912 198.063 28.3443 196.509 28.3443C195.432 28.3443 194.461 28.1766 193.596 27.8411C192.731 27.488 191.999 26.9937 191.398 26.3581C190.798 25.7225 190.33 24.9633 189.995 24.0806C189.677 23.1978 189.518 22.2268 189.518 21.1674C189.518 20.1434 189.686 19.1901 190.021 18.3073C190.357 17.4246 190.833 16.6654 191.451 16.0298C192.069 15.3766 192.802 14.8646 193.649 14.4938C194.514 14.123 195.468 13.9377 196.509 13.9377C197.675 13.9377 198.69 14.1672 199.555 14.6262C200.42 15.0676 201.126 15.6679 201.674 16.427C202.239 17.1862 202.645 18.0513 202.892 19.0223C203.139 19.9934 203.227 21.0086 203.157 22.0679H193.279ZM221.038 28H217.172L214.735 18.8105H214.682L212.352 28H208.459L204.116 14.3084H208.088L210.604 23.6039H210.657L212.935 14.3084H216.589L218.92 23.5774H218.973L221.488 14.3084H225.355L221.038 28ZM229.869 23.5509C229.869 23.957 229.948 24.3101 230.107 24.6102C230.284 24.8927 230.505 25.131 230.769 25.3252C231.034 25.5018 231.334 25.6342 231.67 25.7225C232.023 25.8108 232.385 25.8549 232.756 25.8549C233.02 25.8549 233.294 25.8284 233.577 25.7754C233.877 25.7048 234.142 25.6077 234.371 25.4841C234.618 25.3429 234.821 25.1663 234.98 24.9545C235.139 24.725 235.219 24.4425 235.219 24.107C235.219 23.5421 234.839 23.1183 234.08 22.8359C233.338 22.5534 232.297 22.2709 230.955 21.9884C230.408 21.8648 229.869 21.7236 229.339 21.5647C228.827 21.3881 228.368 21.1674 227.962 20.9026C227.556 20.6201 227.23 20.2759 226.982 19.8698C226.735 19.4461 226.612 18.9341 226.612 18.3338C226.612 17.451 226.779 16.7272 227.115 16.1622C227.468 15.5972 227.927 15.1559 228.492 14.8381C229.057 14.5026 229.692 14.2731 230.399 14.1495C231.105 14.0083 231.829 13.9377 232.57 13.9377C233.312 13.9377 234.027 14.0083 234.715 14.1495C235.422 14.2908 236.048 14.5291 236.596 14.8646C237.143 15.2 237.593 15.6502 237.946 16.2152C238.317 16.7625 238.538 17.4599 238.608 18.3073H235.033C234.98 17.5834 234.707 17.0979 234.212 16.8508C233.718 16.5859 233.135 16.4535 232.464 16.4535C232.252 16.4535 232.023 16.4712 231.776 16.5065C231.529 16.5241 231.299 16.5771 231.087 16.6654C230.893 16.7537 230.725 16.8861 230.584 17.0626C230.443 17.2215 230.372 17.4422 230.372 17.7247C230.372 18.0601 230.496 18.3338 230.743 18.5457C230.99 18.7575 231.308 18.9341 231.696 19.0753C232.102 19.1989 232.561 19.3137 233.073 19.4196C233.585 19.5255 234.106 19.6403 234.636 19.7639C235.183 19.8874 235.713 20.0375 236.225 20.2141C236.755 20.3906 237.222 20.629 237.628 20.9291C238.035 21.2116 238.361 21.5735 238.608 22.0149C238.856 22.4386 238.979 22.9683 238.979 23.6039C238.979 24.5043 238.794 25.2634 238.423 25.8814C238.07 26.4817 237.602 26.9672 237.019 27.3379C236.437 27.7087 235.766 27.9647 235.007 28.1059C234.265 28.2648 233.506 28.3443 232.729 28.3443C231.935 28.3443 231.158 28.2648 230.399 28.1059C229.64 27.947 228.96 27.6822 228.36 27.3114C227.777 26.9407 227.291 26.4552 226.903 25.8549C226.532 25.237 226.329 24.469 226.294 23.5509H229.869ZM261.554 15.4472C261.483 14.9705 261.324 14.5379 261.077 14.1495C260.83 13.7434 260.521 13.3903 260.15 13.0902C259.779 12.7901 259.356 12.5606 258.879 12.4017C258.42 12.2251 257.934 12.1368 257.422 12.1368C256.487 12.1368 255.692 12.3222 255.039 12.693C254.386 13.0461 253.856 13.5316 253.45 14.1495C253.044 14.7498 252.744 15.4383 252.55 16.2152C252.373 16.992 252.285 17.7953 252.285 18.6251C252.285 19.4196 252.373 20.1964 252.55 20.9556C252.744 21.6971 253.044 22.368 253.45 22.9683C253.856 23.5686 254.386 24.0541 255.039 24.4248C255.692 24.7779 256.487 24.9545 257.422 24.9545C258.694 24.9545 259.682 24.5661 260.389 23.7892C261.112 23.0124 261.554 21.9884 261.713 20.7172H265.738C265.632 21.9001 265.358 22.9683 264.917 23.9217C264.476 24.875 263.893 25.6872 263.169 26.3581C262.445 27.029 261.598 27.541 260.627 27.8941C259.656 28.2472 258.588 28.4237 257.422 28.4237C255.975 28.4237 254.668 28.1766 253.503 27.6822C252.355 27.1702 251.384 26.4728 250.59 25.5901C249.795 24.7073 249.186 23.6745 248.763 22.4916C248.339 21.291 248.127 20.0022 248.127 18.6251C248.127 17.2127 248.339 15.9062 248.763 14.7057C249.186 13.4874 249.795 12.4281 250.59 11.5277C251.384 10.6273 252.355 9.9211 253.503 9.4091C254.668 8.8971 255.975 8.6411 257.422 8.6411C258.464 8.6411 259.444 8.79117 260.362 9.09131C261.298 9.39145 262.128 9.83283 262.851 10.4154C263.593 10.9804 264.202 11.6866 264.679 12.5341C265.155 13.3815 265.456 14.3526 265.579 15.4472H261.554ZM268.286 9.09131H272.047V28H268.286V9.09131ZM278.344 21.1674C278.344 21.7148 278.397 22.2532 278.503 22.7829C278.609 23.2949 278.786 23.7628 279.033 24.1865C279.298 24.5926 279.642 24.9192 280.066 25.1663C280.49 25.4135 281.019 25.5371 281.655 25.5371C282.29 25.5371 282.82 25.4135 283.244 25.1663C283.685 24.9192 284.029 24.5926 284.277 24.1865C284.541 23.7628 284.727 23.2949 284.833 22.7829C284.939 22.2532 284.992 21.7148 284.992 21.1674C284.992 20.6201 284.939 20.0817 284.833 19.552C284.727 19.0223 284.541 18.5545 284.277 18.1484C284.029 17.7423 283.685 17.4157 283.244 17.1686C282.82 16.9037 282.29 16.7713 281.655 16.7713C281.019 16.7713 280.49 16.9037 280.066 17.1686C279.642 17.4157 279.298 17.7423 279.033 18.1484C278.786 18.5545 278.609 19.0223 278.503 19.552C278.397 20.0817 278.344 20.6201 278.344 21.1674ZM274.584 21.1674C274.584 20.0728 274.752 19.0841 275.087 18.2014C275.423 17.301 275.899 16.5418 276.517 15.9239C277.135 15.2883 277.877 14.8028 278.742 14.4673C279.607 14.1142 280.578 13.9377 281.655 13.9377C282.732 13.9377 283.703 14.1142 284.568 14.4673C285.451 14.8028 286.201 15.2883 286.819 15.9239C287.437 16.5418 287.914 17.301 288.249 18.2014C288.584 19.0841 288.752 20.0728 288.752 21.1674C288.752 22.2621 288.584 23.2508 288.249 24.1335C287.914 25.0163 287.437 25.7754 286.819 26.411C286.201 27.029 285.451 27.5057 284.568 27.8411C283.703 28.1766 282.732 28.3443 281.655 28.3443C280.578 28.3443 279.607 28.1766 278.742 27.8411C277.877 27.5057 277.135 27.029 276.517 26.411C275.899 25.7754 275.423 25.0163 275.087 24.1335C274.752 23.2508 274.584 22.2621 274.584 21.1674ZM291.197 14.3084H294.772V16.2152H294.852C295.329 15.4207 295.947 14.8469 296.706 14.4938C297.465 14.123 298.242 13.9377 299.036 13.9377C300.043 13.9377 300.864 14.0789 301.499 14.3614C302.152 14.6262 302.664 15.0058 303.035 15.5001C303.406 15.9768 303.662 16.5683 303.803 17.2745C303.962 17.963 304.041 18.731 304.041 19.5785V28H300.281V20.267C300.281 19.1371 300.104 18.2985 299.751 17.7512C299.398 17.1862 298.771 16.9037 297.871 16.9037C296.847 16.9037 296.105 17.2127 295.646 17.8306C295.187 18.4309 294.958 19.4284 294.958 20.8232V28H291.197V14.3084ZM316.112 19.6844C315.935 18.731 315.617 18.0072 315.158 17.5128C314.717 17.0185 314.037 16.7713 313.119 16.7713C312.519 16.7713 312.016 16.8772 311.609 17.0891C311.221 17.2833 310.903 17.5305 310.656 17.8306C310.427 18.1308 310.259 18.4486 310.153 18.784C310.065 19.1194 310.012 19.4196 309.994 19.6844H316.112ZM309.994 22.0679C310.047 23.2861 310.356 24.1688 310.921 24.7161C311.486 25.2634 312.298 25.5371 313.357 25.5371C314.117 25.5371 314.77 25.3517 315.317 24.981C315.864 24.5926 316.2 24.1865 316.323 23.7628H319.634C319.104 25.4047 318.292 26.5788 317.197 27.285C316.103 27.9912 314.779 28.3443 313.225 28.3443C312.148 28.3443 311.177 28.1766 310.312 27.8411C309.447 27.488 308.714 26.9937 308.114 26.3581C307.513 25.7225 307.046 24.9633 306.71 24.0806C306.392 23.1978 306.233 22.2268 306.233 21.1674C306.233 20.1434 306.401 19.1901 306.737 18.3073C307.072 17.4246 307.549 16.6654 308.167 16.0298C308.785 15.3766 309.517 14.8646 310.365 14.4938C311.23 14.123 312.183 13.9377 313.225 13.9377C314.39 13.9377 315.405 14.1672 316.27 14.6262C317.136 15.0676 317.842 15.6679 318.389 16.427C318.954 17.1862 319.36 18.0513 319.607 19.0223C319.854 19.9934 319.943 21.0086 319.872 22.0679H309.994Z" fill="black"/>
<path d="M7.59421 20.6908H12.4935L10.1101 13.7523H10.0571L7.59421 20.6908ZM7.99145 9.09131H12.2552L19.3261 28H15.0094L13.5793 23.7892H6.50841L5.02538 28H0.841103L7.99145 9.09131Z" fill="black"/>
<path d="M43.9609 20.5312L50.1953 8.83594H47.5703L43.8906 16.1484C43.5156 16.8984 43.1719 17.6172 42.8594 18.3047L41.875 16.1484L38.2422 8.83594H35.4297L41.5938 20.3906V27.9844H43.9609V20.5312ZM61 6.75V29.25C61 31.1094 60.3398 32.6992 59.0195 34.0195C57.6992 35.3398 56.1094 36 54.25 36H31.75C29.8906 36 28.3008 35.3398 26.9805 34.0195C25.6602 32.6992 25 31.1094 25 29.25V6.75C25 4.89062 25.6602 3.30078 26.9805 1.98047C28.3008 0.660156 29.8906 0 31.75 0H54.25C56.1094 0 57.6992 0.660156 59.0195 1.98047C60.3398 3.30078 61 4.89062 61 6.75Z" fill="#F97316"/>
</svg>
