<svg width="943" height="446" viewBox="0 0 943 446" fill="none" xmlns="http://www.w3.org/2000/svg">
<g clip-path="url(#clip0_287_355)">
<mask id="path-1-outside-1_287_355" maskUnits="userSpaceOnUse" x="440.58" y="224.282" width="495" height="218" fill="black">
<rect fill="white" x="440.58" y="224.282" width="495" height="218"/>
<path d="M444.041 229.842H484.739L516.295 353.411H516.885V229.842H545.786V436.282H512.461L473.532 285.581H472.942V436.282H444.041V229.842ZM569.898 229.842H658.372V259.334H602.339V313.893H646.871V343.384H602.339V406.791H658.372V436.282H569.898V229.842ZM669.367 229.842H700.628L715.079 388.506H715.669L731.004 229.842H766.394L781.73 388.506H782.32L796.77 229.842H824.787L803.848 436.282H763.445L748.699 297.083H748.109L733.364 436.282H690.306L669.367 229.842ZM883.369 439.232C867.641 439.232 855.746 434.808 847.685 425.96C839.624 416.916 835.593 404.038 835.593 387.327V375.53H866.264V389.686C866.264 403.055 871.868 409.74 883.074 409.74C888.58 409.74 892.708 408.167 895.461 405.021C898.41 401.679 899.885 396.371 899.885 389.096C899.885 380.445 897.919 372.876 893.986 366.388C890.054 359.703 882.78 351.74 872.163 342.5C858.793 330.703 849.454 320.086 844.146 310.649C838.837 301.015 836.183 290.201 836.183 278.208C836.183 261.889 840.312 249.306 848.569 240.459C856.827 231.415 868.82 226.893 884.549 226.893C900.081 226.893 911.78 231.415 919.644 240.459C927.705 249.306 931.735 262.086 931.735 278.798V287.35H901.064V276.734C901.064 269.656 899.688 264.544 896.935 261.398C894.183 258.056 890.152 256.384 884.844 256.384C874.03 256.384 868.624 262.971 868.624 276.144C868.624 283.615 870.59 290.595 874.522 297.083C878.651 303.571 886.024 311.435 896.641 320.676C910.207 332.472 919.546 343.188 924.657 352.822C929.769 362.455 932.325 373.761 932.325 386.737C932.325 403.645 928.098 416.621 919.644 425.666C911.386 434.71 899.295 439.232 883.369 439.232Z"/>
</mask>
<path d="M444.041 229.842V227.266H441.465V229.842H444.041ZM484.739 229.842L487.235 229.205L486.74 227.266H484.739V229.842ZM516.295 353.411L513.799 354.049L514.294 355.987H516.295V353.411ZM516.885 353.411V355.987H519.46V353.411H516.885ZM516.885 229.842V227.266H514.309V229.842H516.885ZM545.786 229.842H548.362V227.266H545.786V229.842ZM545.786 436.282V438.858H548.362V436.282H545.786ZM512.461 436.282L509.967 436.927L510.466 438.858H512.461V436.282ZM473.532 285.581L476.026 284.937L475.527 283.005H473.532V285.581ZM472.942 285.581V283.005H470.367V285.581H472.942ZM472.942 436.282V438.858H475.518V436.282H472.942ZM444.041 436.282H441.465V438.858H444.041V436.282ZM444.041 232.418H484.739V227.266H444.041V232.418ZM482.243 230.479L513.799 354.049L518.79 352.774L487.235 229.205L482.243 230.479ZM516.295 355.987H516.885V350.836H516.295V355.987ZM519.46 353.411V229.842H514.309V353.411H519.46ZM516.885 232.418H545.786V227.266H516.885V232.418ZM543.211 229.842V436.282H548.362V229.842H543.211ZM545.786 433.707H512.461V438.858H545.786V433.707ZM514.955 435.638L476.026 284.937L471.038 286.225L509.967 436.927L514.955 435.638ZM473.532 283.005H472.942V288.157H473.532V283.005ZM470.367 285.581V436.282H475.518V285.581H470.367ZM472.942 433.707H444.041V438.858H472.942V433.707ZM446.616 436.282V229.842H441.465V436.282H446.616ZM569.898 229.842V227.266H567.322V229.842H569.898ZM658.372 229.842H660.948V227.266H658.372V229.842ZM658.372 259.334V261.909H660.948V259.334H658.372ZM602.339 259.334V256.758H599.763V259.334H602.339ZM602.339 313.893H599.763V316.468H602.339V313.893ZM646.871 313.893H649.446V311.317H646.871V313.893ZM646.871 343.384V345.96H649.446V343.384H646.871ZM602.339 343.384V340.809H599.763V343.384H602.339ZM602.339 406.791H599.763V409.367H602.339V406.791ZM658.372 406.791H660.948V404.215H658.372V406.791ZM658.372 436.282V438.858H660.948V436.282H658.372ZM569.898 436.282H567.322V438.858H569.898V436.282ZM569.898 232.418H658.372V227.266H569.898V232.418ZM655.797 229.842V259.334H660.948V229.842H655.797ZM658.372 256.758H602.339V261.909H658.372V256.758ZM599.763 259.334V313.893H604.914V259.334H599.763ZM602.339 316.468H646.871V311.317H602.339V316.468ZM644.295 313.893V343.384H649.446V313.893H644.295ZM646.871 340.809H602.339V345.96H646.871V340.809ZM599.763 343.384V406.791H604.914V343.384H599.763ZM602.339 409.367H658.372V404.215H602.339V409.367ZM655.797 406.791V436.282H660.948V406.791H655.797ZM658.372 433.707H569.898V438.858H658.372V433.707ZM572.474 436.282V229.842H567.322V436.282H572.474ZM669.367 229.842V227.266H666.517L666.805 230.102L669.367 229.842ZM700.628 229.842L703.193 229.608L702.98 227.266H700.628V229.842ZM715.079 388.506L712.514 388.74L712.727 391.082H715.079V388.506ZM715.669 388.506V391.082H718.008L718.233 388.754L715.669 388.506ZM731.004 229.842V227.266H728.666L728.441 229.594L731.004 229.842ZM766.394 229.842L768.958 229.594L768.733 227.266H766.394V229.842ZM781.73 388.506L779.166 388.754L779.391 391.082H781.73V388.506ZM782.32 388.506V391.082H784.671L784.885 388.74L782.32 388.506ZM796.77 229.842V227.266H794.419L794.205 229.608L796.77 229.842ZM824.787 229.842L827.35 230.102L827.637 227.266H824.787V229.842ZM803.848 436.282V438.858H806.176L806.411 436.542L803.848 436.282ZM763.445 436.282L760.884 436.554L761.128 438.858H763.445V436.282ZM748.699 297.083L751.261 296.811L751.016 294.507H748.699V297.083ZM748.109 297.083V294.507H745.792L745.548 296.811L748.109 297.083ZM733.364 436.282V438.858H735.681L735.925 436.554L733.364 436.282ZM690.306 436.282L687.744 436.542L687.978 438.858H690.306V436.282ZM669.367 232.418H700.628V227.266H669.367V232.418ZM698.063 230.076L712.514 388.74L717.644 388.273L703.193 229.608L698.063 230.076ZM715.079 391.082H715.669V385.931H715.079V391.082ZM718.233 388.754L733.568 230.09L728.441 229.594L713.105 388.258L718.233 388.754ZM731.004 232.418H766.394V227.266H731.004V232.418ZM763.83 230.09L779.166 388.754L784.293 388.258L768.958 229.594L763.83 230.09ZM781.73 391.082H782.32V385.931H781.73V391.082ZM784.885 388.74L799.335 230.076L794.205 229.608L779.754 388.273L784.885 388.74ZM796.77 232.418H824.787V227.266H796.77V232.418ZM822.225 229.582L801.286 436.023L806.411 436.542L827.35 230.102L822.225 229.582ZM803.848 433.707H763.445V438.858H803.848V433.707ZM766.006 436.011L751.261 296.811L746.138 297.354L760.884 436.554L766.006 436.011ZM748.699 294.507H748.109V299.658H748.699V294.507ZM745.548 296.811L730.802 436.011L735.925 436.554L750.671 297.354L745.548 296.811ZM733.364 433.707H690.306V438.858H733.364V433.707ZM692.869 436.023L671.93 229.582L666.805 230.102L687.744 436.542L692.869 436.023ZM847.685 425.96L845.762 427.674L845.771 427.685L845.781 427.695L847.685 425.96ZM835.593 375.53V372.954H833.017V375.53H835.593ZM866.264 375.53H868.84V372.954H866.264V375.53ZM895.461 405.021L893.53 403.317L893.522 403.325L895.461 405.021ZM893.986 366.388L891.766 367.694L891.775 367.708L891.784 367.723L893.986 366.388ZM872.163 342.5L870.458 344.431L870.465 344.437L870.472 344.442L872.163 342.5ZM844.146 310.649L841.89 311.892L841.895 311.902L841.901 311.911L844.146 310.649ZM848.569 240.459L850.452 242.216L850.462 242.206L850.472 242.196L848.569 240.459ZM919.644 240.459L917.7 242.149L917.72 242.172L917.74 242.194L919.644 240.459ZM931.735 287.35V289.926H934.311V287.35H931.735ZM901.064 287.35H898.489V289.926H901.064V287.35ZM896.935 261.398L894.947 263.035L894.972 263.065L894.997 263.094L896.935 261.398ZM874.522 297.083L872.319 298.418L872.334 298.442L872.349 298.465L874.522 297.083ZM896.641 320.676L894.95 322.619L894.95 322.619L896.641 320.676ZM924.657 352.822L922.382 354.029L922.382 354.029L924.657 352.822ZM919.644 425.666L917.762 423.907L917.752 423.918L917.742 423.929L919.644 425.666ZM883.369 436.656C868.125 436.656 857.02 432.383 849.589 424.226L845.781 427.695C854.471 437.233 867.156 441.807 883.369 441.807V436.656ZM849.607 424.247C842.103 415.828 838.169 403.647 838.169 387.327H833.017C833.017 404.43 837.144 418.005 845.762 427.674L849.607 424.247ZM838.169 387.327V375.53H833.017V387.327H838.169ZM835.593 378.106H866.264V372.954H835.593V378.106ZM863.689 375.53V389.686H868.84V375.53H863.689ZM863.689 389.686C863.689 396.668 865.142 402.384 868.493 406.381C871.917 410.466 876.943 412.316 883.074 412.316V407.164C877.999 407.164 874.621 405.672 872.441 403.072C870.188 400.385 868.84 396.074 868.84 389.686H863.689ZM883.074 412.316C889.073 412.316 894.014 410.586 897.399 406.718L893.522 403.325C891.402 405.748 888.086 407.164 883.074 407.164V412.316ZM897.392 406.726C900.95 402.694 902.46 396.626 902.46 389.096H897.309C897.309 396.115 895.87 400.665 893.53 403.317L897.392 406.726ZM902.46 389.096C902.46 380.042 900.398 371.997 896.189 365.053L891.784 367.723C895.439 373.754 897.309 380.849 897.309 389.096H902.46ZM896.206 365.082C892.062 358.037 884.539 349.857 873.854 340.557L870.472 344.442C881.02 353.624 888.046 361.369 891.766 367.694L896.206 365.082ZM873.867 340.568C860.593 328.856 851.496 318.462 846.391 309.386L841.901 311.911C847.413 321.71 856.994 332.55 870.458 344.431L873.867 340.568ZM846.402 309.406C841.322 300.186 838.759 289.807 838.759 278.208H833.607C833.607 290.596 836.353 301.843 841.89 311.892L846.402 309.406ZM838.759 278.208C838.759 262.31 842.776 250.441 850.452 242.216L846.686 238.702C837.848 248.172 833.607 261.469 833.607 278.208H838.759ZM850.472 242.196C858.111 233.829 869.325 229.469 884.549 229.469V224.317C868.315 224.317 855.543 229.001 846.667 238.722L850.472 242.196ZM884.549 229.469C899.571 229.469 910.461 233.824 917.7 242.149L921.588 238.769C913.098 229.006 900.591 224.317 884.549 224.317V229.469ZM917.74 242.194C925.223 250.407 929.16 262.473 929.16 278.798H934.311C934.311 261.699 930.186 248.206 921.548 238.724L917.74 242.194ZM929.16 278.798V287.35H934.311V278.798H929.16ZM931.735 284.775H901.064V289.926H931.735V284.775ZM903.64 287.35V276.734H898.489V287.35H903.64ZM903.64 276.734C903.64 269.43 902.24 263.549 898.874 259.702L894.997 263.094C897.136 265.539 898.489 269.881 898.489 276.734H903.64ZM898.924 259.761C895.572 255.691 890.731 253.809 884.844 253.809V258.96C889.574 258.96 892.794 260.42 894.947 263.035L898.924 259.761ZM884.844 253.809C878.891 253.809 874.007 255.646 870.688 259.69C867.448 263.636 866.048 269.27 866.048 276.144H871.199C871.199 269.844 872.502 265.598 874.67 262.958C876.757 260.416 879.983 258.96 884.844 258.96V253.809ZM866.048 276.144C866.048 284.093 868.147 291.534 872.319 298.418L876.725 295.748C873.032 289.656 871.199 283.137 871.199 276.144H866.048ZM872.349 298.465C876.678 305.269 884.273 313.326 894.95 322.619L898.332 318.733C887.774 309.544 880.623 301.873 876.695 295.7L872.349 298.465ZM894.95 322.619C908.412 334.325 917.484 344.797 922.382 354.029L926.933 351.614C921.607 341.578 912.001 330.619 898.331 318.732L894.95 322.619ZM922.382 354.029C927.263 363.226 929.75 374.102 929.75 386.737H934.901C934.901 373.419 932.276 361.685 926.933 351.614L922.382 354.029ZM929.75 386.737C929.75 403.234 925.629 415.491 917.762 423.907L921.526 427.424C930.567 417.752 934.901 404.056 934.901 386.737H929.75ZM917.742 423.929C910.108 432.289 898.801 436.656 883.369 436.656V441.807C899.789 441.807 912.664 437.13 921.546 427.402L917.742 423.929Z" fill="white" mask="url(#path-1-outside-1_287_355)"/>
<path d="M281.968 259.051H248.053V229.56H348.324V259.051H314.409V436H281.968V259.051Z" fill="white"/>
<path d="M185.136 438.949C169.407 438.949 157.414 434.525 149.156 425.678C140.898 416.634 136.77 403.756 136.77 387.044V229.56H169.21V389.403C169.21 396.481 170.586 401.593 173.339 404.739C176.288 407.885 180.417 409.458 185.725 409.458C191.034 409.458 195.064 407.885 197.817 404.739C200.766 401.593 202.241 396.481 202.241 389.403V229.56H233.502V387.044C233.502 403.756 229.373 416.634 221.115 425.678C212.858 434.525 200.864 438.949 185.136 438.949Z" fill="white"/>
<path d="M12.0918 229.56H52.7901L84.3459 353.129H84.9358V229.56H113.837V436H80.5121L41.5833 285.298H40.9935V436H12.0918V229.56Z" fill="white"/>
<path d="M809.859 -2.44043H850.558L882.114 121.129H882.703V-2.44043H911.605V204H878.28L839.351 53.2985H838.761V204H809.859V-2.44043Z" fill="white"/>
<path d="M716.558 -2.44043H760.5L794.12 204H761.68L755.781 163.007V163.597H718.917L713.019 204H682.938L716.558 -2.44043ZM751.948 135.58L737.497 33.5392H736.907L722.751 135.58H751.948Z" fill="white"/>
<path d="M634.754 -2.44043H667.195V204H634.754V-2.44043Z" fill="white"/>
<path d="M533.377 -2.44043H565.818V174.509H619.197V204H533.377V-2.44043Z" fill="white"/>
<path d="M476.641 -2.44043H509.081V204H476.641V-2.44043Z" fill="white"/>
<path d="M363.303 175.098L423.465 27.0511H366.252V-2.44043H458.265V26.4612L398.103 174.509H458.265V204H363.303V175.098Z" fill="white"/>
<path d="M275.337 -2.44043H319.279L352.9 204H320.459L314.561 163.007V163.597H277.696L271.798 204H241.717L275.337 -2.44043ZM310.727 135.58L296.276 33.5392H295.686L281.53 135.58H310.727Z" fill="white"/>
<path d="M131.324 -2.44043H179.395C196.107 -2.44043 208.297 1.49177 215.965 9.35617C223.633 17.024 227.466 28.9189 227.466 45.0409V57.7222C227.466 79.1527 220.389 92.7188 206.233 98.4205V99.0103C214.097 101.37 219.602 106.187 222.748 113.461C226.09 120.736 227.761 130.468 227.761 142.658V178.932C227.761 184.831 227.958 189.647 228.351 193.383C228.744 196.922 229.727 200.461 231.3 204H198.27C197.09 200.658 196.304 197.512 195.911 194.563C195.517 191.614 195.321 186.305 195.321 178.637V140.888C195.321 131.451 193.748 124.865 190.602 121.129C187.653 117.393 182.443 115.526 174.972 115.526H163.765V204H131.324V-2.44043ZM175.561 86.034C182.05 86.034 186.867 84.3629 190.012 81.0205C193.355 77.6781 195.026 72.0747 195.026 64.2103V48.2849C195.026 40.8138 193.65 35.407 190.897 32.0646C188.341 28.7223 184.212 27.0511 178.511 27.0511H163.765V86.034H175.561Z" fill="white"/>
<path d="M12.0918 -2.44043H61.0477C77.7595 -2.44043 89.9493 1.49177 97.6171 9.35617C105.285 17.024 109.119 28.9189 109.119 45.0409V53.2985C109.119 63.9154 107.349 72.5663 103.81 79.251C100.468 85.9357 95.2578 90.7527 88.1798 93.7018V94.2917C104.302 99.7967 112.363 114.149 112.363 137.349V155.044C112.363 170.97 108.136 183.159 99.6815 191.614C91.4239 199.871 79.2341 204 63.1121 204H12.0918V-2.44043ZM57.2138 81.6103C63.7019 81.6103 68.5188 79.9391 71.6646 76.5968C75.007 73.2544 76.6782 67.651 76.6782 59.7866V48.2849C76.6782 40.8138 75.3019 35.407 72.5494 32.0646C69.9934 28.7223 65.8646 27.0511 60.1629 27.0511H44.5324V81.6103H57.2138ZM63.1121 174.509C68.8138 174.509 73.0409 173.034 75.7934 170.085C78.546 166.939 79.9222 161.631 79.9222 154.159V136.17C79.9222 126.732 78.251 120.244 74.9087 116.705C71.7629 112.97 66.4544 111.102 58.9833 111.102H44.5324V174.509H63.1121Z" fill="white"/>
<rect width="614.299" height="36.0595" transform="translate(338.701 353.672)" fill="#ECECEC"/>
<path d="M926.504 363.833H934.794C936.002 363.833 937.048 363.964 937.933 364.226C938.819 364.487 939.553 364.866 940.137 365.363C940.72 365.852 941.153 366.453 941.435 367.164C941.723 367.875 941.867 368.676 941.867 369.568C941.867 370.407 941.727 371.182 941.445 371.893C941.163 372.604 940.731 373.221 940.147 373.744C939.57 374.26 938.839 374.666 937.954 374.961C937.068 375.25 936.022 375.394 934.815 375.394L929.693 375.384V379.559H926.504V363.833ZM934.875 372.627C935.479 372.627 936.005 372.557 936.454 372.416C936.911 372.268 937.29 372.064 937.591 371.802C937.9 371.534 938.128 371.212 938.276 370.836C938.43 370.454 938.507 370.031 938.507 369.568C938.507 368.636 938.202 367.912 937.591 367.395C936.988 366.872 936.082 366.61 934.875 366.61H929.693V372.627H934.875Z" fill="black"/>
<path d="M904.973 371.651C904.973 370.464 905.191 369.377 905.627 368.391C906.063 367.405 906.673 366.56 907.458 365.856C908.249 365.145 909.195 364.595 910.295 364.206C911.402 363.817 912.626 363.622 913.967 363.622C915.302 363.622 916.523 363.817 917.63 364.206C918.736 364.595 919.682 365.145 920.467 365.856C921.258 366.56 921.872 367.405 922.308 368.391C922.744 369.377 922.962 370.464 922.962 371.651C922.962 372.845 922.744 373.942 922.308 374.941C921.872 375.934 921.258 376.789 920.467 377.507C919.682 378.224 918.736 378.784 917.63 379.187C916.523 379.583 915.302 379.781 913.967 379.781C912.626 379.781 911.402 379.583 910.295 379.187C909.195 378.784 908.249 378.224 907.458 377.507C906.673 376.789 906.063 375.934 905.627 374.941C905.191 373.942 904.973 372.845 904.973 371.651ZM908.162 371.651C908.162 372.463 908.306 373.194 908.595 373.844C908.89 374.495 909.296 375.052 909.812 375.515C910.335 375.971 910.949 376.323 911.653 376.571C912.364 376.819 913.136 376.943 913.967 376.943C914.799 376.943 915.567 376.819 916.271 376.571C916.982 376.323 917.596 375.971 918.113 375.515C918.629 375.052 919.035 374.495 919.33 373.844C919.625 373.194 919.773 372.463 919.773 371.651C919.773 370.839 919.625 370.112 919.33 369.468C919.035 368.824 918.629 368.281 918.113 367.838C917.596 367.388 916.982 367.046 916.271 366.812C915.567 366.577 914.799 366.459 913.967 366.459C913.136 366.459 912.364 366.577 911.653 366.812C910.949 367.046 910.335 367.388 909.812 367.838C909.296 368.281 908.89 368.824 908.595 369.468C908.306 370.112 908.162 370.839 908.162 371.651Z" fill="black"/>
<path d="M893.493 366.631H887.688V363.833H902.488V366.631H896.682V379.559H893.493V366.631Z" fill="black"/>
<path d="M864.768 363.833H878.159V366.631H867.957V369.77H876.992V372.396H867.957V376.772H878.37V379.559H864.768V363.833Z" fill="black"/>
<path d="M844.133 363.833H847.322V367.938H857.102V363.833H860.301V379.559H857.102V370.665H847.322V379.559H844.133V363.833Z" fill="black"/>
<path d="M831.737 366.631H825.932V363.833H840.732V366.631H834.926V379.559H831.737V366.631Z" fill="black"/>
<path d="M798.625 371.651C798.625 370.464 798.843 369.377 799.279 368.391C799.715 367.405 800.325 366.56 801.11 365.856C801.902 365.145 802.847 364.595 803.947 364.206C805.054 363.817 806.278 363.622 807.62 363.622C808.955 363.622 810.175 363.817 811.282 364.206C812.389 364.595 813.335 365.145 814.119 365.856C814.911 366.56 815.525 367.405 815.961 368.391C816.396 369.377 816.615 370.464 816.615 371.651C816.615 372.845 816.396 373.942 815.961 374.941C815.525 375.934 814.911 376.789 814.119 377.507C813.335 378.224 812.389 378.784 811.282 379.187C810.175 379.583 808.955 379.781 807.62 379.781C806.278 379.781 805.054 379.583 803.947 379.187C802.847 378.784 801.902 378.224 801.11 377.507C800.325 376.789 799.715 375.934 799.279 374.941C798.843 373.942 798.625 372.845 798.625 371.651ZM801.814 371.651C801.814 372.463 801.959 373.194 802.247 373.844C802.542 374.495 802.948 375.052 803.464 375.515C803.988 375.971 804.601 376.323 805.306 376.571C806.017 376.819 806.788 376.943 807.62 376.943C808.451 376.943 809.219 376.819 809.924 376.571C810.635 376.323 811.249 375.971 811.765 375.515C812.281 375.052 812.687 374.495 812.982 373.844C813.278 373.194 813.425 372.463 813.425 371.651C813.425 370.839 813.278 370.112 812.982 369.468C812.687 368.824 812.281 368.281 811.765 367.838C811.249 367.388 810.635 367.046 809.924 366.812C809.219 366.577 808.451 366.459 807.62 366.459C806.788 366.459 806.017 366.577 805.306 366.812C804.601 367.046 803.988 367.388 803.464 367.838C802.948 368.281 802.542 368.824 802.247 369.468C801.959 370.112 801.814 370.839 801.814 371.651Z" fill="black"/>
<path d="M787.145 366.631H781.34V363.833H796.14V366.631H790.335V379.559H787.145V366.631Z" fill="black"/>
<path d="M755.695 374.881C756.265 375.203 756.841 375.494 757.425 375.756C758.015 376.011 758.626 376.229 759.256 376.41C759.887 376.584 760.547 376.719 761.238 376.812C761.936 376.906 762.677 376.953 763.462 376.953C764.408 376.953 765.212 376.893 765.876 376.772C766.541 376.645 767.08 376.474 767.496 376.259C767.919 376.038 768.224 375.776 768.412 375.474C768.606 375.172 768.704 374.844 768.704 374.488C768.704 373.918 768.466 373.469 767.989 373.14C767.513 372.805 766.779 372.637 765.786 372.637C765.35 372.637 764.89 372.667 764.408 372.728C763.925 372.781 763.435 372.842 762.939 372.909C762.449 372.976 761.963 373.04 761.48 373.1C761.003 373.154 760.554 373.18 760.132 373.18C759.427 373.18 758.75 373.09 758.099 372.909C757.455 372.728 756.882 372.456 756.379 372.094C755.882 371.732 755.487 371.279 755.191 370.735C754.896 370.192 754.749 369.558 754.749 368.834C754.749 368.405 754.806 367.979 754.92 367.556C755.041 367.134 755.228 366.731 755.483 366.349C755.745 365.96 756.08 365.601 756.489 365.272C756.899 364.937 757.392 364.648 757.968 364.407C758.552 364.166 759.223 363.978 759.981 363.844C760.745 363.703 761.614 363.632 762.586 363.632C763.291 363.632 763.998 363.673 764.709 363.753C765.42 363.827 766.111 363.934 766.782 364.075C767.459 364.216 768.11 364.387 768.734 364.588C769.358 364.783 769.938 365.001 770.474 365.242L769.076 367.818C768.633 367.623 768.157 367.445 767.647 367.284C767.137 367.117 766.604 366.973 766.048 366.852C765.491 366.731 764.914 366.637 764.317 366.57C763.727 366.496 763.123 366.459 762.506 366.459C761.627 366.459 760.903 366.523 760.333 366.651C759.769 366.778 759.32 366.942 758.985 367.144C758.649 367.338 758.414 367.559 758.28 367.808C758.153 368.049 758.089 368.291 758.089 368.532C758.089 369.002 758.3 369.387 758.723 369.689C759.146 369.984 759.789 370.132 760.655 370.132C761.003 370.132 761.403 370.108 761.852 370.061C762.308 370.008 762.784 369.951 763.281 369.89C763.784 369.83 764.293 369.776 764.81 369.729C765.333 369.676 765.84 369.649 766.329 369.649C767.255 369.649 768.073 369.753 768.784 369.961C769.502 370.169 770.102 370.467 770.585 370.856C771.068 371.239 771.434 371.705 771.682 372.255C771.93 372.798 772.054 373.408 772.054 374.086C772.054 374.991 771.843 375.8 771.42 376.511C771.004 377.215 770.407 377.812 769.629 378.302C768.858 378.784 767.926 379.153 766.832 379.408C765.739 379.656 764.522 379.781 763.18 379.781C762.295 379.781 761.429 379.724 760.584 379.61C759.739 379.502 758.928 379.348 758.149 379.147C757.378 378.939 756.64 378.694 755.936 378.412C755.238 378.124 754.591 377.809 753.994 377.466L755.695 374.881Z" fill="black"/>
<path d="M737.814 363.833H751.206V366.631H741.004V369.77H750.039V372.396H741.004V376.772H751.417V379.559H737.814V363.833Z" fill="black"/>
<path d="M717.945 374.881C718.515 375.203 719.091 375.494 719.675 375.756C720.265 376.011 720.876 376.229 721.506 376.41C722.137 376.584 722.797 376.719 723.488 376.812C724.186 376.906 724.927 376.953 725.712 376.953C726.658 376.953 727.462 376.893 728.126 376.772C728.791 376.645 729.33 376.474 729.746 376.259C730.169 376.038 730.474 375.776 730.662 375.474C730.856 375.172 730.954 374.844 730.954 374.488C730.954 373.918 730.716 373.469 730.239 373.14C729.763 372.805 729.029 372.637 728.036 372.637C727.6 372.637 727.14 372.667 726.658 372.728C726.175 372.781 725.685 372.842 725.189 372.909C724.699 372.976 724.213 373.04 723.73 373.1C723.253 373.154 722.804 373.18 722.382 373.18C721.677 373.18 721 373.09 720.349 372.909C719.705 372.728 719.132 372.456 718.629 372.094C718.132 371.732 717.737 371.279 717.441 370.735C717.146 370.192 716.999 369.558 716.999 368.834C716.999 368.405 717.056 367.979 717.17 367.556C717.291 367.134 717.478 366.731 717.733 366.349C717.995 365.96 718.33 365.601 718.739 365.272C719.149 364.937 719.642 364.648 720.218 364.407C720.802 364.166 721.473 363.978 722.231 363.844C722.995 363.703 723.864 363.632 724.836 363.632C725.541 363.632 726.248 363.673 726.959 363.753C727.67 363.827 728.361 363.934 729.032 364.075C729.709 364.216 730.36 364.387 730.984 364.588C731.608 364.783 732.188 365.001 732.724 365.242L731.326 367.818C730.883 367.623 730.407 367.445 729.897 367.284C729.387 367.117 728.854 366.973 728.298 366.852C727.741 366.731 727.164 366.637 726.567 366.57C725.977 366.496 725.373 366.459 724.756 366.459C723.877 366.459 723.153 366.523 722.583 366.651C722.019 366.778 721.57 366.942 721.235 367.144C720.899 367.338 720.664 367.559 720.53 367.808C720.403 368.049 720.339 368.291 720.339 368.532C720.339 369.002 720.55 369.387 720.973 369.689C721.396 369.984 722.039 370.132 722.905 370.132C723.253 370.132 723.653 370.108 724.102 370.061C724.558 370.008 725.034 369.951 725.531 369.89C726.034 369.83 726.543 369.776 727.06 369.729C727.583 369.676 728.09 369.649 728.579 369.649C729.505 369.649 730.323 369.753 731.034 369.961C731.752 370.169 732.352 370.467 732.835 370.856C733.318 371.239 733.684 371.705 733.932 372.255C734.18 372.798 734.304 373.408 734.304 374.086C734.304 374.991 734.093 375.8 733.67 376.511C733.254 377.215 732.657 377.812 731.879 378.302C731.108 378.784 730.176 379.153 729.082 379.408C727.989 379.656 726.772 379.781 725.43 379.781C724.545 379.781 723.679 379.724 722.834 379.61C721.989 379.502 721.178 379.348 720.399 379.147C719.628 378.939 718.89 378.694 718.186 378.412C717.488 378.124 716.841 377.809 716.244 377.466L717.945 374.881Z" fill="black"/>
<path d="M709.926 363.833H713.135V379.559H709.926V363.833Z" fill="black"/>
<path d="M691.473 363.833H699.471C700.679 363.833 701.725 363.961 702.61 364.216C703.496 364.464 704.23 364.826 704.814 365.302C705.397 365.779 705.83 366.359 706.112 367.043C706.4 367.727 706.544 368.502 706.544 369.367C706.544 369.951 706.474 370.507 706.333 371.037C706.192 371.561 705.974 372.043 705.679 372.486C705.391 372.929 705.025 373.325 704.582 373.673C704.14 374.015 703.62 374.301 703.023 374.529L706.444 379.559H702.54L699.582 375.092H699.491L694.662 375.082V379.559H691.473V363.833ZM699.552 372.325C700.156 372.325 700.682 372.255 701.131 372.114C701.588 371.973 701.967 371.775 702.268 371.52C702.577 371.265 702.805 370.957 702.953 370.595C703.107 370.226 703.184 369.817 703.184 369.367C703.184 368.488 702.882 367.811 702.278 367.335C701.675 366.852 700.766 366.61 699.552 366.61H694.662V372.325H699.552Z" fill="black"/>
<path d="M664.761 374.881C665.331 375.203 665.908 375.494 666.491 375.756C667.082 376.011 667.692 376.229 668.323 376.41C668.953 376.584 669.614 376.719 670.305 376.812C671.002 376.906 671.743 376.953 672.528 376.953C673.474 376.953 674.279 376.893 674.943 376.772C675.607 376.645 676.147 376.474 676.563 376.259C676.985 376.038 677.29 375.776 677.478 375.474C677.673 375.172 677.77 374.844 677.77 374.488C677.77 373.918 677.532 373.469 677.056 373.14C676.579 372.805 675.845 372.637 674.852 372.637C674.416 372.637 673.957 372.667 673.474 372.728C672.991 372.781 672.501 372.842 672.005 372.909C671.515 372.976 671.029 373.04 670.546 373.1C670.07 373.154 669.62 373.18 669.198 373.18C668.494 373.18 667.816 373.09 667.166 372.909C666.522 372.728 665.948 372.456 665.445 372.094C664.949 371.732 664.553 371.279 664.258 370.735C663.963 370.192 663.815 369.558 663.815 368.834C663.815 368.405 663.872 367.979 663.986 367.556C664.107 367.134 664.295 366.731 664.55 366.349C664.811 365.96 665.147 365.601 665.556 365.272C665.965 364.937 666.458 364.648 667.035 364.407C667.618 364.166 668.289 363.978 669.047 363.844C669.812 363.703 670.68 363.632 671.653 363.632C672.357 363.632 673.065 363.673 673.776 363.753C674.487 363.827 675.178 363.934 675.848 364.075C676.526 364.216 677.176 364.387 677.8 364.588C678.424 364.783 679.004 365.001 679.541 365.242L678.142 367.818C677.7 367.623 677.223 367.445 676.714 367.284C676.204 367.117 675.671 366.973 675.114 366.852C674.557 366.731 673.98 366.637 673.383 366.57C672.793 366.496 672.189 366.459 671.572 366.459C670.694 366.459 669.969 366.523 669.399 366.651C668.836 366.778 668.386 366.942 668.051 367.144C667.716 367.338 667.481 367.559 667.347 367.808C667.219 368.049 667.155 368.291 667.155 368.532C667.155 369.002 667.367 369.387 667.789 369.689C668.212 369.984 668.856 370.132 669.721 370.132C670.07 370.132 670.469 370.108 670.918 370.061C671.375 370.008 671.851 369.951 672.347 369.89C672.85 369.83 673.36 369.776 673.876 369.729C674.4 369.676 674.906 369.649 675.396 369.649C676.321 369.649 677.14 369.753 677.851 369.961C678.568 370.169 679.169 370.467 679.652 370.856C680.134 371.239 680.5 371.705 680.748 372.255C680.996 372.798 681.12 373.408 681.12 374.086C681.12 374.991 680.909 375.8 680.487 376.511C680.071 377.215 679.474 377.812 678.696 378.302C677.924 378.784 676.992 379.153 675.899 379.408C674.805 379.656 673.588 379.781 672.246 379.781C671.361 379.781 670.496 379.724 669.651 379.61C668.806 379.502 667.994 379.348 667.216 379.147C666.444 378.939 665.707 378.694 665.002 378.412C664.305 378.124 663.658 377.809 663.061 377.466L664.761 374.881Z" fill="black"/>
<path d="M636.297 363.833H639.778L644.044 373.985L645.03 376.44L645.805 373.985L647.374 370.283L644.547 363.833H647.827L648.984 366.902L650.061 363.833H653.341L650.513 370.283L652.113 374.066L653.079 376.44L653.824 374.026L658.11 363.833H661.591L654.649 379.559H651.489L650.091 376.44L648.954 373.412L647.817 376.44L646.398 379.559H643.239L636.297 363.833Z" fill="black"/>
<path d="M621.186 363.833H634.577V366.631H624.375V369.77H633.41V372.396H624.375V376.772H634.788V379.559H621.186V363.833Z" fill="black"/>
<path d="M600.561 363.833H603.75L613.55 368.965V363.833H616.739V379.559H613.55V372.345L603.75 367.244V379.559H600.561V363.833Z" fill="black"/>
<path d="M581.333 366.631H575.527V363.833H590.327V366.631H584.522V379.559H581.333V366.631Z" fill="black"/>
<path d="M556.724 374.881C557.294 375.203 557.871 375.494 558.454 375.756C559.045 376.011 559.655 376.229 560.285 376.41C560.916 376.584 561.577 376.719 562.268 376.812C562.965 376.906 563.706 376.953 564.491 376.953C565.437 376.953 566.242 376.893 566.906 376.772C567.57 376.645 568.11 376.474 568.526 376.259C568.948 376.038 569.253 375.776 569.441 375.474C569.636 375.172 569.733 374.844 569.733 374.488C569.733 373.918 569.495 373.469 569.019 373.14C568.542 372.805 567.808 372.637 566.815 372.637C566.379 372.637 565.92 372.667 565.437 372.728C564.954 372.781 564.464 372.842 563.968 372.909C563.478 372.976 562.992 373.04 562.509 373.1C562.033 373.154 561.583 373.18 561.161 373.18C560.457 373.18 559.779 373.09 559.128 372.909C558.484 372.728 557.911 372.456 557.408 372.094C556.912 371.732 556.516 371.279 556.221 370.735C555.926 370.192 555.778 369.558 555.778 368.834C555.778 368.405 555.835 367.979 555.949 367.556C556.07 367.134 556.258 366.731 556.512 366.349C556.774 365.96 557.109 365.601 557.519 365.272C557.928 364.937 558.421 364.648 558.998 364.407C559.581 364.166 560.252 363.978 561.01 363.844C561.775 363.703 562.643 363.632 563.616 363.632C564.32 363.632 565.028 363.673 565.739 363.753C566.45 363.827 567.141 363.934 567.811 364.075C568.489 364.216 569.139 364.387 569.763 364.588C570.387 364.783 570.967 365.001 571.504 365.242L570.105 367.818C569.663 367.623 569.186 367.445 568.677 367.284C568.167 367.117 567.634 366.973 567.077 366.852C566.52 366.731 565.943 366.637 565.346 366.57C564.756 366.496 564.152 366.459 563.535 366.459C562.657 366.459 561.932 366.523 561.362 366.651C560.799 366.778 560.349 366.942 560.014 367.144C559.678 367.338 559.444 367.559 559.31 367.808C559.182 368.049 559.118 368.291 559.118 368.532C559.118 369.002 559.33 369.387 559.752 369.689C560.175 369.984 560.819 370.132 561.684 370.132C562.033 370.132 562.432 370.108 562.881 370.061C563.337 370.008 563.814 369.951 564.31 369.89C564.813 369.83 565.323 369.776 565.839 369.729C566.362 369.676 566.869 369.649 567.359 369.649C568.284 369.649 569.102 369.753 569.813 369.961C570.531 370.169 571.131 370.467 571.614 370.856C572.097 371.239 572.463 371.705 572.711 372.255C572.959 372.798 573.083 373.408 573.083 374.086C573.083 374.991 572.872 375.8 572.449 376.511C572.034 377.215 571.437 377.812 570.659 378.302C569.887 378.784 568.955 379.153 567.862 379.408C566.768 379.656 565.551 379.781 564.209 379.781C563.324 379.781 562.459 379.724 561.614 379.61C560.768 379.502 559.957 379.348 559.179 379.147C558.407 378.939 557.67 378.694 556.965 378.412C556.268 378.124 555.62 377.809 555.023 377.466L556.724 374.881Z" fill="black"/>
<path d="M538.844 363.833H552.235V366.631H542.033V369.77H551.068V372.396H542.033V376.772H552.447V379.559H538.844V363.833Z" fill="black"/>
<path d="M519.93 363.833H528.331C529.357 363.833 530.249 363.944 531.007 364.166C531.772 364.38 532.406 364.679 532.909 365.061C533.412 365.443 533.784 365.899 534.025 366.429C534.274 366.952 534.398 367.519 534.398 368.13C534.398 369.129 534.082 370.004 533.452 370.756C534.176 371.185 534.716 371.742 535.072 372.426C535.427 373.11 535.605 373.888 535.605 374.76C535.605 375.491 535.481 376.152 535.233 376.742C534.991 377.332 534.619 377.839 534.116 378.261C533.62 378.677 532.989 378.999 532.225 379.227C531.467 379.449 530.571 379.559 529.538 379.559H519.93V363.833ZM529.558 369.87C529.833 369.87 530.102 369.88 530.363 369.9C530.813 369.471 531.037 368.981 531.037 368.431C531.037 367.861 530.813 367.422 530.363 367.113C529.92 366.798 529.27 366.641 528.411 366.641H523.119V369.87H529.558ZM529.619 376.782C530.477 376.782 531.128 376.598 531.571 376.229C532.02 375.86 532.245 375.34 532.245 374.669C532.245 373.999 532.02 373.476 531.571 373.1C531.128 372.724 530.477 372.536 529.619 372.536H523.119V376.782H529.619Z" fill="black"/>
<path d="M495.943 363.833H509.335V366.631H499.133V369.77H508.168V372.396H499.133V376.772H509.546V379.559H495.943V363.833Z" fill="black"/>
<path d="M475.309 363.833H478.498V367.938H488.278V363.833H491.477V379.559H488.278V370.665H478.498V379.559H475.309V363.833Z" fill="black"/>
<path d="M462.913 366.631H457.107V363.833H471.907V366.631H466.102V379.559H462.913V366.631Z" fill="black"/>
<path d="M434.188 363.833H447.579V366.631H437.377V369.77H446.412V372.396H437.377V376.772H447.79V379.559H434.188V363.833Z" fill="black"/>
<path d="M415.332 363.833H423.331C424.538 363.833 425.584 363.961 426.47 364.216C427.355 364.464 428.09 364.826 428.673 365.302C429.257 365.779 429.689 366.359 429.971 367.043C430.26 367.727 430.404 368.502 430.404 369.367C430.404 369.951 430.333 370.507 430.192 371.037C430.052 371.561 429.834 372.043 429.538 372.486C429.25 372.929 428.885 373.325 428.442 373.673C427.999 374.015 427.479 374.301 426.882 374.529L430.303 379.559H426.399L423.441 375.092H423.351L418.521 375.082V379.559H415.332V363.833ZM423.411 372.325C424.015 372.325 424.541 372.255 424.991 372.114C425.447 371.973 425.826 371.775 426.128 371.52C426.436 371.265 426.664 370.957 426.812 370.595C426.966 370.226 427.043 369.817 427.043 369.367C427.043 368.488 426.741 367.811 426.138 367.335C425.534 366.852 424.625 366.61 423.411 366.61H418.521V372.325H423.411Z" fill="black"/>
<path d="M398.188 363.833H411.579V366.631H401.377V369.77H410.412V372.396H401.377V376.772H411.79V379.559H398.188V363.833Z" fill="black"/>
<path d="M377.553 363.833H380.742V367.938H390.522V363.833H393.721V379.559H390.522V370.665H380.742V379.559H377.553V363.833Z" fill="black"/>
<path d="M349.834 363.833H353.315L357.581 373.985L358.567 376.44L359.342 373.985L360.911 370.283L358.084 363.833H361.364L362.521 366.902L363.598 363.833H366.878L364.051 370.283L365.65 374.066L366.616 376.44L367.361 374.026L371.647 363.833H375.128L368.186 379.559H365.026L363.628 376.44L362.491 373.412L361.354 376.44L359.935 379.559H356.776L349.834 363.833Z" fill="black"/>
</g>
<defs>
<clipPath id="clip0_287_355">
<rect width="943" height="446" fill="white"/>
</clipPath>
</defs>
</svg>
