<svg width="372" height="47" viewBox="0 0 372 47" fill="none" xmlns="http://www.w3.org/2000/svg">
<path d="M38.4112 0C28.1681 0 21.7656 5.12154 19.2052 15.3646C23.0466 10.2424 27.528 8.32205 32.6495 9.60298C35.571 10.3332 37.6599 12.4533 39.9718 14.8001C43.7376 18.6218 48.0963 23.0466 57.6164 23.0466C67.8595 23.0466 74.2612 17.925 76.8216 7.68195C72.981 12.8042 68.4996 14.7245 63.378 13.4436C60.4558 12.7134 58.3677 10.5933 56.0558 8.24648C52.2893 4.42477 47.9313 0 38.4112 0ZM19.2052 23.0466C8.96288 23.0466 2.56041 28.1681 0 38.4112C3.84134 33.2889 8.32205 31.3686 13.4436 32.6495C16.3658 33.3797 18.4547 35.4998 20.7659 37.8459C24.5324 41.6691 28.891 46.0924 38.4112 46.0924C48.6535 46.0924 55.0553 40.9716 57.6164 30.7285C53.7751 35.8508 49.2936 37.7711 44.1728 36.4901C41.2506 35.76 39.1617 33.6398 36.8498 31.293C33.084 27.4713 28.7254 23.0466 19.2052 23.0466Z" fill="#38BDF8"/>
<path d="M115.227 19.421H108.524V32.396C108.524 35.8559 110.794 35.8021 115.227 35.5856V40.8292C106.253 41.9103 102.685 39.424 102.685 32.396V19.4218H97.7119V13.7996H102.685V6.53836L108.524 4.80915V13.7996H115.227V19.421ZM140.78 13.7996H146.619V40.8292H140.78V36.937C138.726 39.8026 135.537 41.5325 131.321 41.5325C123.968 41.5325 117.859 35.3153 117.859 27.3144C117.859 19.2597 123.968 13.097 131.32 13.097C135.537 13.097 138.726 14.8263 140.78 17.6381V13.7996ZM132.239 35.9641C137.104 35.9641 140.78 32.3422 140.78 27.3144C140.78 22.2866 137.104 18.6647 132.239 18.6647C127.374 18.6647 123.697 22.2866 123.697 27.3144C123.697 32.3422 127.374 35.9641 132.239 35.9641ZM156.35 9.74469C154.295 9.74469 152.62 8.01547 152.62 6.01524C152.622 5.02653 153.015 4.07886 153.714 3.37973C154.413 2.6806 155.361 2.28699 156.35 2.28507C157.339 2.28699 158.286 2.6806 158.985 3.37973C159.685 4.07886 160.078 5.02653 160.08 6.01524C160.08 8.01547 158.404 9.74469 156.35 9.74469ZM153.431 40.8292V13.7996H159.268V40.8292H153.431ZM166.026 40.8292V1.36597H171.865V40.8292H166.026ZM209.761 13.7996H215.924L207.436 40.8292H201.706L196.083 22.6114L190.407 40.8292H184.677L176.189 13.7996H182.352L187.596 32.4505L193.272 13.7996H198.841L204.463 32.4505L209.761 13.7996ZM223.167 9.74541C221.113 9.74541 219.437 8.01547 219.437 6.01524C219.439 5.02653 219.833 4.07886 220.532 3.37973C221.231 2.6806 222.179 2.28699 223.167 2.28507C224.156 2.28699 225.104 2.6806 225.803 3.37973C226.502 4.07886 226.896 5.02653 226.898 6.01524C226.898 8.01547 225.221 9.74469 223.167 9.74469M220.248 40.8285V13.7996H226.087V40.8292L220.248 40.8285ZM247.062 13.0956C253.116 13.0956 257.442 17.2043 257.442 24.2323V40.8285H251.603V24.8274C251.603 20.7194 249.224 18.5572 245.549 18.5572C241.71 18.5572 238.682 20.8269 238.682 26.3416V40.8292H232.844V13.7996H238.682V17.2595C240.467 14.4477 243.386 13.0956 247.062 13.0956ZM285.12 2.98765H290.959V40.8292H285.12V36.937C283.066 39.8026 279.876 41.5325 275.66 41.5325C268.307 41.5325 262.198 35.3153 262.198 27.3144C262.198 19.2597 268.307 13.097 275.659 13.097C279.876 13.097 283.066 14.8263 285.12 17.6381V2.98765ZM276.579 35.9641C281.444 35.9641 285.12 32.3422 285.12 27.3144C285.12 22.2866 281.444 18.6647 276.579 18.6647C271.713 18.6647 268.037 22.2866 268.037 27.3144C268.037 32.3422 271.713 35.9641 276.579 35.9641ZM310.528 41.5325C302.365 41.5325 296.256 35.3153 296.256 27.3144C296.256 19.2597 302.365 13.097 310.528 13.097C315.826 13.097 320.421 15.8536 322.584 20.0706L317.556 22.9899C316.367 20.4491 313.717 18.8267 310.474 18.8267C305.717 18.8267 302.095 22.4494 302.095 27.3144C302.095 32.1795 305.717 35.8021 310.474 35.8021C313.717 35.8021 316.367 34.1259 317.664 31.6389L322.692 34.5045C320.421 38.7752 315.826 41.5325 310.528 41.5325ZM332.314 21.26C332.314 26.1788 346.856 23.2057 346.856 33.2068C346.856 38.6125 342.153 41.5325 336.314 41.5325C330.909 41.5325 327.017 39.0993 325.287 35.2071L330.314 32.2877C331.179 34.721 333.341 36.1799 336.314 36.1799C338.91 36.1799 340.91 35.3153 340.91 33.1531C340.91 28.3418 326.368 31.0446 326.368 21.3682C326.368 16.2859 330.747 13.097 336.261 13.097C340.693 13.097 344.369 15.151 346.262 18.7192L341.343 21.4758C340.369 19.368 338.477 18.3951 336.261 18.3951C334.152 18.3951 332.314 19.3135 332.314 21.26ZM357.236 21.26C357.236 26.1788 371.778 23.2057 371.778 33.2068C371.778 38.6125 367.075 41.5325 361.236 41.5325C355.831 41.5325 351.938 39.0993 350.208 35.2071L355.235 32.2877C356.1 34.721 358.263 36.1799 361.236 36.1799C363.831 36.1799 365.831 35.3153 365.831 33.1531C365.831 28.3418 351.29 31.0446 351.29 21.3682C351.29 16.2859 355.668 13.097 361.182 13.097C365.614 13.097 369.291 15.151 371.184 18.7192L366.264 21.4758C365.29 19.368 363.398 18.3951 361.182 18.3951C359.074 18.3951 357.236 19.3135 357.236 21.26Z" fill="#0F172A"/>
</svg>
