<svg width="198" height="78" viewBox="0 0 198 78" fill="none" xmlns="http://www.w3.org/2000/svg">
<g clip-path="url(#clip0_20_2044)">
<path d="M120.291 52.0192H125.52V32.8532H120.291V52.0192ZM120.069 27.8986C120.069 26.1958 121.018 25.3447 122.915 25.3447C124.811 25.3447 125.761 26.1958 125.761 27.8986C125.761 28.7104 125.523 29.3417 125.049 29.7933C124.575 30.2449 123.864 30.4701 122.915 30.4701C121.018 30.4701 120.069 29.6129 120.069 27.8986Z" fill="#0C344B"/>
<path fill-rule="evenodd" clip-rule="evenodd" d="M99.1367 40.9616C100.823 39.533 101.666 37.4706 101.666 34.7733C101.666 32.1788 100.875 30.2273 99.2917 28.9185C97.7088 27.611 95.3976 26.9561 92.357 26.9561H84.3516V52.0191H89.6657V43.1044H91.946C95.0544 43.1044 97.4515 42.3907 99.1367 40.9616ZM91.4145 38.7503H89.6657V31.3108H92.0828C93.5344 31.3108 94.5998 31.6074 95.2802 32.2018C95.96 32.7963 96.3002 33.7164 96.3002 34.9621C96.3002 36.1958 95.8946 37.1359 95.0828 37.7818C94.2711 38.4276 93.0489 38.7503 91.4145 38.7503Z" fill="#0C344B"/>
<path d="M117.518 32.6475C117.049 32.5446 116.461 32.4932 115.752 32.4932C114.563 32.4932 113.463 32.8219 112.452 33.4786C111.446 34.1306 110.618 35.0233 110.043 36.0761H109.787L109.015 32.8533H105.055V52.0193H110.284V42.265C110.284 40.722 110.749 39.5216 111.68 38.6645C112.612 37.8073 113.912 37.3788 115.581 37.3788C116.187 37.3788 116.701 37.4363 117.124 37.5501L117.518 32.6475ZM141.879 50.8195C143.246 49.7904 143.928 48.2941 143.928 46.328C143.928 45.3794 143.763 44.5622 143.431 43.8764C143.1 43.1905 142.585 42.5852 141.888 42.0592C141.192 41.5338 140.094 40.9684 138.597 40.3624C136.917 39.6881 135.828 39.179 135.331 38.8364C134.834 38.4938 134.585 38.0882 134.585 37.6191C134.585 36.7849 135.357 36.3679 136.9 36.3679C137.768 36.3679 138.62 36.4992 139.454 36.7613C140.288 37.0253 141.186 37.3618 142.146 37.7735L143.723 34.0022C141.54 32.9968 139.294 32.4938 136.985 32.4938C134.562 32.4938 132.692 32.9593 131.372 33.8909C130.051 34.8225 129.391 36.1391 129.391 37.8419C129.391 38.8364 129.548 39.6736 129.863 40.3534C130.176 41.0338 130.679 41.6367 131.372 42.1621C132.062 42.6881 133.146 43.2595 134.62 43.8764C135.648 44.311 136.471 44.6905 137.089 45.0162C137.706 45.3425 138.14 45.6337 138.392 45.8909C138.643 46.1482 138.769 46.4823 138.769 46.8939C138.769 47.9908 137.82 48.5392 135.922 48.5392C134.997 48.5392 133.925 48.3849 132.709 48.0768C131.491 47.768 130.397 47.3855 129.425 46.9278V51.2481C130.313 51.623 131.238 51.9016 132.186 52.0792C133.169 52.2681 134.357 52.3625 135.752 52.3625C138.471 52.3625 140.514 51.8486 141.879 50.8195ZM164.642 52.0193H159.413V40.8249C159.413 39.4423 159.181 38.4048 158.72 37.7135C158.256 37.0222 157.528 36.676 156.533 36.676C155.197 36.676 154.225 37.1675 153.619 38.1506C153.013 39.1336 152.71 40.7505 152.71 43.0023V52.0193H147.482V32.8533H151.476L152.179 35.3049H152.471C152.985 34.4248 153.728 33.7359 154.699 33.2389C155.671 32.742 156.785 32.4932 158.042 32.4932C160.911 32.4932 162.853 33.4308 163.871 35.3049H164.333C164.848 34.4133 165.605 33.722 166.605 33.2305C167.605 32.7389 168.734 32.4932 169.991 32.4932C172.162 32.4932 173.806 33.0507 174.919 34.1645C176.034 35.2789 176.591 37.0646 176.591 39.5216V52.0193H171.345V40.8249C171.345 39.4423 171.113 38.4048 170.651 37.7135C170.188 37.0222 169.459 36.676 168.465 36.676C167.185 36.676 166.228 37.1336 165.593 38.0477C164.959 38.9623 164.642 40.4133 164.642 42.4018V52.0193Z" fill="#0C344B"/>
<path fill-rule="evenodd" clip-rule="evenodd" d="M192.338 49.4132L193.35 52.0191H197.001V39.2473C197.001 36.9615 196.315 35.2588 194.944 34.1389C193.572 33.019 191.601 32.4585 189.029 32.4585C186.344 32.4585 183.898 33.036 181.692 34.1903L183.423 37.7218C185.492 36.7957 187.292 36.3332 188.824 36.3332C190.812 36.3332 191.807 37.3048 191.807 39.2473V40.0875L188.481 40.1904C185.612 40.2933 183.467 40.8278 182.043 41.7933C180.621 42.7594 179.91 44.2594 179.91 46.2933C179.91 48.2364 180.438 49.7334 181.495 50.7848C182.552 51.8363 184 52.3617 185.841 52.3617C187.338 52.3617 188.552 52.1474 189.483 51.7189C190.415 51.2903 191.321 50.5221 192.201 49.4132H192.338ZM189.784 43.2073L191.807 43.1389V44.7158C191.807 45.8708 191.443 46.7963 190.718 47.4931C189.993 48.1904 189.023 48.5391 187.812 48.5391C186.121 48.5391 185.275 47.8018 185.275 46.3278C185.275 45.2987 185.646 44.5336 186.39 44.0306C187.132 43.5282 188.264 43.2533 189.784 43.2073ZM57.6591 61.5706L22.8653 71.8612C21.8024 72.176 20.7836 71.2565 21.007 70.1844L33.4368 10.6564C33.6693 9.54375 35.208 9.367 35.6935 10.3979L58.7081 59.2697C59.1421 60.1917 58.647 61.2788 57.6591 61.5706ZM63.6258 59.1432L36.978 2.55583V2.55462C36.6469 1.8578 36.1334 1.26358 35.4919 0.834946C34.8505 0.406317 34.105 0.159265 33.3345 0.119987C31.7128 0.0255554 30.26 0.807641 29.4404 2.13876L0.539581 48.9489C0.100522 49.656 -0.12789 50.4736 -0.118884 51.3059C-0.109879 52.1381 0.136172 52.9506 0.590429 53.648L14.7176 75.5319C15.5596 76.8382 17.0185 77.5943 18.5348 77.5943C18.9646 77.5943 19.3968 77.5337 19.8217 77.4078L60.8292 65.2794C61.4465 65.0986 62.0177 64.7873 62.5044 64.3667C62.991 63.946 63.3817 63.4258 63.65 62.8412C63.9148 62.2599 64.0499 61.628 64.0457 60.9892C64.0415 60.3505 63.8982 59.721 63.6258 59.1432Z" fill="#0C344B"/>
</g>
<defs>
<clipPath id="clip0_20_2044">
<rect width="197.542" height="77.5944" fill="white"/>
</clipPath>
</defs>
</svg>
