<svg width="258" height="68" viewBox="0 0 258 68" fill="none" xmlns="http://www.w3.org/2000/svg">
<g clip-path="url(#clip0_20_1385)">
<path d="M18.1121 57.9412C15.073 55.1628 14.1858 49.3255 15.452 45.0967C17.6475 47.7628 20.6896 48.6077 23.8405 49.084C28.7049 49.82 33.4822 49.5448 38.001 47.3215C38.5179 47.0672 38.9957 46.7281 39.5605 46.3857C39.9846 47.6154 40.0949 48.8573 39.9468 50.1214C39.5867 53.1998 38.0548 55.5779 35.6182 57.3801C34.6439 58.1013 33.6129 58.7458 32.6067 59.4259C29.5152 61.5147 28.6788 63.9648 29.8405 67.5289C29.868 67.6157 29.8927 67.7025 29.9552 67.9144C28.3768 67.2081 27.2238 66.1794 26.3453 64.8273C25.4175 63.3997 24.9761 61.8208 24.9528 60.1128C24.9412 59.2813 24.9412 58.4424 24.8294 57.623C24.5564 55.625 23.6184 54.7302 21.8512 54.6784C20.0376 54.626 18.603 55.7467 18.2225 57.5127C18.1935 57.6479 18.1514 57.7818 18.1092 57.9392L18.1121 57.9412Z" fill="#17191E"/>
<path d="M0.766602 44.3917C0.766602 44.3917 9.76606 40.008 18.7907 40.008L25.5949 18.9501C25.8497 17.9317 26.5935 17.2396 27.4332 17.2396C28.2729 17.2396 29.0167 17.9317 29.2715 18.9501L36.0757 40.008C46.7639 40.008 54.1 44.3917 54.1 44.3917C54.1 44.3917 38.8134 2.74902 38.7836 2.66547C38.3448 1.43431 37.6042 0.641357 36.6057 0.641357H18.2623C17.2638 0.641357 16.553 1.43431 16.0844 2.66547C16.0514 2.74748 0.766602 44.3917 0.766602 44.3917Z" fill="#17191E"/>
<path d="M95.6506 30.9968C95.6506 34.6868 91.0606 36.8906 84.7053 36.8906C80.5687 36.8906 79.1061 35.8656 79.1061 33.713C79.1061 31.458 80.9218 30.3817 85.0578 30.3817C88.7908 30.3817 91.9681 30.4329 95.6506 30.8942V30.9968ZM95.7011 26.4354C93.4313 25.9229 90.001 25.6154 85.9155 25.6154C74.0116 25.6154 68.4131 28.4342 68.4131 34.9943C68.4131 41.8108 72.2463 44.4247 81.1237 44.4247C88.6394 44.4247 93.7333 42.5283 95.6002 37.8644H95.9022C95.8518 38.992 95.8013 40.1194 95.8013 40.9907C95.8013 43.3995 96.2049 43.6045 98.172 43.6045H107.453C106.948 42.1695 106.646 38.1206 106.646 34.6355C106.646 30.8942 106.797 28.0754 106.797 24.2828C106.797 16.5439 102.157 11.6237 87.6303 11.6237C81.3759 11.6237 74.4152 12.7 69.1195 14.2888C69.6233 16.3901 70.3297 20.644 70.6829 23.4115C75.2729 21.259 81.7796 20.3365 86.8237 20.3365C93.7838 20.3365 95.7011 21.9252 95.7011 25.1541V26.4354Z" fill="#17191E"/>
<path d="M121.166 33.1494C119.905 33.3031 118.19 33.3031 116.425 33.3031C114.559 33.3031 112.844 33.2519 111.683 33.0981C111.683 33.5081 111.633 33.9693 111.633 34.3794C111.633 40.7858 115.819 44.527 130.548 44.527C144.418 44.527 148.907 40.8371 148.907 34.3281C148.907 28.1779 145.932 25.1542 132.767 24.4879C122.528 24.0266 121.62 22.8991 121.62 21.6178C121.62 20.1315 122.931 19.3627 129.791 19.3627C136.903 19.3627 138.82 20.3365 138.82 22.3866V22.8478C139.828 22.7966 141.645 22.7454 143.511 22.7454C145.276 22.7454 147.193 22.7966 148.303 22.8991C148.303 22.4378 148.353 22.0278 148.353 21.6691C148.353 14.1351 142.098 11.675 129.993 11.675C116.374 11.675 111.784 15.0064 111.784 21.5153C111.784 27.358 115.467 30.9968 128.53 31.5606C138.164 31.8681 139.224 32.9444 139.224 34.4306C139.224 36.0194 137.659 36.737 130.901 36.737C123.133 36.737 121.166 35.6607 121.166 33.4569V33.1494Z" fill="#17191E"/>
<path d="M165.556 6.13989C161.874 9.57378 155.267 13.0076 151.585 13.9301C151.635 15.8264 151.635 19.3115 151.635 21.2078L155.015 21.259C154.964 24.8979 154.914 29.3055 154.914 32.2268C154.914 39.0432 158.495 44.1684 169.642 44.1684C174.333 44.1684 177.46 43.6559 181.344 42.8359C180.94 40.3245 180.486 36.4807 180.335 33.5594C178.015 34.3281 175.089 34.7381 171.861 34.7381C167.372 34.7381 165.556 33.5081 165.556 29.9718C165.556 26.8967 165.556 24.0266 165.607 21.3616C171.357 21.4128 177.107 21.5153 180.486 21.6178C180.436 18.9527 180.537 15.1089 180.688 12.5463C175.795 12.6488 170.298 12.7001 165.758 12.7001C165.809 10.445 165.859 8.2925 165.909 6.13989H165.556Z" fill="#17191E"/>
<path d="M195.68 19.6703C195.73 17.0052 195.781 14.7502 195.831 12.5463H185.692C185.844 16.954 185.844 21.4641 185.844 28.0755C185.844 34.6869 185.793 39.2483 185.692 43.6046H197.294C197.092 40.5296 197.041 35.3532 197.041 30.9456C197.041 23.9754 199.866 21.9766 206.272 21.9766C209.248 21.9766 211.366 22.3354 213.233 23.0016C213.283 20.3878 213.788 15.3139 214.09 13.0589C212.173 12.4951 210.055 12.1364 207.482 12.1364C201.985 12.0851 197.95 14.3401 196.083 19.7215L195.68 19.6703Z" fill="#17191E"/>
<path d="M246.183 27.8703C246.183 33.4568 242.148 36.0706 235.793 36.0706C229.488 36.0706 225.453 33.6105 225.453 27.8703C225.453 22.1302 229.538 19.9777 235.793 19.9777C242.098 19.9777 246.183 22.284 246.183 27.8703ZM256.725 27.6141C256.725 16.4926 248.049 11.5212 235.793 11.5212C223.486 11.5212 215.112 16.4926 215.112 27.6141C215.112 38.6844 222.931 44.6298 235.742 44.6298C248.655 44.6298 256.725 38.6844 256.725 27.6141Z" fill="#17191E"/>
</g>
<defs>
<clipPath id="clip0_20_1385">
<rect width="256.31" height="67.2731" fill="white" transform="translate(0.766602 0.641357)"/>
</clipPath>
</defs>
</svg>
