<svg width="943" height="446" viewBox="0 0 943 446" fill="none" xmlns="http://www.w3.org/2000/svg">
<g clip-path="url(#clip0_20_1314)">
<mask id="path-1-outside-1_20_1314" maskUnits="userSpaceOnUse" x="440.58" y="224.282" width="495" height="218" fill="black">
<rect fill="white" x="440.58" y="224.282" width="495" height="218"/>
<path d="M444.041 229.842H484.739L516.295 353.411H516.885V229.842H545.786V436.282H512.461L473.532 285.581H472.942V436.282H444.041V229.842ZM569.898 229.842H658.372V259.334H602.339V313.893H646.871V343.384H602.339V406.791H658.372V436.282H569.898V229.842ZM669.367 229.842H700.628L715.079 388.506H715.669L731.004 229.842H766.394L781.73 388.506H782.32L796.77 229.842H824.787L803.848 436.282H763.445L748.699 297.083H748.109L733.364 436.282H690.306L669.367 229.842ZM883.369 439.232C867.641 439.232 855.746 434.808 847.685 425.96C839.624 416.916 835.593 404.038 835.593 387.327V375.53H866.264V389.686C866.264 403.055 871.868 409.74 883.074 409.74C888.58 409.74 892.708 408.167 895.461 405.021C898.41 401.679 899.885 396.371 899.885 389.096C899.885 380.445 897.919 372.876 893.986 366.388C890.054 359.703 882.78 351.74 872.163 342.5C858.793 330.703 849.454 320.086 844.146 310.649C838.837 301.015 836.183 290.201 836.183 278.208C836.183 261.889 840.312 249.306 848.569 240.459C856.827 231.415 868.82 226.893 884.549 226.893C900.081 226.893 911.78 231.415 919.644 240.459C927.705 249.306 931.735 262.086 931.735 278.798V287.35H901.064V276.734C901.064 269.656 899.688 264.544 896.935 261.398C894.183 258.056 890.152 256.384 884.844 256.384C874.03 256.384 868.624 262.971 868.624 276.144C868.624 283.615 870.59 290.595 874.522 297.083C878.651 303.571 886.024 311.435 896.641 320.676C910.207 332.472 919.546 343.188 924.657 352.822C929.769 362.455 932.325 373.761 932.325 386.737C932.325 403.645 928.098 416.621 919.644 425.666C911.386 434.71 899.295 439.232 883.369 439.232Z"/>
</mask>
<path d="M444.041 229.842V227.266H441.465V229.842H444.041ZM484.739 229.842L487.235 229.205L486.74 227.266H484.739V229.842ZM516.295 353.411L513.799 354.049L514.294 355.987H516.295V353.411ZM516.885 353.411V355.987H519.46V353.411H516.885ZM516.885 229.842V227.266H514.309V229.842H516.885ZM545.786 229.842H548.362V227.266H545.786V229.842ZM545.786 436.282V438.858H548.362V436.282H545.786ZM512.461 436.282L509.967 436.927L510.466 438.858H512.461V436.282ZM473.532 285.581L476.026 284.937L475.527 283.005H473.532V285.581ZM472.942 285.581V283.005H470.367V285.581H472.942ZM472.942 436.282V438.858H475.518V436.282H472.942ZM444.041 436.282H441.465V438.858H444.041V436.282ZM444.041 232.418H484.739V227.266H444.041V232.418ZM482.243 230.479L513.799 354.049L518.79 352.774L487.235 229.205L482.243 230.479ZM516.295 355.987H516.885V350.836H516.295V355.987ZM519.46 353.411V229.842H514.309V353.411H519.46ZM516.885 232.418H545.786V227.266H516.885V232.418ZM543.211 229.842V436.282H548.362V229.842H543.211ZM545.786 433.707H512.461V438.858H545.786V433.707ZM514.955 435.638L476.026 284.937L471.038 286.225L509.967 436.927L514.955 435.638ZM473.532 283.005H472.942V288.157H473.532V283.005ZM470.367 285.581V436.282H475.518V285.581H470.367ZM472.942 433.707H444.041V438.858H472.942V433.707ZM446.616 436.282V229.842H441.465V436.282H446.616ZM569.898 229.842V227.266H567.322V229.842H569.898ZM658.372 229.842H660.948V227.266H658.372V229.842ZM658.372 259.334V261.909H660.948V259.334H658.372ZM602.339 259.334V256.758H599.763V259.334H602.339ZM602.339 313.893H599.763V316.468H602.339V313.893ZM646.871 313.893H649.446V311.317H646.871V313.893ZM646.871 343.384V345.96H649.446V343.384H646.871ZM602.339 343.384V340.809H599.763V343.384H602.339ZM602.339 406.791H599.763V409.367H602.339V406.791ZM658.372 406.791H660.948V404.215H658.372V406.791ZM658.372 436.282V438.858H660.948V436.282H658.372ZM569.898 436.282H567.322V438.858H569.898V436.282ZM569.898 232.418H658.372V227.266H569.898V232.418ZM655.797 229.842V259.334H660.948V229.842H655.797ZM658.372 256.758H602.339V261.909H658.372V256.758ZM599.763 259.334V313.893H604.914V259.334H599.763ZM602.339 316.468H646.871V311.317H602.339V316.468ZM644.295 313.893V343.384H649.446V313.893H644.295ZM646.871 340.809H602.339V345.96H646.871V340.809ZM599.763 343.384V406.791H604.914V343.384H599.763ZM602.339 409.367H658.372V404.215H602.339V409.367ZM655.797 406.791V436.282H660.948V406.791H655.797ZM658.372 433.707H569.898V438.858H658.372V433.707ZM572.474 436.282V229.842H567.322V436.282H572.474ZM669.367 229.842V227.266H666.517L666.805 230.102L669.367 229.842ZM700.628 229.842L703.193 229.608L702.98 227.266H700.628V229.842ZM715.079 388.506L712.514 388.74L712.727 391.082H715.079V388.506ZM715.669 388.506V391.082H718.008L718.233 388.754L715.669 388.506ZM731.004 229.842V227.266H728.666L728.441 229.594L731.004 229.842ZM766.394 229.842L768.958 229.594L768.733 227.266H766.394V229.842ZM781.73 388.506L779.166 388.754L779.391 391.082H781.73V388.506ZM782.32 388.506V391.082H784.671L784.885 388.74L782.32 388.506ZM796.77 229.842V227.266H794.419L794.205 229.608L796.77 229.842ZM824.787 229.842L827.35 230.102L827.637 227.266H824.787V229.842ZM803.848 436.282V438.858H806.176L806.411 436.542L803.848 436.282ZM763.445 436.282L760.884 436.554L761.128 438.858H763.445V436.282ZM748.699 297.083L751.261 296.811L751.016 294.507H748.699V297.083ZM748.109 297.083V294.507H745.792L745.548 296.811L748.109 297.083ZM733.364 436.282V438.858H735.681L735.925 436.554L733.364 436.282ZM690.306 436.282L687.744 436.542L687.978 438.858H690.306V436.282ZM669.367 232.418H700.628V227.266H669.367V232.418ZM698.063 230.076L712.514 388.74L717.644 388.273L703.193 229.608L698.063 230.076ZM715.079 391.082H715.669V385.931H715.079V391.082ZM718.233 388.754L733.568 230.09L728.441 229.594L713.105 388.258L718.233 388.754ZM731.004 232.418H766.394V227.266H731.004V232.418ZM763.83 230.09L779.166 388.754L784.293 388.258L768.958 229.594L763.83 230.09ZM781.73 391.082H782.32V385.931H781.73V391.082ZM784.885 388.74L799.335 230.076L794.205 229.608L779.754 388.273L784.885 388.74ZM796.77 232.418H824.787V227.266H796.77V232.418ZM822.225 229.582L801.286 436.023L806.411 436.542L827.35 230.102L822.225 229.582ZM803.848 433.707H763.445V438.858H803.848V433.707ZM766.006 436.011L751.261 296.811L746.138 297.354L760.884 436.554L766.006 436.011ZM748.699 294.507H748.109V299.658H748.699V294.507ZM745.548 296.811L730.802 436.011L735.925 436.554L750.671 297.354L745.548 296.811ZM733.364 433.707H690.306V438.858H733.364V433.707ZM692.869 436.023L671.93 229.582L666.805 230.102L687.744 436.542L692.869 436.023ZM847.685 425.96L845.762 427.674L845.771 427.685L845.781 427.695L847.685 425.96ZM835.593 375.53V372.954H833.017V375.53H835.593ZM866.264 375.53H868.84V372.954H866.264V375.53ZM895.461 405.021L893.53 403.317L893.523 403.325L895.461 405.021ZM893.986 366.388L891.766 367.694L891.775 367.708L891.784 367.723L893.986 366.388ZM872.163 342.5L870.458 344.431L870.465 344.437L870.472 344.442L872.163 342.5ZM844.146 310.649L841.89 311.892L841.895 311.902L841.901 311.911L844.146 310.649ZM848.569 240.459L850.452 242.216L850.462 242.206L850.472 242.196L848.569 240.459ZM919.644 240.459L917.7 242.149L917.72 242.172L917.74 242.194L919.644 240.459ZM931.735 287.35V289.926H934.311V287.35H931.735ZM901.064 287.35H898.489V289.926H901.064V287.35ZM896.935 261.398L894.947 263.035L894.972 263.065L894.997 263.094L896.935 261.398ZM874.522 297.083L872.319 298.418L872.334 298.442L872.349 298.465L874.522 297.083ZM896.641 320.676L894.95 322.619L894.95 322.619L896.641 320.676ZM924.657 352.822L922.382 354.029L924.657 352.822ZM919.644 425.666L917.762 423.907L917.752 423.918L917.742 423.929L919.644 425.666ZM883.369 436.656C868.125 436.656 857.02 432.383 849.589 424.226L845.781 427.695C854.471 437.233 867.156 441.807 883.369 441.807V436.656ZM849.607 424.247C842.103 415.828 838.169 403.647 838.169 387.327H833.017C833.017 404.43 837.144 418.005 845.762 427.674L849.607 424.247ZM838.169 387.327V375.53H833.017V387.327H838.169ZM835.593 378.106H866.264V372.954H835.593V378.106ZM863.689 375.53V389.686H868.84V375.53H863.689ZM863.689 389.686C863.689 396.668 865.142 402.384 868.493 406.381C871.917 410.466 876.943 412.316 883.074 412.316V407.164C877.999 407.164 874.621 405.672 872.441 403.072C870.188 400.385 868.84 396.074 868.84 389.686H863.689ZM883.074 412.316C889.073 412.316 894.014 410.586 897.399 406.718L893.523 403.325C891.402 405.748 888.086 407.164 883.074 407.164V412.316ZM897.392 406.726C900.95 402.694 902.46 396.626 902.46 389.096H897.309C897.309 396.115 895.87 400.665 893.53 403.317L897.392 406.726ZM902.46 389.096C902.46 380.042 900.398 371.997 896.189 365.053L891.784 367.723C895.439 373.754 897.309 380.849 897.309 389.096H902.46ZM896.206 365.082C892.062 358.037 884.539 349.857 873.854 340.557L870.472 344.442C881.021 353.624 888.046 361.369 891.766 367.694L896.206 365.082ZM873.867 340.568C860.593 328.856 851.496 318.462 846.391 309.386L841.901 311.911C847.413 321.71 856.994 332.55 870.458 344.431L873.867 340.568ZM846.402 309.406C841.322 300.186 838.759 289.807 838.759 278.208H833.607C833.607 290.596 836.353 301.843 841.89 311.892L846.402 309.406ZM838.759 278.208C838.759 262.31 842.776 250.441 850.452 242.216L846.686 238.702C837.848 248.172 833.607 261.469 833.607 278.208H838.759ZM850.472 242.196C858.111 233.829 869.325 229.469 884.549 229.469V224.317C868.315 224.317 855.543 229.001 846.667 238.722L850.472 242.196ZM884.549 229.469C899.571 229.469 910.461 233.824 917.7 242.149L921.588 238.769C913.098 229.006 900.591 224.317 884.549 224.317V229.469ZM917.74 242.194C925.223 250.407 929.16 262.473 929.16 278.798H934.311C934.311 261.699 930.186 248.206 921.548 238.724L917.74 242.194ZM929.16 278.798V287.35H934.311V278.798H929.16ZM931.735 284.775H901.064V289.926H931.735V284.775ZM903.64 287.35V276.734H898.489V287.35H903.64ZM903.64 276.734C903.64 269.43 902.24 263.549 898.874 259.702L894.997 263.094C897.136 265.539 898.489 269.881 898.489 276.734H903.64ZM898.924 259.761C895.572 255.691 890.731 253.809 884.844 253.809V258.96C889.574 258.96 892.794 260.42 894.947 263.035L898.924 259.761ZM884.844 253.809C878.891 253.809 874.007 255.646 870.688 259.69C867.448 263.636 866.048 269.27 866.048 276.144H871.199C871.199 269.844 872.502 265.598 874.67 262.958C876.757 260.416 879.983 258.96 884.844 258.96V253.809ZM866.048 276.144C866.048 284.093 868.147 291.534 872.319 298.418L876.725 295.748C873.032 289.656 871.199 283.137 871.199 276.144H866.048ZM872.349 298.465C876.678 305.269 884.273 313.326 894.95 322.619L898.332 318.733C887.774 309.544 880.623 301.873 876.695 295.7L872.349 298.465ZM894.95 322.619C908.412 334.325 917.484 344.797 922.382 354.029L926.933 351.614C921.607 341.578 912.001 330.619 898.331 318.732L894.95 322.619ZM922.382 354.029C927.263 363.226 929.75 374.102 929.75 386.737H934.901C934.901 373.419 932.276 361.685 926.933 351.614L922.382 354.029ZM929.75 386.737C929.75 403.234 925.629 415.491 917.762 423.907L921.526 427.424C930.567 417.752 934.901 404.056 934.901 386.737H929.75ZM917.742 423.929C910.108 432.289 898.801 436.656 883.369 436.656V441.807C899.789 441.807 912.664 437.13 921.546 427.402L917.742 423.929Z" fill="#331E36" mask="url(#path-1-outside-1_20_1314)"/>
<path d="M12.0915 -2.44043H61.0474C77.7592 -2.44043 89.949 1.49177 97.6168 9.35617C105.285 17.0239 109.119 28.9188 109.119 45.0409V53.2985C109.119 63.9154 107.349 72.5663 103.81 79.251C100.468 85.9357 95.2575 90.7527 88.1796 93.7018V94.2917C104.302 99.7967 112.363 114.149 112.363 137.349V155.044C112.363 170.97 108.135 183.159 99.6812 191.614C91.4236 199.871 79.2338 204 63.1118 204H12.0915V-2.44043ZM57.2135 81.6103C63.7016 81.6103 68.5186 79.9391 71.6643 76.5968C75.0067 73.2544 76.6779 67.651 76.6779 59.7866V48.2849C76.6779 40.8138 75.3016 35.407 72.5491 32.0646C69.9931 28.7222 65.8643 27.0511 60.1626 27.0511H44.5322V81.6103H57.2135ZM63.1118 174.509C68.8135 174.509 73.0406 173.034 75.7931 170.085C78.5457 166.939 79.9219 161.631 79.9219 154.159V136.17C79.9219 126.732 78.2508 120.244 74.9084 116.705C71.7626 112.97 66.4542 111.102 58.983 111.102H44.5322V174.509H63.1118ZM131.325 -2.44043H179.396C196.108 -2.44043 208.297 1.49177 215.965 9.35617C223.633 17.0239 227.467 28.9188 227.467 45.0409V57.7222C227.467 79.1527 220.389 92.7188 206.233 98.4205V99.0103C214.097 101.37 219.603 106.187 222.748 113.461C226.091 120.736 227.762 130.468 227.762 142.658V178.932C227.762 184.831 227.958 189.647 228.352 193.383C228.745 196.922 229.728 200.461 231.301 204H198.27C197.091 200.658 196.304 197.512 195.911 194.563C195.518 191.614 195.321 186.305 195.321 178.637V140.888C195.321 131.451 193.748 124.864 190.603 121.129C187.653 117.393 182.443 115.526 174.972 115.526H163.765V204H131.325V-2.44043ZM175.562 86.034C182.05 86.034 186.867 84.3629 190.013 81.0205C193.355 77.6781 195.026 72.0747 195.026 64.2103V48.2849C195.026 40.8138 193.65 35.407 190.897 32.0646C188.342 28.7222 184.213 27.0511 178.511 27.0511H163.765V86.034H175.562ZM275.338 -2.44043H319.28L352.9 204H320.46L314.561 163.007V163.597H277.697L271.799 204H241.717L275.338 -2.44043ZM310.727 135.58L296.277 33.5392H295.687L281.531 135.58H310.727ZM363.303 175.098L423.466 27.0511H366.252V-2.44043H458.266V26.4612L398.103 174.509H458.266V204H363.303V175.098ZM476.64 -2.44043H509.081V204H476.64V-2.44043ZM533.377 -2.44043H565.817V174.509H619.197V204H533.377V-2.44043ZM634.754 -2.44043H667.194V204H634.754V-2.44043ZM716.558 -2.44043H760.5L794.121 204H761.68L755.782 163.007V163.597H718.917L713.019 204H682.938L716.558 -2.44043ZM751.948 135.58L737.497 33.5392H736.907L722.751 135.58H751.948ZM809.859 -2.44043H850.558L882.113 121.129H882.703V-2.44043H911.605V204H878.28L839.351 53.2985H838.761V204H809.859V-2.44043ZM12.0915 229.56H52.7898L84.3457 353.129H84.9355V229.56H113.837V436H80.5118L41.583 285.298H40.9932V436H12.0915V229.56ZM185.135 438.949C169.406 438.949 157.413 434.525 149.156 425.678C140.898 416.634 136.769 403.756 136.769 387.044V229.56H169.21V389.403C169.21 396.481 170.586 401.593 173.339 404.739C176.288 407.885 180.416 409.458 185.725 409.458C191.033 409.458 195.064 407.885 197.816 404.739C200.766 401.593 202.24 396.481 202.24 389.403V229.56H233.501V387.044C233.501 403.756 229.372 416.634 221.115 425.678C212.857 434.525 200.864 438.949 185.135 438.949ZM281.969 259.051H248.053V229.56H348.324V259.051H314.409V436H281.969V259.051Z" fill="#331E36"/>
<rect width="614.299" height="36.0595" transform="translate(338.701 353.672)" fill="#ECECEC"/>
<path d="M349.052 363.976H352.533L356.799 374.127L357.785 376.582L358.56 374.127L360.129 370.425L357.302 363.976H360.582L361.739 367.044L362.816 363.976H366.096L363.268 370.425L364.868 374.208L365.834 376.582L366.578 374.168L370.865 363.976H374.346L367.404 379.701H364.244L362.846 376.582L361.709 373.554L360.572 376.582L359.153 379.701H355.994L349.052 363.976ZM376.771 363.976H379.96V368.081H389.739V363.976H392.939V379.701H389.739V370.807H379.96V379.701H376.771V363.976ZM397.406 363.976H410.798V366.773H400.596V369.912H409.63V372.538H400.596V376.914H411.009V379.701H397.406V363.976ZM414.55 363.976H422.549C423.756 363.976 424.803 364.103 425.688 364.358C426.574 364.606 427.308 364.968 427.892 365.445C428.475 365.921 428.908 366.501 429.19 367.185C429.478 367.869 429.622 368.644 429.622 369.509C429.622 370.093 429.552 370.65 429.411 371.179C429.27 371.703 429.052 372.186 428.757 372.628C428.468 373.071 428.103 373.467 427.66 373.816C427.218 374.158 426.698 374.443 426.101 374.671L429.522 379.701H425.618L422.66 375.234H422.569L417.74 375.224V379.701H414.55V363.976ZM422.63 372.467C423.233 372.467 423.76 372.397 424.209 372.256C424.665 372.115 425.044 371.917 425.346 371.662C425.655 371.408 425.883 371.099 426.03 370.737C426.185 370.368 426.262 369.959 426.262 369.509C426.262 368.631 425.96 367.953 425.356 367.477C424.753 366.994 423.844 366.753 422.63 366.753H417.74V372.467H422.63ZM433.405 363.976H446.797V366.773H436.595V369.912H445.63V372.538H436.595V376.914H447.008V379.701H433.405V363.976ZM462.13 366.773H456.325V363.976H471.125V366.773H465.319V379.701H462.13V366.773ZM474.525 363.976H477.715V368.081H487.494V363.976H490.694V379.701H487.494V370.807H477.715V379.701H474.525V363.976ZM495.161 363.976H508.553V366.773H498.35V369.912H507.385V372.538H498.35V376.914H508.764V379.701H495.161V363.976ZM519.147 363.976H527.548C528.574 363.976 529.467 364.086 530.224 364.308C530.989 364.522 531.623 364.821 532.126 365.203C532.629 365.585 533.001 366.042 533.243 366.571C533.491 367.095 533.615 367.661 533.615 368.272C533.615 369.271 533.3 370.147 532.669 370.898C533.394 371.327 533.934 371.884 534.289 372.568C534.645 373.252 534.822 374.03 534.822 374.902C534.822 375.633 534.698 376.294 534.45 376.884C534.209 377.474 533.836 377.981 533.333 378.403C532.837 378.819 532.207 379.141 531.442 379.369C530.684 379.591 529.788 379.701 528.756 379.701H519.147V363.976ZM528.776 370.012C529.051 370.012 529.319 370.022 529.581 370.043C530.03 369.613 530.255 369.124 530.255 368.574C530.255 368.004 530.03 367.564 529.581 367.256C529.138 366.94 528.487 366.783 527.629 366.783H522.336V370.012H528.776ZM528.836 376.924C529.695 376.924 530.345 376.74 530.788 376.371C531.237 376.002 531.462 375.482 531.462 374.812C531.462 374.141 531.237 373.618 530.788 373.242C530.345 372.866 529.695 372.679 528.836 372.679H522.336V376.924H528.836ZM538.062 363.976H551.454V366.773H541.252V369.912H550.287V372.538H541.252V376.914H551.665V379.701H538.062V363.976ZM555.941 375.023C556.511 375.345 557.088 375.637 557.671 375.898C558.262 376.153 558.872 376.371 559.503 376.552C560.133 376.727 560.794 376.861 561.485 376.955C562.182 377.049 562.923 377.096 563.708 377.096C564.654 377.096 565.459 377.035 566.123 376.914C566.787 376.787 567.327 376.616 567.743 376.401C568.165 376.18 568.471 375.918 568.658 375.617C568.853 375.315 568.95 374.986 568.95 374.631C568.95 374.06 568.712 373.611 568.236 373.282C567.76 372.947 567.025 372.779 566.032 372.779C565.596 372.779 565.137 372.809 564.654 372.87C564.171 372.923 563.681 372.984 563.185 373.051C562.695 373.118 562.209 373.182 561.726 373.242C561.25 373.296 560.801 373.323 560.378 373.323C559.674 373.323 558.996 373.232 558.346 373.051C557.702 372.87 557.128 372.598 556.625 372.236C556.129 371.874 555.733 371.421 555.438 370.878C555.143 370.334 554.995 369.7 554.995 368.976C554.995 368.547 555.052 368.121 555.166 367.698C555.287 367.276 555.475 366.873 555.73 366.491C555.991 366.102 556.327 365.743 556.736 365.414C557.145 365.079 557.638 364.791 558.215 364.549C558.798 364.308 559.469 364.12 560.227 363.986C560.992 363.845 561.86 363.774 562.833 363.774C563.537 363.774 564.245 363.815 564.956 363.895C565.667 363.969 566.358 364.076 567.028 364.217C567.706 364.358 568.357 364.529 568.98 364.73C569.604 364.925 570.184 365.143 570.721 365.384L569.322 367.96C568.88 367.765 568.403 367.588 567.894 367.427C567.384 367.259 566.851 367.115 566.294 366.994C565.737 366.873 565.16 366.779 564.563 366.712C563.973 366.639 563.37 366.602 562.752 366.602C561.874 366.602 561.149 366.665 560.579 366.793C560.016 366.92 559.566 367.085 559.231 367.286C558.896 367.48 558.661 367.702 558.527 367.95C558.399 368.191 558.336 368.433 558.336 368.674C558.336 369.144 558.547 369.529 558.969 369.831C559.392 370.126 560.036 370.274 560.901 370.274C561.25 370.274 561.649 370.251 562.098 370.204C562.555 370.15 563.031 370.093 563.527 370.033C564.03 369.972 564.54 369.918 565.056 369.872C565.58 369.818 566.086 369.791 566.576 369.791C567.501 369.791 568.32 369.895 569.031 370.103C569.748 370.311 570.349 370.609 570.832 370.998C571.315 371.381 571.68 371.847 571.928 372.397C572.176 372.94 572.301 373.551 572.301 374.228C572.301 375.134 572.089 375.942 571.667 376.653C571.251 377.357 570.654 377.954 569.876 378.444C569.104 378.927 568.172 379.296 567.079 379.55C565.985 379.799 564.768 379.923 563.427 379.923C562.541 379.923 561.676 379.866 560.831 379.752C559.986 379.644 559.174 379.49 558.396 379.289C557.625 379.081 556.887 378.836 556.182 378.554C555.485 378.266 554.838 377.951 554.241 377.609L555.941 375.023ZM580.551 366.773H574.745V363.976H589.545V366.773H583.74V379.701H580.551V366.773ZM599.778 363.976H602.967L612.767 369.107V363.976H615.956V379.701H612.767V372.487L602.967 367.386V379.701H599.778V363.976ZM620.403 363.976H633.795V366.773H623.593V369.912H632.628V372.538H623.593V376.914H634.006V379.701H620.403V363.976ZM635.515 363.976H638.996L643.262 374.127L644.248 376.582L645.023 374.127L646.593 370.425L643.765 363.976H647.045L648.202 367.044L649.279 363.976H652.559L649.732 370.425L651.332 374.208L652.297 376.582L653.042 374.168L657.328 363.976H660.809L653.867 379.701H650.708L649.309 376.582L648.172 373.554L647.035 376.582L645.617 379.701H642.458L635.515 363.976ZM663.978 375.023C664.549 375.345 665.125 375.637 665.709 375.898C666.299 376.153 666.91 376.371 667.54 376.552C668.171 376.727 668.831 376.861 669.522 376.955C670.22 377.049 670.961 377.096 671.746 377.096C672.691 377.096 673.496 377.035 674.16 376.914C674.824 376.787 675.364 376.616 675.78 376.401C676.203 376.18 676.508 375.918 676.696 375.617C676.89 375.315 676.988 374.986 676.988 374.631C676.988 374.06 676.75 373.611 676.273 373.282C675.797 372.947 675.063 372.779 674.07 372.779C673.634 372.779 673.174 372.809 672.691 372.87C672.209 372.923 671.719 372.984 671.223 373.051C670.733 373.118 670.247 373.182 669.764 373.242C669.287 373.296 668.838 373.323 668.415 373.323C667.711 373.323 667.034 373.232 666.383 373.051C665.739 372.87 665.166 372.598 664.663 372.236C664.166 371.874 663.771 371.421 663.475 370.878C663.18 370.334 663.033 369.7 663.033 368.976C663.033 368.547 663.09 368.121 663.204 367.698C663.324 367.276 663.512 366.873 663.767 366.491C664.029 366.102 664.364 365.743 664.773 365.414C665.182 365.079 665.675 364.791 666.252 364.549C666.836 364.308 667.507 364.12 668.265 363.986C669.029 363.845 669.898 363.774 670.87 363.774C671.575 363.774 672.282 363.815 672.993 363.895C673.704 363.969 674.395 364.076 675.066 364.217C675.743 364.358 676.394 364.529 677.018 364.73C677.642 364.925 678.222 365.143 678.758 365.384L677.36 367.96C676.917 367.765 676.441 367.588 675.931 367.427C675.421 367.259 674.888 367.115 674.331 366.994C673.775 366.873 673.198 366.779 672.601 366.712C672.011 366.639 671.407 366.602 670.79 366.602C669.911 366.602 669.187 366.665 668.617 366.793C668.053 366.92 667.604 367.085 667.268 367.286C666.933 367.48 666.698 367.702 666.564 367.95C666.437 368.191 666.373 368.433 666.373 368.674C666.373 369.144 666.584 369.529 667.007 369.831C667.429 370.126 668.073 370.274 668.939 370.274C669.287 370.274 669.687 370.251 670.136 370.204C670.592 370.15 671.068 370.093 671.565 370.033C672.068 369.972 672.577 369.918 673.094 369.872C673.617 369.818 674.124 369.791 674.613 369.791C675.539 369.791 676.357 369.895 677.068 370.103C677.786 370.311 678.386 370.609 678.869 370.998C679.352 371.381 679.718 371.847 679.966 372.397C680.214 372.94 680.338 373.551 680.338 374.228C680.338 375.134 680.127 375.942 679.704 376.653C679.288 377.357 678.691 377.954 677.913 378.444C677.142 378.927 676.21 379.296 675.116 379.55C674.023 379.799 672.806 379.923 671.464 379.923C670.579 379.923 669.713 379.866 668.868 379.752C668.023 379.644 667.211 379.49 666.433 379.289C665.662 379.081 664.924 378.836 664.22 378.554C663.522 378.266 662.875 377.951 662.278 377.609L663.978 375.023ZM690.691 363.976H698.69C699.897 363.976 700.943 364.103 701.829 364.358C702.714 364.606 703.449 364.968 704.032 365.445C704.616 365.921 705.048 366.501 705.33 367.185C705.619 367.869 705.763 368.644 705.763 369.509C705.763 370.093 705.692 370.65 705.551 371.179C705.411 371.703 705.193 372.186 704.898 372.628C704.609 373.071 704.244 373.467 703.801 373.816C703.358 374.158 702.838 374.443 702.241 374.671L705.662 379.701H701.758L698.8 375.234H698.71L693.88 375.224V379.701H690.691V363.976ZM698.77 372.467C699.374 372.467 699.9 372.397 700.35 372.256C700.806 372.115 701.185 371.917 701.487 371.662C701.795 371.408 702.023 371.099 702.171 370.737C702.325 370.368 702.402 369.959 702.402 369.509C702.402 368.631 702.1 367.953 701.497 367.477C700.893 366.994 699.984 366.753 698.77 366.753H693.88V372.467H698.77ZM709.143 363.976H712.353V379.701H709.143V363.976ZM717.162 375.023C717.732 375.345 718.309 375.637 718.893 375.898C719.483 376.153 720.093 376.371 720.724 376.552C721.354 376.727 722.015 376.861 722.706 376.955C723.403 377.049 724.145 377.096 724.929 377.096C725.875 377.096 726.68 377.035 727.344 376.914C728.008 376.787 728.548 376.616 728.964 376.401C729.387 376.18 729.692 375.918 729.88 375.617C730.074 375.315 730.171 374.986 730.171 374.631C730.171 374.06 729.933 373.611 729.457 373.282C728.981 372.947 728.246 372.779 727.254 372.779C726.818 372.779 726.358 372.809 725.875 372.87C725.392 372.923 724.903 372.984 724.406 373.051C723.917 373.118 723.43 373.182 722.947 373.242C722.471 373.296 722.022 373.323 721.599 373.323C720.895 373.323 720.217 373.232 719.567 373.051C718.923 372.87 718.349 372.598 717.846 372.236C717.35 371.874 716.954 371.421 716.659 370.878C716.364 370.334 716.216 369.7 716.216 368.976C716.216 368.547 716.273 368.121 716.387 367.698C716.508 367.276 716.696 366.873 716.951 366.491C717.212 366.102 717.548 365.743 717.957 365.414C718.366 365.079 718.859 364.791 719.436 364.549C720.02 364.308 720.69 364.12 721.448 363.986C722.213 363.845 723.082 363.774 724.054 363.774C724.758 363.774 725.466 363.815 726.177 363.895C726.888 363.969 727.579 364.076 728.25 364.217C728.927 364.358 729.578 364.529 730.202 364.73C730.825 364.925 731.406 365.143 731.942 365.384L730.544 367.96C730.101 367.765 729.625 367.588 729.115 367.427C728.605 367.259 728.072 367.115 727.515 366.994C726.958 366.873 726.382 366.779 725.785 366.712C725.194 366.639 724.591 366.602 723.974 366.602C723.095 366.602 722.371 366.665 721.8 366.793C721.237 366.92 720.788 367.085 720.452 367.286C720.117 367.48 719.882 367.702 719.748 367.95C719.62 368.191 719.557 368.433 719.557 368.674C719.557 369.144 719.768 369.529 720.191 369.831C720.613 370.126 721.257 370.274 722.122 370.274C722.471 370.274 722.87 370.251 723.32 370.204C723.776 370.15 724.252 370.093 724.748 370.033C725.251 369.972 725.761 369.918 726.278 369.872C726.801 369.818 727.307 369.791 727.797 369.791C728.723 369.791 729.541 369.895 730.252 370.103C730.97 370.311 731.57 370.609 732.053 370.998C732.536 371.381 732.901 371.847 733.149 372.397C733.398 372.94 733.522 373.551 733.522 374.228C733.522 375.134 733.31 375.942 732.888 376.653C732.472 377.357 731.875 377.954 731.097 378.444C730.326 378.927 729.393 379.296 728.3 379.55C727.207 379.799 725.989 379.923 724.648 379.923C723.762 379.923 722.897 379.866 722.052 379.752C721.207 379.644 720.395 379.49 719.617 379.289C718.846 379.081 718.108 378.836 717.404 378.554C716.706 378.266 716.059 377.951 715.462 377.609L717.162 375.023ZM737.033 363.976H750.425V366.773H740.223V369.912H749.257V372.538H740.223V376.914H750.636V379.701H737.033V363.976ZM754.912 375.023C755.482 375.345 756.059 375.637 756.642 375.898C757.233 376.153 757.843 376.371 758.474 376.552C759.104 376.727 759.765 376.861 760.456 376.955C761.153 377.049 761.894 377.096 762.679 377.096C763.625 377.096 764.43 377.035 765.094 376.914C765.758 376.787 766.298 376.616 766.714 376.401C767.136 376.18 767.442 375.918 767.629 375.617C767.824 375.315 767.921 374.986 767.921 374.631C767.921 374.06 767.683 373.611 767.207 373.282C766.731 372.947 765.996 372.779 765.003 372.779C764.567 372.779 764.108 372.809 763.625 372.87C763.142 372.923 762.652 372.984 762.156 373.051C761.666 373.118 761.18 373.182 760.697 373.242C760.221 373.296 759.771 373.323 759.349 373.323C758.645 373.323 757.967 373.232 757.317 373.051C756.673 372.87 756.099 372.598 755.596 372.236C755.1 371.874 754.704 371.421 754.409 370.878C754.114 370.334 753.966 369.7 753.966 368.976C753.966 368.547 754.023 368.121 754.137 367.698C754.258 367.276 754.446 366.873 754.701 366.491C754.962 366.102 755.298 365.743 755.707 365.414C756.116 365.079 756.609 364.791 757.186 364.549C757.769 364.308 758.44 364.12 759.198 363.986C759.963 363.845 760.831 363.774 761.804 363.774C762.508 363.774 763.216 363.815 763.927 363.895C764.638 363.969 765.329 364.076 765.999 364.217C766.677 364.358 767.327 364.529 767.951 364.73C768.575 364.925 769.155 365.143 769.692 365.384L768.293 367.96C767.851 367.765 767.374 367.588 766.865 367.427C766.355 367.259 765.822 367.115 765.265 366.994C764.708 366.873 764.131 366.779 763.534 366.712C762.944 366.639 762.34 366.602 761.723 366.602C760.845 366.602 760.12 366.665 759.55 366.793C758.987 366.92 758.537 367.085 758.202 367.286C757.867 367.48 757.632 367.702 757.498 367.95C757.37 368.191 757.306 368.433 757.306 368.674C757.306 369.144 757.518 369.529 757.94 369.831C758.363 370.126 759.007 370.274 759.872 370.274C760.221 370.274 760.62 370.251 761.069 370.204C761.525 370.15 762.002 370.093 762.498 370.033C763.001 369.972 763.511 369.918 764.027 369.872C764.551 369.818 765.057 369.791 765.547 369.791C766.472 369.791 767.291 369.895 768.002 370.103C768.719 370.311 769.32 370.609 769.803 370.998C770.285 371.381 770.651 371.847 770.899 372.397C771.147 372.94 771.271 373.551 771.271 374.228C771.271 375.134 771.06 375.942 770.638 376.653C770.222 377.357 769.625 377.954 768.847 378.444C768.075 378.927 767.143 379.296 766.05 379.55C764.956 379.799 763.739 379.923 762.397 379.923C761.512 379.923 760.647 379.866 759.802 379.752C758.957 379.644 758.145 379.49 757.367 379.289C756.595 379.081 755.858 378.836 755.153 378.554C754.456 378.266 753.809 377.951 753.212 377.609L754.912 375.023ZM786.363 366.773H780.558V363.976H795.358V366.773H789.553V379.701H786.363V366.773ZM797.843 371.793C797.843 370.606 798.061 369.519 798.497 368.533C798.933 367.547 799.544 366.702 800.328 365.998C801.12 365.287 802.066 364.737 803.166 364.348C804.272 363.959 805.496 363.764 806.838 363.764C808.173 363.764 809.393 363.959 810.5 364.348C811.607 364.737 812.553 365.287 813.337 365.998C814.129 366.702 814.743 367.547 815.179 368.533C815.615 369.519 815.833 370.606 815.833 371.793C815.833 372.987 815.615 374.084 815.179 375.083C814.743 376.076 814.129 376.931 813.337 377.649C812.553 378.367 811.607 378.927 810.5 379.329C809.393 379.725 808.173 379.923 806.838 379.923C805.496 379.923 804.272 379.725 803.166 379.329C802.066 378.927 801.12 378.367 800.328 377.649C799.544 376.931 798.933 376.076 798.497 375.083C798.061 374.084 797.843 372.987 797.843 371.793ZM801.033 371.793C801.033 372.605 801.177 373.336 801.465 373.987C801.76 374.637 802.166 375.194 802.683 375.657C803.206 376.113 803.82 376.465 804.524 376.713C805.235 376.961 806.006 377.085 806.838 377.085C807.67 377.085 808.438 376.961 809.142 376.713C809.853 376.465 810.467 376.113 810.983 375.657C811.5 375.194 811.905 374.637 812.201 373.987C812.496 373.336 812.643 372.605 812.643 371.793C812.643 370.982 812.496 370.254 812.201 369.61C811.905 368.966 811.5 368.423 810.983 367.98C810.467 367.531 809.853 367.189 809.142 366.954C808.438 366.719 807.67 366.602 806.838 366.602C806.006 366.602 805.235 366.719 804.524 366.954C803.82 367.189 803.206 367.531 802.683 367.98C802.166 368.423 801.76 368.966 801.465 369.61C801.177 370.254 801.033 370.982 801.033 371.793ZM830.955 366.773H825.149V363.976H839.949V366.773H834.144V379.701H830.955V366.773ZM843.35 363.976H846.54V368.081H856.319V363.976H859.519V379.701H856.319V370.807H846.54V379.701H843.35V363.976ZM863.986 363.976H877.377V366.773H867.175V369.912H876.21V372.538H867.175V376.914H877.589V379.701H863.986V363.976ZM892.711 366.773H886.905V363.976H901.705V366.773H895.9V379.701H892.711V366.773ZM904.19 371.793C904.19 370.606 904.408 369.519 904.844 368.533C905.28 367.547 905.891 366.702 906.676 365.998C907.467 365.287 908.413 364.737 909.513 364.348C910.62 363.959 911.844 363.764 913.185 363.764C914.52 363.764 915.741 363.959 916.847 364.348C917.954 364.737 918.9 365.287 919.685 365.998C920.476 366.702 921.09 367.547 921.526 368.533C921.962 369.519 922.18 370.606 922.18 371.793C922.18 372.987 921.962 374.084 921.526 375.083C921.09 376.076 920.476 376.931 919.685 377.649C918.9 378.367 917.954 378.927 916.847 379.329C915.741 379.725 914.52 379.923 913.185 379.923C911.844 379.923 910.62 379.725 909.513 379.329C908.413 378.927 907.467 378.367 906.676 377.649C905.891 376.931 905.28 376.076 904.844 375.083C904.408 374.084 904.19 372.987 904.19 371.793ZM907.38 371.793C907.38 372.605 907.524 373.336 907.812 373.987C908.108 374.637 908.513 375.194 909.03 375.657C909.553 376.113 910.167 376.465 910.871 376.713C911.582 376.961 912.353 377.085 913.185 377.085C914.017 377.085 914.785 376.961 915.489 376.713C916.2 376.465 916.814 376.113 917.33 375.657C917.847 375.194 918.253 374.637 918.548 373.987C918.843 373.336 918.99 372.605 918.99 371.793C918.99 370.982 918.843 370.254 918.548 369.61C918.253 368.966 917.847 368.423 917.33 367.98C916.814 367.531 916.2 367.189 915.489 366.954C914.785 366.719 914.017 366.602 913.185 366.602C912.353 366.602 911.582 366.719 910.871 366.954C910.167 367.189 909.553 367.531 909.03 367.98C908.513 368.423 908.108 368.966 907.812 369.61C907.524 370.254 907.38 370.982 907.38 371.793ZM925.721 363.976H934.012C935.219 363.976 936.266 364.106 937.151 364.368C938.036 364.63 938.771 365.009 939.354 365.505C939.938 365.995 940.371 366.595 940.652 367.306C940.941 368.017 941.085 368.818 941.085 369.711C941.085 370.549 940.944 371.324 940.662 372.035C940.381 372.746 939.948 373.363 939.364 373.886C938.788 374.402 938.057 374.808 937.171 375.103C936.286 375.392 935.239 375.536 934.032 375.536L928.911 375.526V379.701H925.721V363.976ZM934.092 372.769C934.696 372.769 935.223 372.699 935.672 372.558C936.128 372.41 936.507 372.206 936.809 371.944C937.117 371.676 937.346 371.354 937.493 370.978C937.647 370.596 937.724 370.173 937.724 369.711C937.724 368.778 937.419 368.054 936.809 367.537C936.205 367.014 935.3 366.753 934.092 366.753H928.911V372.769H934.092Z" fill="#331E36"/>
</g>
<defs>
<clipPath id="clip0_20_1314">
<rect width="943" height="446" fill="white"/>
</clipPath>
</defs>
</svg>
