<svg width="288" height="64" viewBox="0 0 288 64" fill="none" xmlns="http://www.w3.org/2000/svg">
<g clip-path="url(#clip0_169_361)">
<path d="M41.641 3.25096C41.0434 2.25917 40.1997 1.43868 39.1915 0.869115C38.1834 0.299549 37.0451 0.000244141 35.8872 0.000244141C34.7293 0.000244141 33.5911 0.299549 32.5829 0.869115C31.5748 1.43868 30.731 2.25917 30.1334 3.25096L20.6673 19.4621C27.8983 23.0723 34.0592 28.5112 38.5383 35.2386C43.0173 41.9661 45.6587 49.7482 46.2002 57.8121H39.5547C39.0142 50.8998 36.6781 44.2484 32.7776 38.5162C28.8771 32.7839 23.5473 28.1696 17.3158 25.1297L8.55636 40.2769C12.0596 41.8481 15.1115 44.2748 17.4316 47.3339C19.7516 50.393 21.2653 53.9864 21.8335 57.7835H6.57055C6.38952 57.7707 6.21452 57.713 6.06135 57.6157C5.90819 57.5183 5.78167 57.3843 5.69321 57.2259C5.60475 57.0674 5.55713 56.8894 5.55466 56.7079C5.55219 56.5265 5.59493 56.3472 5.67904 56.1864L9.90851 48.9943C8.47566 47.7989 6.8381 46.8729 5.07515 46.2613L0.888941 53.4535C0.453102 54.201 0.170155 55.0276 0.0565407 55.8854C-0.0570738 56.7432 0.000909675 57.615 0.227122 58.4502C0.453334 59.2853 0.843265 60.0672 1.37426 60.7504C1.90525 61.4336 2.56672 62.0044 3.32022 62.4298C4.31292 62.989 5.43176 63.286 6.57111 63.2926H27.4718C27.86 58.5027 27.0046 53.6936 24.9886 49.3312C22.9725 44.9689 19.864 41.2011 15.9642 38.3928L19.287 32.6381C24.2087 36.0184 28.1639 40.6237 30.7622 45.9994C33.3605 51.3751 34.5121 57.3354 34.1034 63.2921H51.8111C52.2235 54.2685 50.2605 45.2947 46.1183 37.2674C41.976 29.2401 35.7995 22.4406 28.2061 17.5482L34.9235 6.04065C35.0733 5.79002 35.3159 5.60864 35.5987 5.53595C35.8815 5.46326 36.1815 5.50514 36.4335 5.65247C37.1958 6.06986 65.6202 55.6679 66.1527 56.2437C66.2464 56.4119 66.2941 56.6018 66.2909 56.7943C66.2877 56.9867 66.2337 57.175 66.1344 57.3399C66.0351 57.5048 65.894 57.6406 65.7254 57.7335C65.5567 57.8263 65.3666 57.8731 65.1741 57.8689H58.3274C58.4134 59.7002 58.4134 61.5276 58.3274 63.3499H65.2034C66.0764 63.3555 66.942 63.1879 67.7498 62.8568C68.5577 62.5257 69.2919 62.0376 69.9099 61.4209C70.528 60.8042 71.0176 60.071 71.3504 59.2638C71.6832 58.4567 71.8527 57.5915 71.8489 56.7184C71.8497 55.565 71.5417 54.4324 70.9569 53.4383L41.641 3.25096ZM178.756 40.6797L157.524 13.2632H152.231V50.0161H157.596V21.8502L179.432 50.0155H184.122V13.2626H178.756V40.6797ZM125.288 33.8616H144.319V29.0856H125.274V18.024H146.75V13.248H119.808V50.0155H147.023V45.24H125.274L125.288 33.8616ZM102.906 29.2008C95.4972 27.4172 93.426 26.0072 93.426 22.5838C93.426 19.5054 96.1449 17.4196 100.201 17.4196C103.895 17.5277 107.459 18.8129 110.371 21.0879L113.248 17.0168C109.56 14.1263 104.986 12.6015 100.302 12.7014C93.0232 12.7014 87.9455 17.0168 87.9455 23.1591C87.9455 29.7766 92.2609 32.0629 100.115 33.9768C107.106 35.5874 109.249 37.0833 109.249 40.4353C109.249 43.7868 106.372 45.8585 101.927 45.8585C97.502 45.8381 93.2441 44.1657 89.9881 41.169L86.7512 45.0384C90.9219 48.6221 96.2417 50.5877 101.741 50.5767C109.623 50.5767 114.687 46.3332 114.687 39.7736C114.644 34.2212 111.363 31.2427 102.906 29.2008ZM281.434 13.2632L270.373 30.5248L259.382 13.2632H252.967L267.481 35.4862V50.0301H273.004V35.3143L287.62 13.2626L281.434 13.2632ZM188.466 18.2403H200.506V50.0301H206.03V18.2403H218.07V13.2632H188.48L188.466 18.2403ZM243.617 35.6744C249.169 34.1352 252.248 30.2512 252.248 24.6988C252.248 17.6359 247.083 13.1912 238.755 13.1912H222.414V50.0015H227.88V36.7957H237.158L246.479 50.0301H252.867L242.797 35.9042L243.617 35.6744ZM227.865 32.0781V18.1246H238.179C243.559 18.1246 246.638 20.6705 246.638 25.087C246.638 29.5024 243.344 32.0775 238.237 32.0775L227.865 32.0781Z" fill="#DABEDE"/>
</g>
<defs>
<clipPath id="clip0_169_361">
<rect width="287.619" height="63.4785" fill="white"/>
</clipPath>
</defs>
</svg>
