<svg width="283" height="78" viewBox="0 0 283 78" fill="none" xmlns="http://www.w3.org/2000/svg">
<path fill-rule="evenodd" clip-rule="evenodd" d="M38.5555 4.9873L67.6266 21.7714V55.3397L38.5555 72.1238L9.48438 55.3397V21.7714L38.5555 4.9873ZM12.7462 23.6545V48.3118L34.1 11.3259L12.7462 23.6545ZM38.5555 10.1322L13.9399 52.7673H63.1711L38.5555 10.1322ZM59.9093 56.0291H17.2017L38.5555 68.3577L59.9093 56.0291ZM64.3648 48.3118L43.011 11.3259L64.3648 23.6545V48.3118Z" fill="#E10098"/>
<path d="M11.1119 29.5802C14.9064 29.5802 17.9825 26.5041 17.9825 22.7095C17.9825 18.915 14.9064 15.8389 11.1119 15.8389C7.31731 15.8389 4.24121 18.915 4.24121 22.7095C4.24121 26.5041 7.31731 29.5802 11.1119 29.5802Z" fill="#E10098"/>
<path d="M11.1119 61.2687C14.9064 61.2687 17.9825 58.1926 17.9825 54.398C17.9825 50.6034 14.9064 47.5273 11.1119 47.5273C7.31731 47.5273 4.24121 50.6034 4.24121 54.398C4.24121 58.1926 7.31731 61.2687 11.1119 61.2687Z" fill="#E10098"/>
<path d="M38.5562 77.1114C42.3508 77.1114 45.4269 74.0353 45.4269 70.2408C45.4269 66.4462 42.3508 63.3701 38.5562 63.3701C34.7616 63.3701 31.6855 66.4462 31.6855 70.2408C31.6855 74.0353 34.7616 77.1114 38.5562 77.1114Z" fill="#E10098"/>
<path d="M65.9957 61.2687C69.7902 61.2687 72.8663 58.1926 72.8663 54.398C72.8663 50.6034 69.7902 47.5273 65.9957 47.5273C62.2011 47.5273 59.125 50.6034 59.125 54.398C59.125 58.1926 62.2011 61.2687 65.9957 61.2687Z" fill="#E10098"/>
<path d="M65.9957 29.5841C69.7902 29.5841 72.8663 26.508 72.8663 22.7134C72.8663 18.9189 69.7902 15.8428 65.9957 15.8428C62.2011 15.8428 59.125 18.9189 59.125 22.7134C59.125 26.508 62.2011 29.5841 65.9957 29.5841Z" fill="#E10098"/>
<path d="M38.5562 13.7413C42.3508 13.7413 45.4269 10.6652 45.4269 6.87065C45.4269 3.0761 42.3508 0 38.5562 0C34.7616 0 31.6855 3.0761 31.6855 6.87065C31.6855 10.6652 34.7616 13.7413 38.5562 13.7413Z" fill="#E10098"/>
<path d="M107.089 55.2315C103.073 55.2315 99.9565 54.0748 97.7393 51.7615C95.522 49.4481 94.3494 46.3477 94.2214 42.4603C94.189 41.4959 94.1729 39.9696 94.1729 37.8814C94.1729 35.7932 94.189 34.2672 94.2214 33.3033C94.35 29.4153 95.5226 26.3146 97.7393 24.0013C99.956 21.6879 103.073 20.5312 107.089 20.5312C109.82 20.5312 112.118 21.0453 113.981 22.0735C115.844 23.1016 117.226 24.3226 118.126 25.7363C119.058 27.1181 119.555 28.3553 119.62 29.4477V29.5433C119.62 29.8008 119.523 30.0098 119.331 30.1702C119.138 30.3311 118.897 30.4116 118.607 30.4116H117.548C117.259 30.4116 117.05 30.3473 116.921 30.2188C116.792 30.0903 116.663 29.8332 116.535 29.4477C115.989 27.7445 114.929 26.3146 113.354 25.158C111.812 24.0013 109.724 23.4229 107.089 23.4229C104.101 23.4229 101.74 24.2424 100.005 25.8813C98.3017 27.5196 97.3858 30.0738 97.2573 33.5439C97.2254 34.5077 97.2095 35.9536 97.2095 37.8814C97.2095 39.8092 97.2254 41.255 97.2573 42.2189C97.3858 45.6889 98.3017 48.2434 100.005 49.8823C101.74 51.5201 104.101 52.3393 107.089 52.3398C110.077 52.3398 112.487 51.4885 114.318 49.7859C116.149 48.0822 117.065 45.5599 117.065 42.2189V39.7614H108.68C108.359 39.7614 108.102 39.6647 107.909 39.4714C107.715 39.2432 107.612 38.9517 107.62 38.6525V37.9778C107.62 37.6565 107.716 37.3994 107.909 37.2067C108.102 36.982 108.359 36.8697 108.68 36.8697H118.993C119.346 36.8697 119.62 36.9658 119.812 37.1581C120.005 37.3514 120.102 37.6246 120.102 37.9778V42.2189C120.102 44.7888 119.588 47.0541 118.559 49.0148C117.531 50.9739 116.037 52.5 114.078 53.5929C112.118 54.6853 109.788 55.2315 107.089 55.2315ZM127.96 54.7496C127.639 54.7496 127.382 54.6532 127.189 54.4604C126.996 54.2676 126.9 54.0106 126.9 53.6893V30.7971C126.9 30.4758 126.996 30.2188 127.189 30.026C127.382 29.8008 127.639 29.6883 127.96 29.6883H128.731C129.053 29.6883 129.31 29.8008 129.502 30.026C129.728 30.2188 129.84 30.4758 129.84 30.7971V33.0133C130.997 30.7966 133.182 29.6883 136.395 29.6883H138.177C138.499 29.6883 138.756 29.7847 138.949 29.9774C139.141 30.1702 139.238 30.4273 139.238 30.7486V31.4233C139.238 31.7446 139.141 32.0016 138.949 32.1944C138.756 32.3872 138.499 32.4836 138.177 32.4836H136.105C134.178 32.4836 132.651 33.046 131.527 34.1708C130.402 35.2951 129.84 36.8211 129.84 38.7489V53.6893C129.84 54.0106 129.728 54.2676 129.502 54.4604C129.31 54.6532 129.053 54.7496 128.731 54.7496H127.96ZM150.026 55.2315C148.484 55.2315 147.054 54.9102 145.737 54.2676C144.419 53.625 143.359 52.7575 142.556 51.6651C141.785 50.5722 141.399 49.3674 141.399 48.0509C141.399 45.9303 142.251 44.1953 143.954 42.8458C145.688 41.4964 148.018 40.6286 150.942 40.2425L158.557 39.183V37.4958C158.557 35.7284 158.01 34.379 156.918 33.4475C155.857 32.4836 154.219 32.0016 152.002 32.0016C150.363 32.0016 149.014 32.3229 147.954 32.9655C146.925 33.6081 146.267 34.3792 145.978 35.2789C145.85 35.6644 145.689 35.9377 145.496 36.0986C145.335 36.2271 145.11 36.2913 144.821 36.2913H144.147C143.857 36.2913 143.6 36.1947 143.376 36.0014C143.188 35.7885 143.085 35.5141 143.086 35.2303C143.086 34.5239 143.408 33.7048 144.05 32.7727C144.693 31.8088 145.689 30.9735 147.038 30.2666C148.388 29.5597 150.042 29.2063 152.002 29.2063C155.44 29.2063 157.882 30.0258 159.328 31.6646C160.774 33.303 161.497 35.2951 161.497 37.6408V53.6893C161.497 54.0106 161.4 54.2676 161.208 54.4604C161.014 54.6532 160.757 54.7496 160.436 54.7496H159.617C159.295 54.7496 159.038 54.6532 158.846 54.4604C158.653 54.2676 158.557 54.0106 158.557 53.6893V51.4245C157.85 52.484 156.806 53.3837 155.424 54.1234C154.074 54.8622 152.275 55.2315 150.026 55.2315ZM150.508 52.4362C152.853 52.4362 154.781 51.6651 156.292 50.1229C157.802 48.5806 158.557 46.3637 158.557 43.472V41.8334L152.34 42.7009C149.705 43.054 147.713 43.6645 146.364 44.5323C145.014 45.4 144.339 46.4925 144.339 47.8095C144.339 49.2875 144.95 50.4282 146.171 51.2317C147.424 52.0347 148.869 52.4362 150.508 52.4362ZM170.226 63.9066C169.905 63.9066 169.648 63.8102 169.455 63.6174C169.262 63.4246 169.166 63.1676 169.166 62.8463V30.7486C169.166 30.4273 169.262 30.1702 169.455 29.9774C169.648 29.7847 169.905 29.6883 170.226 29.6883H171.046C171.367 29.6883 171.624 29.7847 171.817 29.9774C172.009 30.1702 172.106 30.4273 172.106 30.7486V33.0141C173.97 30.4756 176.669 29.2063 180.203 29.2063C183.673 29.2063 186.227 30.3149 187.865 32.5321C189.536 34.717 190.42 37.4159 190.516 40.6289C190.549 40.9497 190.565 41.4797 190.564 42.2189C190.564 42.9577 190.548 43.4879 190.516 43.8097C190.42 47.0227 189.536 49.7376 187.865 51.9543C186.227 54.1391 183.673 55.2315 180.203 55.2315C176.7 55.2315 174.001 53.9625 172.106 51.4245V62.8463C172.106 63.1676 172.009 63.4246 171.817 63.6174C171.624 63.8102 171.367 63.9066 171.046 63.9066H170.226ZM179.913 52.4362C182.516 52.4362 184.411 51.617 185.6 49.9787C186.821 48.3079 187.48 46.1712 187.576 43.5684C187.608 43.2471 187.625 42.7973 187.625 42.2189C187.625 39.2306 187.046 36.7887 185.89 34.8933C184.733 32.9655 182.741 32.0016 179.913 32.0016C177.375 32.0016 175.463 32.8532 174.178 34.5563C172.893 36.2271 172.202 38.2029 172.106 40.4839L172.057 42.3639L172.106 44.2431C172.134 45.6096 172.446 46.9553 173.021 48.1951C173.599 49.416 174.467 50.4282 175.624 51.2317C176.78 52.0347 178.21 52.4362 179.913 52.4362ZM198.23 54.7496C197.908 54.7496 197.651 54.6532 197.459 54.4604C197.266 54.2676 197.169 54.0106 197.169 53.6893V21.5915C197.169 21.2702 197.266 21.0132 197.459 20.8204C197.651 20.6276 197.908 20.5312 198.23 20.5312H199.049C199.371 20.5312 199.628 20.6276 199.821 20.8204C200.013 21.0132 200.11 21.2702 200.11 21.5915V33.0141C201.074 31.7603 202.166 30.8123 203.387 30.1702C204.64 29.5276 206.246 29.2063 208.206 29.2063C211.355 29.2063 213.781 30.2185 215.483 32.243C217.187 34.2345 218.038 36.8208 218.038 40.002V53.6893C218.038 54.0106 217.942 54.2676 217.749 54.4604C217.556 54.6532 217.299 54.7496 216.978 54.7496H216.158C215.837 54.7496 215.58 54.6532 215.387 54.4604C215.194 54.2676 215.098 54.0106 215.098 53.6893V40.2433C215.098 37.6405 214.455 35.6161 213.17 34.17C211.917 32.7244 210.102 32.0016 207.724 32.0016C205.411 32.0016 203.564 32.7406 202.182 34.2186C200.8 35.6647 200.11 37.6729 200.11 40.2433V53.6893C200.11 54.0106 200.013 54.2676 199.821 54.4604C199.628 54.6532 199.371 54.7496 199.049 54.7496H198.23ZM248.055 57.8826C247.572 57.8826 247.058 57.513 246.512 56.7738L244.392 53.8343C242.464 54.7658 240.215 55.2315 237.645 55.2315C229.387 55.2315 225.146 50.7976 224.921 41.9298C224.889 40.9659 224.873 39.6164 224.873 37.8814C224.873 36.1464 224.889 34.7969 224.921 33.833C225.05 29.4634 226.238 26.154 228.488 23.9049C230.737 21.6558 233.789 20.5312 237.645 20.5312C241.5 20.5312 244.553 21.6558 246.802 23.9049C249.051 26.154 250.24 29.4634 250.368 33.833C250.432 35.7608 250.464 37.1103 250.464 37.8814C250.464 38.6525 250.432 40.002 250.368 41.9298C250.208 46.5241 249.035 49.8977 246.85 52.0507L249.935 56.3882C250.031 56.5815 250.079 56.7583 250.079 56.9187C250.079 57.0448 250.054 57.1697 250.004 57.2856C249.954 57.4015 249.881 57.506 249.79 57.5927C249.703 57.6845 249.598 57.7576 249.482 57.8075C249.366 57.8573 249.241 57.8829 249.115 57.8826H248.055ZM237.645 52.3398C240.536 52.3398 242.834 51.4723 244.537 49.7373C246.272 47.9704 247.204 45.2877 247.332 41.6892C247.396 39.7614 247.429 38.4921 247.429 37.8814C247.429 37.2707 247.396 36.0017 247.332 34.0744C247.204 30.4758 246.272 27.8088 244.537 26.0733C242.802 24.3064 240.504 23.4229 237.645 23.4229C234.785 23.4229 232.488 24.3066 230.753 26.074C229.018 27.8091 228.086 30.4756 227.958 34.0736C227.925 35.0375 227.909 36.3068 227.909 37.8814C227.909 39.456 227.925 40.7253 227.958 41.6892C228.086 45.2872 229.002 47.9699 230.705 49.7373C232.44 51.4723 234.753 52.3398 237.645 52.3398ZM259.193 54.7496C258.871 54.7496 258.614 54.6532 258.422 54.4604C258.229 54.2676 258.132 54.0106 258.132 53.6893V22.0735C258.132 21.7522 258.229 21.4951 258.422 21.3024C258.614 21.1096 258.871 21.0132 259.193 21.0132H260.109C260.43 21.0132 260.687 21.1096 260.88 21.3024C261.073 21.4951 261.169 21.7522 261.169 22.0735V51.8579H277.796C278.15 51.8579 278.423 51.9543 278.616 52.1471C278.808 52.3398 278.905 52.6131 278.905 52.9668V53.6893C278.905 54.0106 278.792 54.2676 278.567 54.4604C278.374 54.6532 278.117 54.7496 277.796 54.7496H259.193Z" fill="#E10098"/>
</svg>
