<svg width="225" height="67" viewBox="0 0 225 67" fill="none" xmlns="http://www.w3.org/2000/svg">
<path d="M37.0005 19.2399H30.283L20.5801 44.4233H26.6617L28.2374 40.1386H37.4151L35.7565 35.4391H29.7025L33.6279 24.6027L40.6218 44.4233H46.7035L37.0005 19.2399ZM139.089 44.4233V19.2399H144.48V39.6963H155.122V44.4233H139.089ZM170.188 44.4233V19.2399H175.606V39.6963H186.249V44.4233H170.188ZM109.178 23.7458C113.657 23.7458 117.278 27.3671 117.278 31.8454C117.278 36.3237 113.657 39.9451 109.178 39.9451C104.7 39.9451 101.079 36.3237 101.079 31.8454C101.079 27.3671 104.728 23.7458 109.178 23.7458ZM109.178 18.8252C101.991 18.8252 96.1582 24.658 96.1582 31.8454C96.1582 39.0328 101.991 44.8656 109.178 44.8656C116.366 44.8656 122.199 39.0328 122.199 31.8454C122.199 24.658 116.366 18.8252 109.178 18.8252ZM211.073 23.7458C215.552 23.7458 219.173 27.3671 219.173 31.8454C219.173 36.3237 215.552 39.9451 211.073 39.9451C206.595 39.9451 202.974 36.3237 202.974 31.8454C202.974 27.3671 206.595 23.7458 211.073 23.7458ZM211.073 18.8252C203.886 18.8252 198.053 24.658 198.053 31.8454C198.053 39.0328 203.886 44.8656 211.073 44.8656C218.261 44.8656 224.094 39.0328 224.094 31.8454C224.094 24.658 218.261 18.8252 211.073 18.8252ZM74.1537 19.2399H62.4051V44.4233H67.768V35.7432H74.1537C78.632 35.7432 82.2534 31.956 82.2534 27.4777C82.2534 23.0271 78.632 19.2399 74.1537 19.2399ZM74.1537 30.8226H67.768V24.1604H74.1537C75.8953 24.1604 77.3328 25.7361 77.3328 27.4777C77.3328 29.2193 75.8953 30.8226 74.1537 30.8226Z" fill="#333333"/>
<path d="M57.7889 52.0532C57.319 52.0532 56.9043 52.2743 56.6555 52.6337C56.6555 52.6337 55.4392 54.0159 54.8034 54.6794C52.039 57.4437 48.8323 59.5999 45.2663 61.1204C41.562 62.696 37.6366 63.4701 33.5729 63.4701C29.5093 63.4701 25.5839 62.6684 21.8796 61.1204C18.3136 59.5999 15.0792 57.4437 12.3425 54.6794C9.57813 51.915 7.42192 48.7083 5.90151 45.1422C4.32581 41.438 3.55179 37.5126 3.55179 33.4489C3.55179 29.3853 4.35346 25.4599 5.90151 21.7556C7.39427 18.1896 9.55049 14.9552 12.3149 12.2185C15.0792 9.45411 18.2859 7.2979 21.852 5.77749C25.5562 4.20179 29.4817 3.42777 33.5453 3.42777C37.6089 3.42777 41.5344 4.22944 45.2386 5.77749C47.8371 6.88324 50.2421 8.32072 52.426 10.0899C52.3154 10.4216 52.2325 10.8087 52.2325 11.1957C52.2325 13.0754 53.7529 14.5959 55.6327 14.5959C57.5125 14.5959 59.0329 13.0754 59.0329 11.1957C59.0329 9.31589 57.5125 7.79548 55.6327 7.79548C55.1627 7.79548 54.7204 7.87842 54.3334 8.07192C48.6665 3.42777 41.4514 0.635742 33.5453 0.635742C15.4386 0.635742 0.759766 15.3146 0.759766 33.4489C0.759766 51.5832 15.4386 66.2621 33.5729 66.2621C43.7182 66.2621 52.7577 61.6732 58.7841 54.4306C59.0329 54.1818 59.1987 53.8224 59.1987 53.463C59.1711 52.689 58.5353 52.0532 57.7889 52.0532Z" fill="#333333"/>
</svg>
