<svg width="315" height="64" viewBox="0 0 315 64" fill="none" xmlns="http://www.w3.org/2000/svg">
<g clip-path="url(#clip0_168_309)">
<path d="M83.916 49.8693C81.2274 49.8693 78.641 49.5081 76.1542 48.7858C73.668 48.0636 71.6014 47.0638 69.9551 45.7872L72.4751 40.1929C75.9019 42.5781 79.7496 43.7711 84.0169 43.7711C86.2342 43.7711 87.9396 43.4099 89.1326 42.6876C90.3249 41.9647 90.9216 40.965 90.9216 39.6884C90.9216 38.5465 90.3753 37.6556 89.2833 37.0176C88.1912 36.379 86.2508 35.7576 83.4625 35.1529C80.3372 34.5143 77.8424 33.7415 75.9776 32.8341C74.1134 31.9272 72.7525 30.8099 71.8955 29.4829C71.0385 28.1552 70.6097 26.5174 70.6097 24.5684C70.6097 22.4181 71.2065 20.5029 72.4 18.8233C73.5923 17.1431 75.2639 15.8241 77.4142 14.8667C79.5644 13.9088 82.0512 13.4302 84.8733 13.4302C87.3933 13.4302 89.821 13.7993 92.1564 14.5388C94.4912 15.2783 96.348 16.2695 97.7255 17.5129L95.2055 23.1072C91.946 20.7213 88.5192 19.5284 84.9237 19.5284C82.8744 19.5284 81.2612 19.9234 80.0855 20.7133C78.9092 21.5027 78.3216 22.5861 78.3216 23.9636C78.3216 24.7702 78.5481 25.434 79.0021 25.9545C79.4555 26.4756 80.2116 26.9376 81.2698 27.3406C82.3281 27.7436 83.8317 28.1638 85.7807 28.6006C90.3501 29.6084 93.6348 30.9022 95.6337 32.4815C97.6332 34.0608 98.6324 36.2449 98.6324 39.0338C98.6324 42.3929 97.3392 45.0397 94.7521 46.9715C92.1644 48.9034 88.5524 49.8693 83.916 49.8693ZM116.877 44.2245C117.686 44.2223 118.494 44.1717 119.297 44.0732L118.893 49.6176C117.925 49.7515 116.948 49.8187 115.97 49.8188C112.207 49.8188 109.461 48.9956 107.73 47.3493C105.999 45.7029 105.134 43.2001 105.134 39.8397V30.3651H100.447V24.6693H105.134V17.412H112.745V24.6693H118.944V30.3645H112.745V39.7899C112.745 42.7461 114.123 44.2245 116.877 44.2245ZM134.568 49.8188C131.947 49.8188 129.646 49.2897 127.663 48.2315C125.681 47.1733 124.152 45.6783 123.077 43.7458C122.001 41.814 121.464 39.5376 121.464 36.9167C121.464 34.2959 122.001 32.0195 123.077 30.0876C124.152 28.1558 125.681 26.6688 127.663 25.6272C129.646 24.5856 131.947 24.0645 134.568 24.0645C137.189 24.0645 139.49 24.5856 141.472 25.6272C143.455 26.6688 144.984 28.1558 146.059 30.0876C147.134 32.0195 147.672 34.2959 147.672 36.9167C147.672 39.5376 147.134 41.814 146.059 43.7458C144.984 45.6777 143.455 47.1727 141.472 48.2309C139.49 49.2897 137.189 49.8188 134.568 49.8188ZM134.568 44.0233C138.264 44.0233 140.112 41.6547 140.112 36.9167C140.112 34.5309 139.633 32.7504 138.676 31.5741C137.718 30.3983 136.349 29.8102 134.568 29.8102C130.872 29.8102 129.024 32.1788 129.024 36.9161C129.024 41.6541 130.872 44.0233 134.568 44.0233ZM168.739 30.3141L164.455 30.7681C162.339 30.9693 160.843 31.5661 159.97 32.5572C159.096 33.5477 158.66 34.8668 158.66 36.5132V49.4158H151.049V24.6693H158.357V28.8529C159.6 25.9963 162.17 24.4343 166.068 24.1654L168.286 24.0141L168.739 30.3141ZM190.852 24.7197H198.311L183.393 58.4881H175.682L180.419 48.055L170.238 24.7197H178.151L184.401 40.4451L190.852 24.7197ZM215.951 24.0645C218.102 24.0645 220 24.5856 221.647 25.6272C223.293 26.6688 224.578 28.1558 225.502 30.0876C226.426 32.0195 226.888 34.262 226.888 36.8159C226.888 39.3691 226.426 41.6288 225.502 43.5945C224.578 45.5602 223.284 47.089 221.621 48.1811C219.958 49.2731 218.068 49.8188 215.951 49.8188C214.237 49.8188 212.692 49.4577 211.314 48.736C209.936 48.0131 208.878 47.0134 208.14 45.7367V49.4158H200.63V13.8836H208.24V27.9959C208.979 26.7531 210.029 25.7872 211.39 25.0981C212.751 24.409 214.271 24.0645 215.951 24.0645ZM213.734 44.0227C215.515 44.0227 216.892 43.3933 217.867 42.1333C218.841 40.8733 219.328 39.1002 219.328 36.8159C219.328 34.5641 218.841 32.8427 217.867 31.6497C216.892 30.4568 215.515 29.8606 213.734 29.8606C211.953 29.8606 210.576 30.474 209.601 31.7002C208.626 32.927 208.139 34.6656 208.139 36.9167C208.139 39.2017 208.626 40.957 209.601 42.1832C210.576 43.4099 211.953 44.0227 213.734 44.0227ZM243.419 49.8188C240.798 49.8188 238.497 49.2897 236.514 48.2315C234.532 47.1733 233.003 45.6783 231.928 43.7458C230.853 41.814 230.315 39.5376 230.315 36.9167C230.315 34.2959 230.853 32.0195 231.928 30.0876C233.003 28.1558 234.532 26.6688 236.514 25.6272C238.497 24.5856 240.798 24.0645 243.419 24.0645C246.04 24.0645 248.342 24.5856 250.324 25.6272C252.306 26.6688 253.835 28.1558 254.911 30.0876C255.986 32.0195 256.523 34.2959 256.523 36.9167C256.523 39.5376 255.986 41.814 254.911 43.7458C253.835 45.6777 252.306 47.1727 250.324 48.2309C248.342 49.2897 246.04 49.8188 243.419 49.8188ZM243.419 44.0233C247.116 44.0233 248.963 41.6547 248.963 36.9167C248.963 34.5309 248.484 32.7504 247.527 31.5741C246.569 30.3983 245.2 29.8102 243.419 29.8102C239.723 29.8102 237.875 32.1788 237.875 36.9161C237.875 41.6541 239.723 44.0233 243.419 44.0233ZM271.794 49.8188C269.173 49.8188 266.873 49.2897 264.89 48.2315C262.907 47.1733 261.378 45.6783 260.303 43.7458C259.228 41.814 258.691 39.5376 258.691 36.9167C258.691 34.2959 259.228 32.0195 260.303 30.0876C261.378 28.1558 262.907 26.6688 264.89 25.6272C266.872 24.5856 269.173 24.0645 271.794 24.0645C274.415 24.0645 276.716 24.5856 278.699 25.6272C280.681 26.6688 282.21 28.1558 283.286 30.0876C284.361 32.0195 284.898 34.2959 284.898 36.9167C284.898 39.5376 284.361 41.814 283.286 43.7458C282.21 45.6777 280.681 47.1727 278.699 48.2309C276.717 49.2897 274.415 49.8188 271.794 49.8188ZM271.794 44.0233C275.491 44.0233 277.338 41.6547 277.338 36.9167C277.338 34.5309 276.86 32.7504 275.902 31.5741C274.944 30.3983 273.575 29.8102 271.794 29.8102C268.099 29.8102 266.251 32.1788 266.251 36.9161C266.251 41.6541 268.099 44.0233 271.794 44.0233ZM315 49.4158H305.676L296.201 38.3785V49.4158H288.59V13.8836H296.201V35.2532L305.323 24.7203H314.395L304.012 36.5132L315 49.4158Z" fill="#333333"/>
<path d="M1.95375 58.0523L0.00222979 6.05088C-0.0287555 5.22515 0.264189 4.42 0.818554 3.80725C1.37292 3.19449 2.14481 2.82265 2.96951 2.77107L47.2006 0.00620191C47.6324 -0.0208609 48.0652 0.0408391 48.4722 0.187496C48.8793 0.334152 49.252 0.562655 49.5673 0.858908C49.8826 1.15516 50.1339 1.51288 50.3057 1.91C50.4774 2.30712 50.566 2.73522 50.5659 3.16789V59.8328C50.5659 60.2608 50.4792 60.6843 50.311 61.0778C50.1428 61.4713 49.8966 61.8267 49.5872 62.1224C49.2779 62.4181 48.9118 62.6481 48.5111 62.7984C48.1104 62.9487 47.6834 63.0163 47.2559 62.997L4.97702 61.0977C4.18285 61.0622 3.4311 60.7292 2.87103 60.1651C2.31096 59.6009 1.98353 58.8467 1.95375 58.0523Z" fill="#FF4785"/>
<mask id="mask0_168_309" style="mask-type:luminance" maskUnits="userSpaceOnUse" x="0" y="0" width="51" height="63">
<path d="M1.95375 58.0523L0.00222979 6.05088C-0.0287555 5.22515 0.264189 4.42 0.818554 3.80725C1.37292 3.19449 2.14481 2.82265 2.96951 2.77107L47.2006 0.00620191C47.6324 -0.0208609 48.0652 0.0408391 48.4722 0.187496C48.8793 0.334152 49.252 0.562655 49.5673 0.858908C49.8826 1.15516 50.1339 1.51288 50.3057 1.91C50.4774 2.30712 50.566 2.73522 50.5659 3.16789V59.8328C50.5659 60.2608 50.4792 60.6843 50.311 61.0778C50.1428 61.4713 49.8966 61.8267 49.5872 62.1224C49.2779 62.4181 48.9118 62.6481 48.5111 62.7984C48.1104 62.9487 47.6834 63.0163 47.2559 62.997L4.97702 61.0977C4.18285 61.0622 3.4311 60.7292 2.87103 60.1651C2.31096 59.6009 1.98353 58.8467 1.95375 58.0523Z" fill="white"/>
</mask>
<g mask="url(#mask0_168_309)">
<path d="M37.3393 7.74396L37.6414 0.477422L43.7156 0L43.977 7.49355C43.9801 7.58351 43.9574 7.67248 43.9116 7.74997C43.8658 7.82746 43.7988 7.89026 43.7186 7.93098C43.6383 7.9717 43.5481 7.98865 43.4585 7.97982C43.3689 7.97099 43.2837 7.93676 43.2129 7.88115L40.8701 6.03545L38.0966 8.13955C38.0253 8.1936 37.94 8.22626 37.8507 8.23371C37.7615 8.24117 37.672 8.22312 37.5926 8.18166C37.5133 8.14021 37.4473 8.07706 37.4025 7.99956C37.3576 7.92207 37.3357 7.83342 37.3393 7.74396ZM29.5707 23.7456C29.5707 24.9779 37.8715 24.3873 38.9863 23.5216C38.9863 15.1298 34.4827 10.7198 26.2374 10.7198C17.992 10.7198 13.3722 15.1988 13.3722 21.9159C13.3722 33.6158 29.1616 33.8397 29.1616 40.2216C29.1616 42.0131 28.2843 43.0762 26.3543 43.0762C23.8398 43.0762 22.8456 41.7923 22.9625 37.4259C22.9625 36.4785 13.3722 36.1832 13.08 37.4259C12.3355 48.0074 18.9278 51.0595 26.4718 51.0595C33.7814 51.0595 39.5123 47.1633 39.5123 40.1096C39.5123 27.5699 23.4891 27.9058 23.4891 21.6919C23.4891 19.1732 25.3607 18.8372 26.4718 18.8372C27.6407 18.8372 29.7461 19.0433 29.5707 23.7456Z" fill="white"/>
</g>
</g>
<defs>
<clipPath id="clip0_168_309">
<rect width="315" height="63.3691" fill="white"/>
</clipPath>
</defs>
</svg>
