<svg width="245" height="50" viewBox="0 0 245 50" fill="none" xmlns="http://www.w3.org/2000/svg">
<path d="M163.047 0.769501H205.541V8.61287H188.684V49.8758H180.255V8.61287H163.047V0.769501Z" />
<path d="M93.1594 0.769501V8.61287H59.0972V21.2304H86.49V29.0738H59.0972V42.0324H93.1594V49.8758H50.6686V8.61287H50.665V0.769501H93.1594Z" />
<path d="M114.379 0.789978H103.349L142.857 49.8963H153.92L134.163 25.36L153.888 0.827443L142.857 0.84449L128.641 18.5013L114.379 0.789978Z" />
<path d="M125.697 35.8668L120.174 28.9987L103.316 49.9337H114.378L125.697 35.8668Z" />
<path fill-rule="evenodd" clip-rule="evenodd" d="M50.9649 49.8758L11.4029 0.748993H0.867188V49.8553H9.29581V11.2454L40.3763 49.8758H50.9649Z" />
<path d="M207.436 49.5759C206.818 49.5759 206.293 49.3621 205.854 48.9344C205.414 48.5067 205.197 47.9889 205.202 47.3755C205.197 46.779 205.414 46.2669 205.854 45.8392C206.293 45.4115 206.818 45.1976 207.436 45.1976C208.03 45.1976 208.549 45.4115 208.989 45.8392C209.434 46.2669 209.657 46.779 209.663 47.3755C209.657 47.7807 209.554 48.1521 209.348 48.4841C209.137 48.8218 208.869 49.0863 208.532 49.2777C208.2 49.4746 207.835 49.5759 207.436 49.5759Z" />
<path d="M221.821 28.8887H225.556V43.2785C225.551 44.601 225.265 45.7322 224.706 46.6833C224.14 47.6343 223.358 48.3602 222.353 48.8723C221.353 49.3788 220.182 49.6377 218.852 49.6377C217.635 49.6377 216.544 49.4182 215.574 48.9905C214.603 48.5628 213.832 47.9213 213.266 47.0771C212.695 46.233 212.415 45.1806 212.415 43.9201H216.156C216.162 44.4716 216.288 44.9499 216.527 45.3494C216.767 45.749 217.098 46.0528 217.521 46.2667C217.949 46.4806 218.44 46.5875 218.994 46.5875C219.594 46.5875 220.108 46.4637 220.525 46.2104C220.941 45.9628 221.262 45.5914 221.484 45.0962C221.701 44.6066 221.816 43.9988 221.821 43.2785V28.8887Z" />
<path d="M240.925 34.5164C240.834 33.6441 240.434 32.9632 239.737 32.4792C239.034 31.9896 238.126 31.7476 237.012 31.7476C236.23 31.7476 235.557 31.8658 234.997 32.0965C234.437 32.3329 234.003 32.648 233.706 33.0476C233.409 33.4471 233.261 33.903 233.249 34.4151C233.249 34.8428 233.352 35.2142 233.552 35.5238C233.752 35.8389 234.02 36.1034 234.368 36.3173C234.711 36.5367 235.094 36.7168 235.511 36.8631C235.933 37.0094 236.356 37.1332 236.778 37.2345L238.726 37.7129C239.508 37.8929 240.268 38.135 240.993 38.4445C241.718 38.7484 242.375 39.1367 242.952 39.6037C243.529 40.0708 243.986 40.6336 244.323 41.292C244.66 41.9504 244.831 42.7214 244.831 43.6106C244.831 44.8092 244.523 45.8616 243.9 46.7733C243.277 47.6793 242.381 48.3884 241.204 48.9005C240.034 49.407 238.617 49.6659 236.95 49.6659C235.339 49.6659 233.934 49.4183 232.752 48.9231C231.565 48.4335 230.639 47.7131 229.971 46.7676C229.303 45.8222 228.943 44.6685 228.892 43.3123H232.593C232.644 44.0213 232.872 44.6123 233.261 45.0906C233.654 45.5633 234.168 45.9123 234.797 46.1486C235.431 46.3793 236.139 46.4975 236.921 46.4975C237.738 46.4975 238.458 46.3737 239.08 46.1317C239.697 45.8897 240.182 45.5521 240.531 45.1132C240.885 44.6798 241.062 44.1677 241.068 43.5825C241.062 43.0478 240.902 42.6032 240.593 42.2543C240.279 41.9054 239.845 41.6128 239.291 41.3764C238.732 41.1401 238.081 40.9262 237.338 40.7405L234.974 40.144C233.266 39.7107 231.913 39.0523 230.924 38.1687C229.931 37.2852 229.44 36.1147 229.44 34.6458C229.44 33.4416 229.771 32.3836 230.44 31.4775C231.102 30.5715 232.01 29.868 233.158 29.3672C234.311 28.8607 235.614 28.613 237.064 28.613C238.538 28.613 239.828 28.8607 240.942 29.3672C242.055 29.868 242.929 30.5659 243.563 31.455C244.197 32.3442 244.528 33.3627 244.546 34.5164H240.925Z" />
</svg>
