<svg width="299" height="54" viewBox="0 0 299 54" fill="none" xmlns="http://www.w3.org/2000/svg">
<g clip-path="url(#clip0_168_289)">
<path d="M250.523 40.9899L242.505 26.0924L237.458 32.1986V40.9904H233.225V12.4973H237.458V26.2956L248.448 12.4973H253.332L245.355 22.5103L255.49 40.9899H250.523ZM264.647 40.9899V12.4973H268.88V40.9899H264.647ZM290.941 16.5688V40.991H286.708V16.5676H278.649V12.4973H299V16.5676L290.941 16.5688Z" fill="#8D8D93"/>
<path d="M71.3645 41.4787C69.0436 41.537 66.7593 40.8914 64.8122 39.6269C62.9927 38.427 61.6414 36.6375 60.9854 34.559L64.974 33.0938C65.5273 34.3697 66.4308 35.4627 67.5797 36.2462C68.7459 37.0277 70.1238 37.4327 71.5274 37.4066C72.8771 37.4768 74.2089 37.0737 75.293 36.2666C75.7643 35.8707 76.1366 35.3702 76.3803 34.805C76.6241 34.2397 76.7325 33.6254 76.6969 33.0109C76.7025 32.4381 76.5699 31.8724 76.3103 31.3617C76.0844 30.9051 75.7891 30.4863 75.4349 30.1202C74.9872 29.7124 74.4795 29.3759 73.9294 29.1227C73.2502 28.784 72.6872 28.5265 72.2399 28.3495C71.5871 28.0979 70.929 27.8604 70.266 27.6371C69.1798 27.2575 68.3663 26.9591 67.8238 26.7418C67.0887 26.4291 66.3747 26.0688 65.6864 25.6632C64.9458 25.2701 64.2726 24.7615 63.6921 24.1565C63.1898 23.5665 62.7847 22.9002 62.492 22.1827C61.9294 20.8147 61.8111 19.3044 62.1539 17.8655C62.4967 16.4266 63.2832 15.1319 64.4022 14.1646C66.0304 12.7268 68.2419 12.0073 71.0363 12.0073C73.3705 12.0073 75.2901 12.523 76.7961 13.5537C78.2582 14.5257 79.3318 15.9811 79.8288 17.665L75.9213 18.9672C75.5289 18.0855 74.866 17.3514 74.0286 16.8713C73.016 16.3093 71.869 16.0347 70.7116 16.0771C69.5763 16.012 68.4516 16.3273 67.5155 16.9729C67.1334 17.2693 66.8285 17.6535 66.6267 18.0929C66.4249 18.5324 66.3321 19.014 66.3563 19.4969C66.3596 19.8671 66.441 20.2325 66.5952 20.5691C66.7494 20.9057 66.9728 21.206 67.2509 21.4504C67.792 21.9829 68.4269 22.4105 69.1238 22.7118C69.7755 22.9833 70.7665 23.3495 72.0957 23.8108C72.9086 24.1098 73.5124 24.3335 73.906 24.4824C74.3002 24.6313 74.8766 24.8818 75.6364 25.2352C76.2453 25.5045 76.8307 25.824 77.3866 26.1906C77.8843 26.5483 78.3601 26.9356 78.8115 27.3503C79.302 27.7767 79.7213 28.2777 80.053 28.836C80.3689 29.4152 80.6148 30.03 80.7853 30.6674C80.9933 31.4165 81.0963 32.1908 81.0914 32.9683C81.0914 35.6272 80.1821 37.7102 78.3636 39.2152C76.5456 40.7207 74.2126 41.4752 71.3645 41.4787ZM97.4552 40.9905L87.6863 12.4973H92.2455L98.7172 32.3603C99.0747 33.4289 99.3735 34.5161 99.6124 35.6172C99.8507 34.5158 100.15 33.4285 100.508 32.3603L106.898 12.4973H111.416L101.688 40.9899L97.4552 40.9905ZM120.045 40.9905V12.4973H137.71V16.4859H124.279V24.3014H132.948V28.29H124.278V37.0013H138.607V40.9911L120.045 40.9905ZM149.391 40.9905V12.4973H153.625V36.9195H167.546V40.9899L149.391 40.9905ZM183.5 16.5682V40.9905H179.267V16.5677H171.208V12.4973H191.56V16.5677L183.5 16.5682ZM200.309 40.9905V12.4973H217.974V16.4859H204.544V24.3014H213.213V28.29H204.544V37.0013H218.873V40.9911L200.309 40.9905Z" fill="#4A4A55"/>
<path d="M41.6764 7.07904C36.7091 -0.030974 26.8981 -2.13974 19.8045 2.38088L7.34632 10.3213C5.66324 11.3801 4.21961 12.7785 3.10776 14.427C1.9959 16.0756 1.24028 17.938 0.889209 19.8952C0.294747 23.1915 0.81673 26.592 2.37253 29.5583C1.30611 31.176 0.578981 32.9932 0.235146 34.9001C-0.119796 36.8965 -0.0725034 38.9438 0.374249 40.9217C0.821001 42.8997 1.65822 44.7685 2.8368 46.4186C7.80417 53.5292 17.6163 55.6373 24.7088 51.1161L37.1669 43.1757C38.8501 42.117 40.2938 40.7188 41.4057 39.0704C42.5177 37.4219 43.2734 35.5596 43.6246 33.6024C44.2187 30.3059 43.6967 26.9053 42.1413 23.9387C43.2073 22.321 43.9342 20.5041 44.2781 18.5975C44.6332 16.6011 44.5859 14.5537 44.1391 12.5757C43.6922 10.5978 42.8553 8.72897 41.6764 7.07904Z" fill="#FF3E00"/>
<path d="M18.5872 47.0878C16.6265 47.5976 14.5566 47.4934 12.6571 46.7893C10.7575 46.0852 9.11979 44.8151 7.96507 43.1506C7.25631 42.1584 6.7528 41.0347 6.48404 39.8454C6.21529 38.656 6.18671 37.425 6.39999 36.2245C6.4724 35.8309 6.57168 35.442 6.69782 35.0618L6.932 34.3452L7.57088 34.8136C9.0444 35.8972 10.6921 36.7211 12.4431 37.25L12.9056 37.3901L12.8629 37.8527C12.8061 38.5101 12.9841 39.1664 13.3652 39.705C13.7129 40.2067 14.2063 40.5896 14.7786 40.8018C15.351 41.014 15.9747 41.0454 16.5654 40.8917C16.8359 40.82 17.0939 40.7074 17.3304 40.5577L29.7891 32.6149C30.094 32.4229 30.3555 32.1696 30.557 31.8709C30.7585 31.5723 30.8955 31.235 30.9594 30.8805C31.0234 30.5186 31.0145 30.1476 30.9335 29.7891C30.8525 29.4307 30.7009 29.092 30.4876 28.7927C30.1398 28.291 29.6465 27.9081 29.0742 27.6957C28.5019 27.4833 27.8782 27.4516 27.2874 27.6049C27.0168 27.6765 26.7588 27.7892 26.5223 27.9389L21.7687 30.9698C20.9864 31.4669 20.1326 31.8414 19.2371 32.0805C17.2766 32.5902 15.2068 32.4859 13.3074 31.7818C11.4079 31.0778 9.77031 29.8078 8.61562 28.1433C7.90675 27.1512 7.40316 26.0275 7.13441 24.8382C6.86565 23.6488 6.83714 22.4178 7.05055 21.2173C7.26237 20.0403 7.71749 18.9206 8.38681 17.9296C9.05612 16.9386 9.92489 16.0982 10.9375 15.4621L23.3951 7.52167C24.1772 7.02378 25.031 6.6486 25.9267 6.40918C27.8872 5.89944 29.957 6.00366 31.8565 6.70776C33.7559 7.41186 35.3936 8.68191 36.5482 10.3464C37.2569 11.3386 37.7604 12.4623 38.0292 13.6516C38.298 14.8409 38.3265 16.0719 38.1133 17.2725C38.0402 17.667 37.9403 18.056 37.8143 18.4369L37.5789 19.1546L36.9406 18.6875C35.4674 17.6038 33.8198 16.7798 32.069 16.2511L31.6053 16.1109L31.6486 15.6484C31.7047 14.991 31.5269 14.335 31.1463 13.796C30.7987 13.2948 30.3058 12.9122 29.7339 12.7C29.162 12.4878 28.5388 12.4562 27.9484 12.6093C27.6779 12.681 27.4199 12.7936 27.1834 12.9434L14.7247 20.8826C14.4199 21.0746 14.1584 21.3279 13.957 21.6266C13.7556 21.9252 13.6187 22.2626 13.555 22.6171C13.4908 22.9789 13.4994 23.3499 13.5802 23.7083C13.661 24.0668 13.8124 24.4056 14.0257 24.7048C14.3735 25.2065 14.8668 25.5893 15.4391 25.8017C16.0113 26.0142 16.635 26.0459 17.2259 25.8927C17.4964 25.8208 17.7543 25.7081 17.9909 25.5586L22.744 22.5289C23.526 22.031 24.3798 21.656 25.2755 21.417C27.2355 20.9075 29.3047 21.0115 31.2036 21.7152C33.1026 22.4188 34.74 23.6882 35.8947 25.3519C36.6036 26.344 37.1072 27.4677 37.3759 28.657C37.6447 29.8464 37.6732 31.0774 37.4598 32.2779C37.2485 33.455 36.794 34.5751 36.1254 35.5666C35.4567 36.5581 34.5885 37.3991 33.5763 38.036L21.1181 45.9747C20.3363 46.4726 19.4827 46.8478 18.5872 47.0872" fill="white"/>
</g>
<defs>
<clipPath id="clip0_168_289">
<rect width="299" height="53.7266" fill="white"/>
</clipPath>
</defs>
</svg>
