<svg width="75" height="104" viewBox="0 0 75 104" fill="none" xmlns="http://www.w3.org/2000/svg">
<path fill-rule="evenodd" clip-rule="evenodd" d="M30.2768 1.00553C15.6622 3.07063 1.8418 12.6019 0.518017 31.9821C-0.435108 46.4378 -0.329154 46.5437 13.5441 43.7373C25.2464 41.3545 24.6109 41.9899 24.6109 33.0941C24.6109 25.522 26.7289 21.2329 32.5006 18.2677C45.3148 11.7546 54.5284 28.9109 54.5284 34.3119C54.5284 40.2424 50.2922 43.3666 36.9485 47.232C26.0405 50.4091 22.5457 54.91 22.1221 66.1887C22.0162 69.5246 21.6457 72.1722 21.2751 72.5958C19.6336 74.6079 25.3522 76.4612 31.4416 75.9317C49.7098 74.2902 49.4451 74.4491 48.439 67.5654C47.8036 63.2763 48.2271 62.6409 52.5691 61.3171C63.0535 58.14 69.037 52.1036 72.2141 41.5133C80.5275 14.1904 62.2594 -3.44239 30.2768 1.00553ZM47.38 4.18261C59.294 5.93001 70.4139 21.3388 68.3488 33.3588C66.4425 44.4786 60.406 51.3093 48.386 55.8102C42.5614 57.9812 40.708 60.7347 40.6551 67.1947V70.7954C34.195 71.4308 33.7714 71.4308 29.5353 72.0663C30.2766 56.4456 29.2178 54.857 48.545 48.0792C60.6709 43.8431 63.3185 33.7295 55.4287 21.9743C42.7733 3.12357 10.2081 15.6201 16.4034 36.9595C16.6682 37.9655 16.8271 38.8657 16.7212 38.9716C16.5623 39.1305 9.6785 40.6661 9.14899 40.6661C9.09604 40.6661 8.72543 34.153 8.40772 31.9291C5.6013 12.8136 25.8817 1.11143 47.38 4.18261ZM27.2585 81.9681C17.7272 86.3101 17.3565 97.9595 26.6229 101.295C45.103 107.967 61.8358 97.0063 51.4043 85.0923C48.3332 81.4916 32.6595 79.4794 27.2585 81.9681ZM40.8141 85.1452C45.0502 85.7806 48.7568 89.1696 48.7568 92.3467C48.7568 98.2243 34.354 101.137 29.1648 96.318C26.6231 93.9352 25.7759 82.8683 40.8141 85.1452Z" fill="black"/>
</svg>
