<svg width="144" height="61" viewBox="0 0 144 61" fill="none" xmlns="http://www.w3.org/2000/svg">
<path fill-rule="evenodd" clip-rule="evenodd" d="M1.45588 16.4732C2.02087 17.4869 2.92707 18.0841 3.52993 18.4161C4.23861 18.8064 5.02071 19.0921 5.70158 19.3052C6.3982 19.5233 7.09794 19.6983 7.67337 19.8363C7.85786 19.8806 8.0215 19.9193 8.16754 19.9538C8.52234 20.0377 8.77329 20.0971 8.96704 20.1519L8.96705 20.1519C13.3357 21.3877 17.8523 22.3867 22.2556 23.3606C23.8802 23.7199 25.4894 24.0758 27.07 24.4389C28.574 24.7844 30.0731 23.8453 30.4183 22.3414C30.7634 20.8374 29.824 19.3381 28.32 18.9925C26.6405 18.6067 24.9714 18.2375 23.3128 17.8706C22.5454 17.7009 21.7803 17.5317 21.0174 17.3615C25.9444 17.6003 30.919 18.0712 35.861 18.5389C36.5357 18.6028 37.2098 18.6666 37.8831 18.7298L37.8832 18.7298C41.9728 19.1133 47.0087 19.41 52.6436 19.742C63.1985 20.3638 75.8553 21.1096 88.3332 22.7815C97.8151 24.052 106.946 25.8358 114.598 28.4431C122.313 31.0715 128.172 34.4206 131.504 38.5908L133.687 36.847L131.504 38.5908C135.614 43.736 137.245 50.6289 137.792 58.2078C137.903 59.747 139.241 60.9049 140.78 60.7941C142.319 60.6833 143.477 59.3457 143.365 57.8065C142.789 49.8302 141.035 41.5684 135.869 35.1033C131.548 29.6934 124.48 25.9066 116.399 23.1534C108.256 20.379 98.7218 18.5354 89.074 17.2427C76.454 15.5517 63.2077 14.766 52.4988 14.1307C46.9832 13.8036 42.1407 13.5163 38.4037 13.1659C37.685 13.0985 36.9614 13.0298 36.2334 12.9607C28.1197 12.1906 19.47 11.3695 10.9747 11.6831C13.0567 10.6857 15.3351 9.83094 17.6843 8.94966C18.7185 8.56172 19.7663 8.16862 20.8172 7.75594L20.8178 7.75571C21.1059 7.64248 21.4857 7.46349 21.7968 7.31688C21.8359 7.29846 21.8739 7.28055 21.9105 7.26334C22.2939 7.08315 22.685 6.90145 23.067 6.7425C23.4493 6.58341 23.7447 6.4803 23.9465 6.42837C25.2672 6.59484 26.5563 5.79517 26.9621 4.4794C27.4169 3.00488 26.5902 1.44059 25.1156 0.985457C24.0895 0.668738 23.0938 0.881577 22.6152 1.0006C22.0155 1.14974 21.4169 1.37591 20.9193 1.58299C20.4095 1.79513 19.9173 2.02492 19.5325 2.20579C19.0923 2.41274 18.8798 2.51259 18.7731 2.55452C17.9208 2.8892 17.0086 3.23042 16.0606 3.58503C12.5189 4.90981 8.47775 6.42144 5.19703 8.47671L5.19651 8.47704C4.54873 8.88306 3.31869 9.67289 2.37718 10.7289C1.48468 11.73 0.212681 13.7604 1.28963 16.1411C1.3379 16.2562 1.39354 16.3671 1.45588 16.4732Z" fill="black"/>
</svg>
