<svg width="126" height="123" viewBox="0 0 126 123" fill="none" xmlns="http://www.w3.org/2000/svg">
<path d="M103.404 3.5729C109.557 7.10188 117.733 12.0243 123.106 16.4453M123.106 16.4453C123.725 16.9545 118.535 20.0415 118.283 20.1645C112.758 22.8678 107.029 24.7981 101.145 26.646M123.106 16.4453C86.0947 4.71046 49.0786 17.4312 36.8452 41.1477C35.6327 43.4983 34.3156 46.0579 33.2437 48.719M33.2437 48.719C31.5368 52.9567 30.4518 57.4517 31.4019 61.7692C32.279 65.7537 35.1822 70.5985 39.4415 71.8997C47.3983 74.33 54.1025 65.9607 51.4134 58.7288C49.0505 52.3737 40.0708 47.2952 33.2437 48.719ZM33.2437 48.719C33.0997 48.749 32.9567 48.7819 32.8147 48.8178C-1.46142 57.4755 -3.48629 97.1724 13.9269 119.374" stroke="black" stroke-width="5.58817" stroke-miterlimit="1.5" stroke-linecap="round" stroke-linejoin="round"/>
</svg>
