<svg width="142" height="95" viewBox="0 0 142 95" fill="none" xmlns="http://www.w3.org/2000/svg">
<path d="M111.279 53.8888L115.343 53.7942C159.864 53.038 145.024 -12.3733 97.3835 4.92469C62.2203 17.6855 68.7425 76.3854 106.363 86.0269C123 90.2805 141.527 87.2557 127.726 82.5295C115.91 78.5594 106.363 67.1223 107.025 57.7644C107.214 55.6848 109.01 53.8888 111.279 53.8888Z" fill="black"/>
<path d="M24.4101 2.56147C-18.4096 19.0088 -1.01712 90.8478 46.5288 93.9671C58.9115 94.8178 62.1255 91.8875 52.7675 88.3901C43.6931 84.9872 32.2556 68.918 31.0268 58.0477C30.7433 55.8736 32.4445 54.0774 34.6186 54.0774C47.0958 54.0774 52.2949 54.0778 59.5733 44.0582C77.4385 19.2927 53.7128 -8.68697 24.4101 2.56147Z" fill="black"/>
</svg>
