<?xml version="1.0" encoding="UTF-8"?>
<!-- This file is generated by npm run build:icons -->
<svg xmlns="http://www.w3.org/2000/svg" xmlns:xlink="http://www.w3.org/1999/xlink" width="0" height="0">
<defs>
<symbol viewBox="0 0 32 32" id="arrow">
<path fill-rule="evenodd" clip-rule="evenodd" d="M30.2657 17.2953H0V14.377H30.2657V17.2953Z"></path>
<path fill-rule="evenodd" clip-rule="evenodd" d="M28.4769 15.8364L20.7041 8.06361L22.7677 6L31.5723 14.8046C32.1421 15.3744 32.1421 16.2983 31.5723 16.8682L22.7677 25.6727L20.7041 23.6091L28.4769 15.8364Z"></path>
</symbol>
<symbol viewBox="0 0 24 24" id="comments">
<path fill-rule="evenodd" clip-rule="evenodd" d="M20.9951 7.80036C20.8911 5.68397 19.1422 4 17 4H7L6.80036 4.0049C4.68397 4.10892 3 5.8578 3 8L3.00173 21.059L3.00673 21.1166L3.0156 21.1764L3.02641 21.2293L3.0583 21.3373L3.08492 21.4039L3.10164 21.4398L3.15569 21.5361L3.2097 21.6129L3.29289 21.7071L3.37455 21.7803L3.46391 21.8443L3.59606 21.9151L3.66274 21.9417L3.77071 21.9736L3.82357 21.9844L3.88338 21.9933L3.94097 21.9983L4 22L4.05903 21.9983L4.11662 21.9933L4.17643 21.9844L4.22929 21.9736L4.33726 21.9417L4.40394 21.9151L4.43977 21.8984L4.53609 21.8443L4.6129 21.7903L4.70711 21.7071L8.414 18H17L17.1996 17.9951C19.316 17.8911 21 16.1422 21 14V8L20.9951 7.80036ZM7 6H17L17.1493 6.00549C18.1841 6.08183 19 6.94564 19 8V14L18.9945 14.1493C18.9182 15.1841 18.0544 16 17 16H8L7.86856 16.0087C7.65185 16.0374 7.44917 16.1366 7.29289 16.2929L5 18.584V8L5.00549 7.85074C5.08183 6.81588 5.94564 6 7 6ZM16 8C16.5523 8 17 8.44772 17 9C17 9.51284 16.614 9.93551 16.1166 9.99327L16 10H8C7.44772 10 7 9.55228 7 9C7 8.48716 7.38604 8.06449 7.88338 8.00673L8 8H16ZM15 13C15 12.4477 14.5523 12 14 12H8L7.88338 12.0067C7.38604 12.0645 7 12.4872 7 13C7 13.5523 7.44772 14 8 14H14L14.1166 13.9933C14.614 13.9355 15 13.5128 15 13Z"></path>
</symbol>
<symbol viewBox="0 0 25 25" id="facebook">
<g clip-path="url(#clip0_168_349)">
<path fill-rule="evenodd" clip-rule="evenodd" d="M8.79063 13.3434V24.0684H14.0406V13.4184H17.6406L18.5406 8.99336H14.1156C14.1156 8.99336 14.1156 6.89336 14.1156 5.69336C14.0406 5.24336 14.2656 4.56836 15.0156 4.56836C16.1406 4.56836 17.5656 4.56836 17.5656 4.56836V0.0683594C17.5656 0.0683594 15.3156 0.0683594 12.8406 0.0683594C11.1906 0.0683594 8.79063 2.09336 8.79063 4.19336C8.79063 6.36836 8.79063 8.76836 8.79063 8.76836H6.01562V13.2684L8.79063 13.3434Z"></path>
</g>
<defs>
<clipPath id="clip0_168_349">
<rect width="24" height="24" fill="white" transform="translate(0.015625 0.0683594)"></rect>
</clipPath>
</defs>
</symbol>
<symbol viewBox="0 0 24 25" id="github">
<path d="M12 0.0683594C5.4 0.0683594 0 5.46836 0 12.0684C0 18.6684 5.4 24.0684 12 24.0684C18.6 24.0684 24 18.6684 24 12.0684C24 5.46836 18.6 0.0683594 12 0.0683594ZM19.125 19.1934C18.225 20.0934 17.1 20.8434 15.9 21.3684C15.6 21.5184 15.3 21.5934 15 21.7434V19.9434C15 18.9684 14.7 18.2934 14.025 17.8434C14.4 17.7684 14.775 17.7684 15.15 17.6934C15.525 17.6184 15.825 17.5434 16.2 17.3934C16.575 17.2434 16.95 17.0934 17.25 16.9434C17.55 16.7934 17.85 16.4934 18.15 16.1934C18.45 15.8934 18.675 15.5934 18.825 15.2184C18.975 14.8434 19.125 14.3934 19.275 13.8684C19.35 13.3434 19.425 12.7434 19.425 12.1434C19.425 10.9434 19.05 9.89336 18.225 9.06836C18.6 8.16836 18.525 7.11836 18.075 5.99336H17.775C17.55 5.99336 17.175 6.06836 16.65 6.21836C16.125 6.44336 15.525 6.74336 14.85 7.19336C13.95 6.96836 12.975 6.81836 11.925 6.81836C10.95 6.81836 9.975 6.96836 9.075 7.19336C8.625 6.89336 8.25 6.66836 7.875 6.51836C7.65 6.21836 7.35 6.14336 7.125 6.06836C6.9 5.99336 6.675 5.91836 6.45 5.91836C6.225 5.91836 6.15 5.91836 6.075 5.91836C6 5.91836 6 5.91836 5.925 5.91836C5.475 7.04336 5.475 8.01836 5.775 8.99336C4.95 9.81836 4.575 10.8684 4.575 12.0684C4.575 12.6684 4.65 13.2684 4.725 13.7934C4.8 14.3184 4.95 14.7684 5.175 15.1434C5.325 15.5184 5.625 15.8184 5.85 16.1184C6.15 16.4184 6.45 16.6434 6.75 16.8684C7.05 17.0184 7.425 17.2434 7.8 17.3184C8.175 17.4684 8.55 17.5434 8.85 17.6184C9.225 17.6934 9.6 17.7684 9.975 17.7684C9.3 18.2184 9 18.8934 9 19.8684V21.6684C8.625 21.5934 8.325 21.4434 7.95 21.2934C6.75 20.7684 5.7 20.0934 4.725 19.1184C3.825 18.2184 3.075 17.0934 2.55 15.8934C2.025 14.6184 1.725 13.3434 1.725 11.9934C1.725 10.6434 2.025 9.29336 2.55 8.09336C3.075 6.89336 3.75 5.84336 4.725 4.86836C5.625 3.96836 6.75 3.21836 7.95 2.69336C9.225 2.16836 10.5 1.86836 11.85 1.86836C13.2 1.86836 14.55 2.16836 15.75 2.69336C16.95 3.21836 18 3.89336 18.975 4.86836C19.875 5.76836 20.625 6.89336 21.15 8.09336C21.675 9.36836 21.975 10.6434 21.975 11.9934C21.975 13.3434 21.675 14.6934 21.15 15.8934C20.775 17.1684 20.025 18.2934 19.125 19.1934Z"></path>
</symbol>
<symbol viewBox="0 0 25 25" id="linkedin">
<path d="M6.52994 4.15289C6.52994 5.34288 5.65311 6.28235 4.21259 6.28235C2.89734 6.28235 2.02051 5.34288 2.02051 4.15289C2.02051 2.9629 2.89734 2.02344 4.27522 2.02344C5.71574 2.02344 6.52994 2.9629 6.52994 4.15289ZM2.14577 21.8148V8.03602H6.40468V21.8148H2.14577ZM8.97255 12.4202C8.97255 10.7292 8.90992 9.28864 8.84729 8.03602H12.5425L12.7304 9.97758H12.793C13.3567 9.10074 14.7346 7.72286 17.052 7.72286C19.8704 7.72286 21.9998 9.60179 21.9998 13.6728V21.8148H17.7409V14.1739C17.7409 12.4202 17.1146 11.1676 15.5488 11.1676C14.3588 11.1676 13.6699 11.9818 13.3567 12.796C13.2941 13.0465 13.2941 13.4223 13.2941 13.8607V21.8148H9.03518V12.4202H8.97255Z"></path>
</symbol>
<symbol viewBox="0 0 24 24" id="share">
<path fill-rule="evenodd" clip-rule="evenodd" d="M14 6C14 3.79086 15.7909 2 18 2C20.2091 2 22 3.79086 22 6C22 8.20914 20.2091 10 18 10C16.7835 10 15.6938 9.45692 14.9601 8.59997L9.91933 11.1968C9.97222 11.4562 10 11.7249 10 12C10 12.2751 9.97222 12.5438 9.91933 12.8032L14.9601 15.4C15.6938 14.5431 16.7835 14 18 14C20.2091 14 22 15.7909 22 18C22 20.2091 20.2091 22 18 22C15.7909 22 14 20.2091 14 18C14 17.7249 14.0278 17.4562 14.0807 17.1968L9.03986 14.6C8.30623 15.4569 7.21654 16 6 16C3.79086 16 2 14.2091 2 12C2 9.79086 3.79086 8 6 8C7.21653 8 8.30623 8.54308 9.03986 9.40003L14.0807 6.80325C14.0278 6.54375 14 6.27512 14 6ZM7.8324 12.8027C7.82503 12.8156 7.8179 12.8287 7.81103 12.842C7.79586 12.8715 7.7823 12.9013 7.77031 12.9315C7.4353 13.5669 6.76823 14 6 14C4.89543 14 4 13.1046 4 12C4 10.8954 4.89543 10 6 10C6.76823 10 7.4353 10.4331 7.77031 11.0685C7.7823 11.0987 7.79586 11.1285 7.81103 11.158C7.8179 11.1713 7.82503 11.1844 7.8324 11.1973C7.94018 11.443 8 11.7145 8 12C8 12.2855 7.94018 12.557 7.8324 12.8027ZM16.1676 17.1973C16.0598 17.443 16 17.7145 16 18C16 19.1046 16.8954 20 18 20C19.1046 20 20 19.1046 20 18C20 16.8954 19.1046 16 18 16C17.2318 16 16.5647 16.4331 16.2297 17.0685C16.2177 17.0987 16.2041 17.1285 16.189 17.158C16.1821 17.1713 16.175 17.1844 16.1676 17.1973ZM18 8C17.2318 8 16.5647 7.56685 16.2297 6.93146C16.2177 6.90132 16.2041 6.87148 16.189 6.84204C16.1821 6.82871 16.175 6.81559 16.1676 6.8027C16.0598 6.557 16 6.28549 16 6C16 4.89543 16.8954 4 18 4C19.1046 4 20 4.89543 20 6C20 7.10457 19.1046 8 18 8Z"></path>
</symbol>
<symbol viewBox="0 0 24 24" id="tableOfContents">
<path fill-rule="evenodd" clip-rule="evenodd" d="M5.99327 5.88338C5.93551 5.38604 5.51284 5 5 5C4.44772 5 4 5.44772 4 6L4.00673 6.12662C4.06449 6.62396 4.48716 7.01 5 7.01C5.55228 7.01 6 6.56228 6 6.01L5.99327 5.88338ZM21 6C21 5.44772 20.5523 5 20 5H9L8.88338 5.00673C8.38604 5.06449 8 5.48716 8 6C8 6.55228 8.44772 7 9 7H20L20.1166 6.99327C20.614 6.93551 21 6.51284 21 6ZM21 12C21 11.4477 20.5523 11 20 11H9L8.88338 11.0067C8.38604 11.0645 8 11.4872 8 12C8 12.5523 8.44772 13 9 13H20L20.1166 12.9933C20.614 12.9355 21 12.5128 21 12ZM20 17C20.5523 17 21 17.4477 21 18C21 18.5128 20.614 18.9355 20.1166 18.9933L20 19H9C8.44772 19 8 18.5523 8 18C8 17.4872 8.38604 17.0645 8.88338 17.0067L9 17H20ZM5 11C5.51284 11 5.93551 11.386 5.99327 11.8834L6 12.01C6 12.5623 5.55228 13.01 5 13.01C4.48716 13.01 4.06449 12.624 4.00673 12.1266L4 12C4 11.4477 4.44772 11 5 11ZM5.99327 17.8834C5.93551 17.386 5.51284 17 5 17C4.44772 17 4 17.4477 4 18L4.00673 18.1266C4.06449 18.624 4.48716 19.01 5 19.01C5.55228 19.01 6 18.5623 6 18.01L5.99327 17.8834Z"></path>
</symbol>
<symbol viewBox="0 0 24 24" id="tiktok">
<path d="M17.5644 5.13333C16.8049 4.26625 16.3863 3.1527 16.3866 2H12.9533V15.7778C12.9268 16.5234 12.612 17.2296 12.0753 17.7477C11.5385 18.2658 10.8216 18.5555 10.0755 18.5556C8.49774 18.5556 7.18663 17.2667 7.18663 15.6667C7.18663 13.7556 9.03108 12.3222 10.9311 12.9111V9.4C7.09774 8.88889 3.74219 11.8667 3.74219 15.6667C3.74219 19.3667 6.80885 22 10.0644 22C13.5533 22 16.3866 19.1667 16.3866 15.6667V8.67778C17.7789 9.67761 19.4504 10.2141 21.1644 10.2111V6.77778C21.1644 6.77778 19.0755 6.87778 17.5644 5.13333Z"></path>
</symbol>
<symbol viewBox="0 0 25 24" id="twitter">
<path d="M13.9166 10.4696L21.3695 2H19.604L13.1299 9.35254L7.96294 2H2.00195L9.81715 13.1194L2.00195 22H3.76743L10.5998 14.2338L16.0577 22H22.0187M4.40463 3.30158H7.1169L19.6027 20.7624H16.8897"></path>
</symbol>
<symbol viewBox="0 0 25 25" id="youtube">
<g clip-path="url(#clip0_168_350)">
<path fill-rule="evenodd" clip-rule="evenodd" d="M22.9822 5.46836C22.3072 4.26836 21.6322 4.04336 20.2072 3.96836C18.7822 3.89336 15.1822 3.81836 12.0322 3.81836C8.88223 3.81836 5.28223 3.89336 3.85723 3.96836C2.43223 4.04336 1.68223 4.26836 1.08223 5.46836C0.407227 6.59336 0.0322266 8.61836 0.0322266 12.2184C0.0322266 15.7434 0.407227 17.7684 1.08223 18.9684C1.75723 20.1684 2.43223 20.3934 3.85723 20.4684C5.28223 20.5434 8.88223 20.6184 12.0322 20.6184C15.1822 20.6184 18.7822 20.5434 20.2072 20.4684C21.6322 20.3934 22.3822 20.1684 22.9822 18.9684C23.6572 17.7684 24.0322 15.7434 24.0322 12.2184C24.0322 8.61836 23.6572 6.59336 22.9822 5.46836ZM9.63223 16.5684V7.79336L16.4572 12.2184L9.63223 16.5684Z"></path>
</g>
<defs>
<clipPath id="clip0_168_350">
<rect width="24" height="24" fill="white" transform="translate(0.0322266 0.0683594)"></rect>
</clipPath>
</defs>
</symbol>
</defs>
</svg>
